{
	"patcher" : 	{
		"fileversion" : 1,
		"appversion" : 		{
			"major" : 8,
			"minor" : 0,
			"revision" : 0,
			"architecture" : "x64",
			"modernui" : 1
		}
,
		"rect" : [ 508.0, 79.0, 866.0, 757.0 ],
		"bgcolor" : [ 0.898039, 0.898039, 0.898039, 1 ],
		"editing_bgcolor" : [ 0.9, 0.9, 0.9, 1.0 ],
		"bglocked" : 0,
		"openinpresentation" : 0,
		"default_fontsize" : 12.0,
		"default_fontface" : 0,
		"default_fontname" : "Arial",
		"gridonopen" : 1,
		"gridsize" : [ 15.0, 15.0 ],
		"gridsnaponopen" : 1,
		"objectsnaponopen" : 1,
		"statusbarvisible" : 2,
		"toolbarvisible" : 1,
		"lefttoolbarpinned" : 0,
		"toptoolbarpinned" : 0,
		"righttoolbarpinned" : 0,
		"bottomtoolbarpinned" : 0,
		"toolbars_unpinned_last_save" : 0,
		"tallnewobj" : 0,
		"boxanimatetime" : 200,
		"enablehscroll" : 1,
		"enablevscroll" : 1,
		"devicewidth" : 0.0,
		"description" : "",
		"digest" : "",
		"tags" : "",
		"style" : "",
		"subpatcher_template" : "",
		"boxes" : [ 			{
				"box" : 				{
					"id" : "obj-8",
					"linecount" : 5,
					"maxclass" : "comment",
					"numinlets" : 1,
					"numoutlets" : 0,
					"patching_rect" : [ 597.0, 135.0, 140.0, 74.0 ],
					"presentation_rect" : [ 597.0, 135.0, 140.0, 74.0 ],
					"style" : "",
					"text" : "shot-ms-phasor\n\nrama gottfried, 2016\n\n(see also cnmat.phase~)"
				}

			}
, 			{
				"box" : 				{
					"id" : "obj-7",
					"maxclass" : "newobj",
					"numinlets" : 0,
					"numoutlets" : 1,
					"outlettype" : [ "" ],
					"patching_rect" : [ 522.0, 28.0, 176.0, 22.0 ],
					"presentation_rect" : [ 522.0, 28.0, 176.0, 22.0 ],
					"style" : "",
					"text" : "in 2 @comment \"reset (signal)\""
				}

			}
, 			{
				"box" : 				{
					"id" : "obj-6",
					"maxclass" : "newobj",
					"numinlets" : 1,
					"numoutlets" : 0,
					"patching_rect" : [ 522.0, 654.0, 161.0, 22.0 ],
					"presentation_rect" : [ 522.0, 654.0, 161.0, 22.0 ],
					"style" : "",
					"text" : "out 3 @comment delegation"
				}

			}
, 			{
				"box" : 				{
					"id" : "obj-5",
					"maxclass" : "newobj",
					"numinlets" : 1,
					"numoutlets" : 0,
					"patching_rect" : [ 286.0, 654.0, 161.0, 22.0 ],
					"presentation_rect" : [ 286.0, 654.0, 161.0, 22.0 ],
					"style" : "",
					"text" : "out 2 @comment busy-state"
				}

			}
, 			{
				"box" : 				{
					"id" : "obj-1",
					"maxclass" : "newobj",
					"numinlets" : 0,
					"numoutlets" : 1,
					"outlettype" : [ "" ],
					"patching_rect" : [ 50.0, 32.0, 252.0, 22.0 ],
					"presentation_rect" : [ 50.0, 32.0, 252.0, 22.0 ],
					"style" : "",
					"text" : "in 1 @comment \"duration-in-ms (signal/float)\""
				}

			}
, 			{
				"box" : 				{
					"code" : "History busy, count, durSamps, inc, pc, prev;\r\nParam phasecycle(0);\r\nParam hzmode(0);\r\n\r\nreset = abs(in2);\r\nms = (hzmode == 0) ? abs(in1) : (1000. / abs(in1));\r\n\r\ndelegate = 0;\r\n\r\nif( phasecycle && in1 != prev )\r\n{\r\n\tif( busy == 0 )\r\n\t{\r\n\t\tdurSamps = mstosamps(ms);\r\n\t\tinc = sign(in1);\r\n\t\tcount = (inc > 0) ? 0 : durSamps - 1;\r\n\t}\r\n\telse\r\n\t{\r\n\t\tpc = clip(count / durSamps, 0, 1);\r\n\t\tdurSamps = mstosamps(ms);\r\n\t\tinc = sign(in1);\r\n\t\tcount = (inc > 0) ? ceil(pc*durSamps) : floor(pc*durSamps);\r\n\t}\r\n}\r\nelse\r\n{\r\n\tif( (busy == 0 || reset > 0) && ms > 0 )\r\n\t{\r\n\t\tdurSamps = mstosamps(ms);\r\n\t\tinc = sign(in1);\r\n\t\tcount = (inc > 0) ? 0 : durSamps - 1;\r\n\t}\r\n\telse\r\n\t\tdelegate = in1;\r\n}\r\n\r\nbusy = (count < durSamps) && (count >= 0);\r\npc = clip(count / durSamps, 0, 1);\r\nout1 = pc;\r\nout2 = busy;\r\nout3 = delegate;\r\ncount = count + inc;\r\nprev = in1;",
					"fontface" : 0,
					"fontname" : "Arial",
					"fontsize" : 12.0,
					"id" : "obj-3",
					"maxclass" : "codebox",
					"numinlets" : 2,
					"numoutlets" : 3,
					"outlettype" : [ "", "", "" ],
					"patching_rect" : [ 50.0, 66.0, 491.0, 552.0 ],
					"presentation_rect" : [ 50.0, 66.0, 491.0, 552.0 ],
					"style" : ""
				}

			}
, 			{
				"box" : 				{
					"id" : "obj-4",
					"maxclass" : "newobj",
					"numinlets" : 1,
					"numoutlets" : 0,
					"patching_rect" : [ 50.0, 658.0, 138.0, 22.0 ],
					"presentation_rect" : [ 50.0, 658.0, 138.0, 22.0 ],
					"style" : "",
					"text" : "out 1 @comment phase"
				}

			}
 ],
		"lines" : [ 			{
				"patchline" : 				{
					"destination" : [ "obj-3", 0 ],
					"source" : [ "obj-1", 0 ]
				}

			}
, 			{
				"patchline" : 				{
					"destination" : [ "obj-4", 0 ],
					"source" : [ "obj-3", 0 ]
				}

			}
, 			{
				"patchline" : 				{
					"destination" : [ "obj-5", 0 ],
					"source" : [ "obj-3", 1 ]
				}

			}
, 			{
				"patchline" : 				{
					"destination" : [ "obj-6", 0 ],
					"source" : [ "obj-3", 2 ]
				}

			}
, 			{
				"patchline" : 				{
					"destination" : [ "obj-3", 1 ],
					"source" : [ "obj-7", 0 ]
				}

			}
 ]
	}

}
