{
	"patcher" : 	{
		"fileversion" : 1,
		"appversion" : 		{
			"major" : 7,
			"minor" : 1,
			"revision" : 0,
			"architecture" : "x64",
			"modernui" : 1
		}
,
		"rect" : [ 223.0, 65.0, 1081.0, 406.0 ],
		"bglocked" : 0,
		"openinpresentation" : 1,
		"default_fontsize" : 12.0,
		"default_fontface" : 0,
		"default_fontname" : "Arial",
		"gridonopen" : 1,
		"gridsize" : [ 15.0, 15.0 ],
		"gridsnaponopen" : 1,
		"objectsnaponopen" : 1,
		"statusbarvisible" : 2,
		"toolbarvisible" : 1,
		"lefttoolbarpinned" : 0,
		"toptoolbarpinned" : 0,
		"righttoolbarpinned" : 0,
		"bottomtoolbarpinned" : 0,
		"toolbars_unpinned_last_save" : 15,
		"tallnewobj" : 0,
		"boxanimatetime" : 200,
		"enablehscroll" : 1,
		"enablevscroll" : 1,
		"devicewidth" : 0.0,
		"description" : "",
		"digest" : "",
		"tags" : "",
		"style" : "",
		"subpatcher_template" : "no-menus",
		"boxes" : [ 			{
				"box" : 				{
					"id" : "obj-20",
					"maxclass" : "newobj",
					"numinlets" : 1,
					"numoutlets" : 1,
					"outlettype" : [ "" ],
					"patching_rect" : [ 1124.0, 522.0, 74.0, 22.0 ],
					"style" : "",
					"text" : "prepend set"
				}

			}
, 			{
				"box" : 				{
					"fontname" : "Arial Italic",
					"fontsize" : 11.0,
					"id" : "obj-22",
					"maxclass" : "comment",
					"numinlets" : 1,
					"numoutlets" : 0,
					"patching_rect" : [ 1124.0, 561.5, 87.0, 19.0 ],
					"presentation" : 1,
					"presentation_rect" : [ 721.0, 95.0, 338.0, 19.0 ],
					"style" : "",
					"text" : "unknown client"
				}

			}
, 			{
				"box" : 				{
					"id" : "obj-19",
					"maxclass" : "newobj",
					"numinlets" : 1,
					"numoutlets" : 1,
					"outlettype" : [ "" ],
					"patching_rect" : [ 916.0, 522.0, 74.0, 22.0 ],
					"style" : "",
					"text" : "prepend set"
				}

			}
, 			{
				"box" : 				{
					"id" : "obj-16",
					"maxclass" : "newobj",
					"numinlets" : 2,
					"numoutlets" : 2,
					"outlettype" : [ "", "" ],
					"patching_rect" : [ 1211.0, 457.5, 100.0, 22.0 ],
					"style" : "",
					"text" : "zl.slice 1"
				}

			}
, 			{
				"box" : 				{
					"fontname" : "Arial Bold",
					"fontsize" : 11.0,
					"id" : "obj-15",
					"maxclass" : "comment",
					"numinlets" : 1,
					"numoutlets" : 0,
					"patching_rect" : [ 916.0, 561.5, 72.0, 19.0 ],
					"presentation" : 1,
					"presentation_rect" : [ 721.0, 82.0, 71.0, 19.0 ],
					"style" : "",
					"text" : "/err/version"
				}

			}
, 			{
				"box" : 				{
					"id" : "obj-11",
					"maxclass" : "newobj",
					"numinlets" : 1,
					"numoutlets" : 1,
					"outlettype" : [ "FullPacket" ],
					"patching_rect" : [ 1211.0, 423.0, 63.0, 22.0 ],
					"style" : "",
					"text" : "o.atomize"
				}

			}
, 			{
				"box" : 				{
					"id" : "obj-10",
					"maxclass" : "newobj",
					"numinlets" : 1,
					"numoutlets" : 1,
					"outlettype" : [ "" ],
					"patching_rect" : [ 61.0, 416.5, 56.0, 22.0 ],
					"style" : "",
					"text" : "deferlow"
				}

			}
, 			{
				"box" : 				{
					"id" : "obj-14",
					"maxclass" : "newobj",
					"numinlets" : 1,
					"numoutlets" : 1,
					"outlettype" : [ "FullPacket" ],
					"patcher" : 					{
						"fileversion" : 1,
						"appversion" : 						{
							"major" : 7,
							"minor" : 1,
							"revision" : 0,
							"architecture" : "x64",
							"modernui" : 1
						}
,
						"rect" : [ 65.0, 45.0, 1229.0, 851.0 ],
						"bglocked" : 0,
						"openinpresentation" : 0,
						"default_fontsize" : 12.0,
						"default_fontface" : 0,
						"default_fontname" : "Arial",
						"gridonopen" : 1,
						"gridsize" : [ 15.0, 15.0 ],
						"gridsnaponopen" : 1,
						"objectsnaponopen" : 1,
						"statusbarvisible" : 2,
						"toolbarvisible" : 1,
						"lefttoolbarpinned" : 0,
						"toptoolbarpinned" : 0,
						"righttoolbarpinned" : 0,
						"bottomtoolbarpinned" : 0,
						"toolbars_unpinned_last_save" : 15,
						"tallnewobj" : 0,
						"boxanimatetime" : 200,
						"enablehscroll" : 1,
						"enablevscroll" : 1,
						"devicewidth" : 0.0,
						"description" : "",
						"digest" : "",
						"tags" : "",
						"style" : "",
						"subpatcher_template" : "no-menus",
						"boxes" : [ 							{
								"box" : 								{
									"id" : "obj-26",
									"maxclass" : "comment",
									"numinlets" : 1,
									"numoutlets" : 0,
									"patching_rect" : [ 690.0, 205.0, 150.0, 20.0 ],
									"style" : "",
									"text" : "2.9239766082 ms / meter"
								}

							}
, 							{
								"box" : 								{
									"fontface" : 0,
									"fontsize" : 12.0,
									"id" : "obj-24",
									"linecount" : 26,
									"maxclass" : "o.expr.codebox",
									"numinlets" : 1,
									"numoutlets" : 2,
									"outlettype" : [ "FullPacket", "FullPacket" ],
									"patching_rect" : [ 230.0, 232.0, 891.0, 372.0 ],
									"text" : "/interpolation ??= 100, \n/curve ??= 0.,\n\nmap(\n  lambda(a,\n    if( bound(a+\"/aed\"),\n      progn(\n        /id = int32(split(\"/\", a)),\n        /aed = value(a+\"/aed\"),\n        /dist = (/aed[[2]] < 1.) ? 1. : /aed[[2]],\n        /amp = 1.0 / /dist,\n        assign(a+\"/amp\", [/amp, /interpolation, /curve] ),\n        assign(a+\"/delay\", /dist * 2.9239766082 ), # ms per meter\n\n        # hoalib format\n        /az = -degtorad() * /aed[[0]],\n        /el = degtorad() * /aed[[1]],\n        assign(a+\"/pol\", [ /aed[[2]], /az, /el ]),\n        assign(a+\"/az\", [/az, /interpolation, /curve] ),\n        assign(a+\"/el\", [/el, /interpolation, /curve] )\n      )\n    )\n  ), /addrs\n),\ndelete(/id), delete(/aed), delete(/dist), delete(/amp), delete(/addrs), delete(/az), delete(/el), delete(/interpolation), delete(/curve)",
									"textcolor" : [ 0.0, 0.0, 0.0, 1.0 ]
								}

							}
, 							{
								"box" : 								{
									"comment" : "",
									"id" : "obj-23",
									"maxclass" : "outlet",
									"numinlets" : 1,
									"numoutlets" : 0,
									"patching_rect" : [ 194.0, 718.0, 30.0, 30.0 ],
									"style" : ""
								}

							}
, 							{
								"box" : 								{
									"id" : "obj-20",
									"maxclass" : "newobj",
									"numinlets" : 1,
									"numoutlets" : 1,
									"outlettype" : [ "FullPacket" ],
									"patching_rect" : [ 230.0, 203.0, 63.0, 22.0 ],
									"style" : "",
									"text" : "o.flatten"
								}

							}
, 							{
								"box" : 								{
									"id" : "obj-21",
									"maxclass" : "newobj",
									"numinlets" : 1,
									"numoutlets" : 1,
									"outlettype" : [ "FullPacket" ],
									"patching_rect" : [ 230.0, 136.0, 63.0, 22.0 ],
									"style" : "",
									"text" : "o.explode"
								}

							}
, 							{
								"box" : 								{
									"fontface" : 0,
									"fontsize" : 12.0,
									"id" : "obj-22",
									"maxclass" : "o.expr.codebox",
									"numinlets" : 1,
									"numoutlets" : 2,
									"outlettype" : [ "FullPacket", "FullPacket" ],
									"patching_rect" : [ 230.0, 164.0, 178.0, 32.0 ],
									"text" : "/addrs = getaddresses()",
									"textcolor" : [ 0.0, 0.0, 0.0, 1.0 ]
								}

							}
, 							{
								"box" : 								{
									"comment" : "",
									"id" : "obj-17",
									"maxclass" : "inlet",
									"numinlets" : 0,
									"numoutlets" : 1,
									"outlettype" : [ "" ],
									"patching_rect" : [ 122.0, 22.0, 30.0, 30.0 ],
									"style" : ""
								}

							}
, 							{
								"box" : 								{
									"id" : "obj-9",
									"maxclass" : "comment",
									"numinlets" : 1,
									"numoutlets" : 0,
									"patching_rect" : [ 755.0, 70.0, 150.0, 20.0 ],
									"style" : "",
									"text" : "calc delay and gain"
								}

							}
, 							{
								"box" : 								{
									"id" : "obj-6",
									"maxclass" : "newobj",
									"numinlets" : 1,
									"numoutlets" : 1,
									"outlettype" : [ "FullPacket" ],
									"patching_rect" : [ 230.0, 649.0, 107.0, 22.0 ],
									"style" : "",
									"text" : "o.prepend /source"
								}

							}
, 							{
								"box" : 								{
									"id" : "obj-2",
									"maxclass" : "newobj",
									"numinlets" : 1,
									"numoutlets" : 2,
									"outlettype" : [ "", "FullPacket" ],
									"patching_rect" : [ 122.0, 81.0, 91.0, 22.0 ],
									"style" : "",
									"text" : "o.route /source"
								}

							}
, 							{
								"box" : 								{
									"fontface" : 0,
									"fontsize" : 12.0,
									"id" : "obj-1",
									"linecount" : 2,
									"maxclass" : "o.compose",
									"numinlets" : 2,
									"numoutlets" : 1,
									"outlettype" : [ "" ],
									"patching_rect" : [ 397.0, 11.0, 224.0, 38.0 ],
									"saved_bundle_data" : [ 35, 98, 117, 110, 100, 108, 101, 0, 0, 0, 0, 0, 0, 0, 0, 0, 0, 0, 0, 48, 47, 115, 111, 117, 114, 99, 101, 47, 49, 47, 97, 101, 100, 0, 0, 0, 44, 100, 100, 100, 0, 0, 0, 0, 64, 102, -128, 0, 0, 0, 0, 0, 0, 0, 0, 0, 0, 0, 0, 0, 63, -16, 0, 0, 0, 0, 0, 0 ],
									"saved_bundle_length" : 68,
									"text" : "/source/1/aed : [180., 0., 1.]",
									"textcolor" : [ 0.188, 0.188, 0.188, 1.0 ]
								}

							}
 ],
						"lines" : [ 							{
								"patchline" : 								{
									"destination" : [ "obj-2", 0 ],
									"disabled" : 0,
									"hidden" : 0,
									"source" : [ "obj-1", 0 ]
								}

							}
, 							{
								"patchline" : 								{
									"destination" : [ "obj-2", 0 ],
									"disabled" : 0,
									"hidden" : 0,
									"source" : [ "obj-17", 0 ]
								}

							}
, 							{
								"patchline" : 								{
									"destination" : [ "obj-21", 0 ],
									"disabled" : 0,
									"hidden" : 0,
									"source" : [ "obj-2", 0 ]
								}

							}
, 							{
								"patchline" : 								{
									"destination" : [ "obj-23", 0 ],
									"disabled" : 0,
									"hidden" : 0,
									"source" : [ "obj-2", 1 ]
								}

							}
, 							{
								"patchline" : 								{
									"destination" : [ "obj-24", 0 ],
									"disabled" : 0,
									"hidden" : 0,
									"source" : [ "obj-20", 0 ]
								}

							}
, 							{
								"patchline" : 								{
									"destination" : [ "obj-22", 0 ],
									"disabled" : 0,
									"hidden" : 0,
									"source" : [ "obj-21", 0 ]
								}

							}
, 							{
								"patchline" : 								{
									"destination" : [ "obj-20", 0 ],
									"disabled" : 0,
									"hidden" : 0,
									"source" : [ "obj-22", 0 ]
								}

							}
, 							{
								"patchline" : 								{
									"destination" : [ "obj-6", 0 ],
									"disabled" : 0,
									"hidden" : 0,
									"source" : [ "obj-24", 0 ]
								}

							}
, 							{
								"patchline" : 								{
									"destination" : [ "obj-23", 0 ],
									"disabled" : 0,
									"hidden" : 0,
									"source" : [ "obj-6", 0 ]
								}

							}
 ],
						"styles" : [ 							{
								"name" : "AudioStatus_Menu",
								"default" : 								{
									"bgfillcolor" : 									{
										"type" : "color",
										"color" : [ 0.294118, 0.313726, 0.337255, 1 ],
										"color1" : [ 0.454902, 0.462745, 0.482353, 0.0 ],
										"color2" : [ 0.290196, 0.309804, 0.301961, 1.0 ],
										"angle" : 270.0,
										"proportion" : 0.39,
										"autogradient" : 0
									}

								}
,
								"parentstyle" : "",
								"multi" : 0
							}
, 							{
								"name" : "newobjBlue-1",
								"default" : 								{
									"accentcolor" : [ 0.317647, 0.654902, 0.976471, 1.0 ]
								}
,
								"parentstyle" : "",
								"multi" : 0
							}
, 							{
								"name" : "newobjGreen-1",
								"default" : 								{
									"accentcolor" : [ 0.0, 0.533333, 0.168627, 1.0 ]
								}
,
								"parentstyle" : "",
								"multi" : 0
							}
, 							{
								"name" : "newobjYellow-1",
								"default" : 								{
									"fontsize" : [ 12.059008 ],
									"accentcolor" : [ 0.82517, 0.78181, 0.059545, 1.0 ]
								}
,
								"parentstyle" : "",
								"multi" : 0
							}
 ]
					}
,
					"patching_rect" : [ 61.0, 132.0, 82.0, 22.0 ],
					"saved_object_attributes" : 					{
						"description" : "",
						"digest" : "",
						"globalpatchername" : "",
						"style" : "",
						"tags" : ""
					}
,
					"style" : "",
					"text" : "p source-calc"
				}

			}
, 			{
				"box" : 				{
					"id" : "obj-17",
					"linecount" : 2,
					"maxclass" : "newobj",
					"numinlets" : 1,
					"numoutlets" : 3,
					"outlettype" : [ "", "", "FullPacket" ],
					"patching_rect" : [ 61.0, 176.5, 126.0, 35.0 ],
					"style" : "",
					"text" : "o.select /source/*/pol /source/*/aed"
				}

			}
, 			{
				"box" : 				{
					"id" : "obj-83",
					"maxclass" : "newobj",
					"numinlets" : 1,
					"numoutlets" : 1,
					"outlettype" : [ "" ],
					"patcher" : 					{
						"fileversion" : 1,
						"appversion" : 						{
							"major" : 7,
							"minor" : 1,
							"revision" : 0,
							"architecture" : "x64",
							"modernui" : 1
						}
,
						"rect" : [ 25.0, 70.0, 640.0, 480.0 ],
						"bglocked" : 0,
						"openinpresentation" : 0,
						"default_fontsize" : 12.0,
						"default_fontface" : 0,
						"default_fontname" : "Arial",
						"gridonopen" : 1,
						"gridsize" : [ 15.0, 15.0 ],
						"gridsnaponopen" : 1,
						"objectsnaponopen" : 1,
						"statusbarvisible" : 2,
						"toolbarvisible" : 1,
						"lefttoolbarpinned" : 0,
						"toptoolbarpinned" : 0,
						"righttoolbarpinned" : 0,
						"bottomtoolbarpinned" : 0,
						"toolbars_unpinned_last_save" : 15,
						"tallnewobj" : 0,
						"boxanimatetime" : 200,
						"enablehscroll" : 1,
						"enablevscroll" : 1,
						"devicewidth" : 0.0,
						"description" : "",
						"digest" : "",
						"tags" : "",
						"style" : "",
						"subpatcher_template" : "no-menus",
						"boxes" : [ 							{
								"box" : 								{
									"id" : "obj-78",
									"maxclass" : "newobj",
									"numinlets" : 2,
									"numoutlets" : 2,
									"outlettype" : [ "", "" ],
									"patching_rect" : [ 50.0, 174.0, 100.0, 22.0 ],
									"style" : "",
									"text" : "zl.join"
								}

							}
, 							{
								"box" : 								{
									"id" : "obj-77",
									"linecount" : 2,
									"maxclass" : "newobj",
									"numinlets" : 1,
									"numoutlets" : 1,
									"outlettype" : [ "" ],
									"patching_rect" : [ 50.0, 132.0, 82.0, 35.0 ],
									"style" : "",
									"text" : "fromsymbol @separator /"
								}

							}
, 							{
								"box" : 								{
									"id" : "obj-76",
									"maxclass" : "newobj",
									"numinlets" : 2,
									"numoutlets" : 2,
									"outlettype" : [ "", "" ],
									"patching_rect" : [ 50.0, 100.0, 100.0, 22.0 ],
									"style" : "",
									"text" : "zl.slice 1"
								}

							}
, 							{
								"box" : 								{
									"comment" : "",
									"id" : "obj-81",
									"maxclass" : "inlet",
									"numinlets" : 0,
									"numoutlets" : 1,
									"outlettype" : [ "" ],
									"patching_rect" : [ 50.0, 40.0, 30.0, 30.0 ],
									"style" : ""
								}

							}
, 							{
								"box" : 								{
									"comment" : "",
									"id" : "obj-82",
									"maxclass" : "outlet",
									"numinlets" : 1,
									"numoutlets" : 0,
									"patching_rect" : [ 50.0, 256.0, 30.0, 30.0 ],
									"style" : ""
								}

							}
 ],
						"lines" : [ 							{
								"patchline" : 								{
									"destination" : [ "obj-77", 0 ],
									"disabled" : 0,
									"hidden" : 0,
									"source" : [ "obj-76", 0 ]
								}

							}
, 							{
								"patchline" : 								{
									"destination" : [ "obj-78", 1 ],
									"disabled" : 0,
									"hidden" : 0,
									"source" : [ "obj-76", 1 ]
								}

							}
, 							{
								"patchline" : 								{
									"destination" : [ "obj-78", 0 ],
									"disabled" : 0,
									"hidden" : 0,
									"source" : [ "obj-77", 0 ]
								}

							}
, 							{
								"patchline" : 								{
									"destination" : [ "obj-82", 0 ],
									"disabled" : 0,
									"hidden" : 0,
									"source" : [ "obj-78", 0 ]
								}

							}
, 							{
								"patchline" : 								{
									"destination" : [ "obj-76", 0 ],
									"disabled" : 0,
									"hidden" : 0,
									"source" : [ "obj-81", 0 ]
								}

							}
 ]
					}
,
					"patching_rect" : [ 61.0, 339.5, 71.0, 22.0 ],
					"saved_object_attributes" : 					{
						"description" : "",
						"digest" : "",
						"globalpatchername" : "",
						"style" : "",
						"tags" : ""
					}
,
					"style" : "",
					"text" : "p fromOSC"
				}

			}
, 			{
				"box" : 				{
					"id" : "obj-72",
					"maxclass" : "newobj",
					"numinlets" : 1,
					"numoutlets" : 2,
					"outlettype" : [ "", "FullPacket" ],
					"patching_rect" : [ 61.0, 308.5, 133.0, 22.0 ],
					"style" : "",
					"text" : "o.atomize /source/*/pol"
				}

			}
, 			{
				"box" : 				{
					"fontname" : "Arial",
					"id" : "obj-60",
					"maxclass" : "newobj",
					"numinlets" : 1,
					"numoutlets" : 2,
					"outlettype" : [ "", "" ],
					"patcher" : 					{
						"fileversion" : 1,
						"appversion" : 						{
							"major" : 7,
							"minor" : 1,
							"revision" : 0,
							"architecture" : "x64",
							"modernui" : 1
						}
,
						"rect" : [ -34.0, 70.0, 859.0, 698.0 ],
						"bglocked" : 0,
						"openinpresentation" : 0,
						"default_fontsize" : 12.0,
						"default_fontface" : 0,
						"default_fontname" : "Arial",
						"gridonopen" : 1,
						"gridsize" : [ 15.0, 15.0 ],
						"gridsnaponopen" : 1,
						"objectsnaponopen" : 1,
						"statusbarvisible" : 2,
						"toolbarvisible" : 1,
						"lefttoolbarpinned" : 0,
						"toptoolbarpinned" : 0,
						"righttoolbarpinned" : 0,
						"bottomtoolbarpinned" : 0,
						"toolbars_unpinned_last_save" : 15,
						"tallnewobj" : 0,
						"boxanimatetime" : 200,
						"enablehscroll" : 1,
						"enablevscroll" : 1,
						"devicewidth" : 0.0,
						"description" : "",
						"digest" : "",
						"tags" : "",
						"style" : "",
						"subpatcher_template" : "no-menus",
						"boxes" : [ 							{
								"box" : 								{
									"comment" : "",
									"id" : "obj-1",
									"maxclass" : "outlet",
									"numinlets" : 1,
									"numoutlets" : 0,
									"patching_rect" : [ 106.0, 437.0, 30.0, 30.0 ],
									"style" : ""
								}

							}
, 							{
								"box" : 								{
									"fontface" : 0,
									"fontsize" : 12.0,
									"id" : "obj-41",
									"maxclass" : "o.compose",
									"numinlets" : 2,
									"numoutlets" : 1,
									"outlettype" : [ "" ],
									"patching_rect" : [ 385.5, 121.0, 159.0, 24.0 ],
									"saved_bundle_data" : [ 35, 98, 117, 110, 100, 108, 101, 0, 0, 0, 0, 0, 0, 0, 0, 0, 0, 0, 0, 24, 47, 99, 108, 105, 101, 110, 116, 47, 118, 101, 114, 115, 105, 111, 110, 0, 44, 105, 0, 0, 0, 0, 0, 1 ],
									"saved_bundle_length" : 44,
									"text" : "/client/version : 1",
									"textcolor" : [ 0.188, 0.188, 0.188, 1.0 ]
								}

							}
, 							{
								"box" : 								{
									"fontface" : 0,
									"fontsize" : 12.0,
									"id" : "obj-32",
									"linecount" : 2,
									"maxclass" : "o.display",
									"numinlets" : 1,
									"numoutlets" : 1,
									"outlettype" : [ "" ],
									"patching_rect" : [ 162.0, 385.0, 308.0, 48.0 ],
									"text" : "/from_server/subscribe/ip : \"localhost\",\n/from_server/version : 0",
									"textcolor" : [ 1.0, 1.0, 1.0, 1.0 ]
								}

							}
, 							{
								"box" : 								{
									"id" : "obj-15",
									"maxclass" : "newobj",
									"numinlets" : 1,
									"numoutlets" : 2,
									"outlettype" : [ "bang", "bang" ],
									"patching_rect" : [ 192.0, 137.0, 34.0, 22.0 ],
									"style" : "",
									"text" : "t b b"
								}

							}
, 							{
								"box" : 								{
									"fontface" : 0,
									"fontsize" : 12.0,
									"id" : "obj-14",
									"maxclass" : "o.compose",
									"numinlets" : 2,
									"numoutlets" : 1,
									"outlettype" : [ "" ],
									"patching_rect" : [ 192.0, 179.0, 174.0, 24.0 ],
									"saved_bundle_data" : [ 35, 98, 117, 110, 100, 108, 101, 0, 0, 0, 0, 0, 0, 0, 0, 0, 0, 0, 0, 28, 47, 115, 101, 114, 118, 101, 114, 47, 112, 105, 110, 103, 0, 0, 0, 0, 44, 115, 0, 0, 98, 97, 110, 103, 0, 0, 0, 0 ],
									"saved_bundle_length" : 48,
									"text" : "/server/ping : \"bang\"",
									"textcolor" : [ 0.188, 0.188, 0.188, 1.0 ]
								}

							}
, 							{
								"box" : 								{
									"id" : "obj-40",
									"maxclass" : "newobj",
									"numinlets" : 1,
									"numoutlets" : 1,
									"outlettype" : [ "bang" ],
									"patching_rect" : [ 192.0, 100.0, 60.0, 22.0 ],
									"style" : "",
									"text" : "loadbang"
								}

							}
, 							{
								"box" : 								{
									"id" : "obj-39",
									"maxclass" : "newobj",
									"numinlets" : 1,
									"numoutlets" : 1,
									"outlettype" : [ "FullPacket" ],
									"patching_rect" : [ 50.0, 187.0, 135.0, 22.0 ],
									"style" : "",
									"text" : "o.prepend /from_server"
								}

							}
, 							{
								"box" : 								{
									"fontface" : 0,
									"fontsize" : 12.0,
									"id" : "obj-25",
									"maxclass" : "o.display",
									"numinlets" : 1,
									"numoutlets" : 1,
									"outlettype" : [ "" ],
									"patching_rect" : [ 162.0, 471.0, 368.0, 34.0 ],
									"text" : "/err/version : \"none\"",
									"textcolor" : [ 1.0, 1.0, 1.0, 1.0 ]
								}

							}
, 							{
								"box" : 								{
									"id" : "obj-22",
									"maxclass" : "newobj",
									"numinlets" : 1,
									"numoutlets" : 1,
									"outlettype" : [ "FullPacket" ],
									"patcher" : 									{
										"fileversion" : 1,
										"appversion" : 										{
											"major" : 7,
											"minor" : 1,
											"revision" : 0,
											"architecture" : "x64",
											"modernui" : 1
										}
,
										"rect" : [ 470.0, 270.0, 768.0, 541.0 ],
										"bglocked" : 0,
										"openinpresentation" : 0,
										"default_fontsize" : 12.0,
										"default_fontface" : 0,
										"default_fontname" : "Arial",
										"gridonopen" : 1,
										"gridsize" : [ 15.0, 15.0 ],
										"gridsnaponopen" : 1,
										"objectsnaponopen" : 1,
										"statusbarvisible" : 2,
										"toolbarvisible" : 1,
										"lefttoolbarpinned" : 0,
										"toptoolbarpinned" : 0,
										"righttoolbarpinned" : 0,
										"bottomtoolbarpinned" : 0,
										"toolbars_unpinned_last_save" : 15,
										"tallnewobj" : 0,
										"boxanimatetime" : 200,
										"enablehscroll" : 1,
										"enablevscroll" : 1,
										"devicewidth" : 0.0,
										"description" : "",
										"digest" : "",
										"tags" : "",
										"style" : "",
										"subpatcher_template" : "no-menus",
										"boxes" : [ 											{
												"box" : 												{
													"fontface" : 0,
													"fontsize" : 12.0,
													"id" : "obj-13",
													"linecount" : 21,
													"maxclass" : "o.expr.codebox",
													"numinlets" : 1,
													"numoutlets" : 2,
													"outlettype" : [ "FullPacket", "FullPacket" ],
													"patching_rect" : [ 57.0, 93.0, 503.0, 304.0 ],
													"text" : "/from_server/version ??= \"unknown\",\n/client/version ??= \"unknown\",\n\n/err/version = \"uninitialized\",\n\nif( typetags(/from_server/version) == 's',\n  /err/version = \"unknown server\",\n  if( typetags(/client/version) == 's',\n    /err/version = \"unknown client\",\n    if( /from_server/version != /client/version,\n      /err/version = \"client and server versions no not match!\",\n      /err/version = \"none\"\n    )\n  )\n),\n\nif( bound(/server/subscribe/ip) && bound(/from_server/subscribe/ip) && (/server/subscribe/ip == /from_server/subscribe/ip),\n  delete( /server/subscribe/ip )\n)\n    ",
													"textcolor" : [ 0.0, 0.0, 0.0, 1.0 ]
												}

											}
, 											{
												"box" : 												{
													"comment" : "",
													"id" : "obj-20",
													"maxclass" : "inlet",
													"numinlets" : 0,
													"numoutlets" : 1,
													"outlettype" : [ "" ],
													"patching_rect" : [ 57.0, 23.0, 30.0, 30.0 ],
													"style" : ""
												}

											}
, 											{
												"box" : 												{
													"comment" : "",
													"id" : "obj-21",
													"maxclass" : "outlet",
													"numinlets" : 1,
													"numoutlets" : 0,
													"patching_rect" : [ 57.0, 426.0, 30.0, 30.0 ],
													"style" : ""
												}

											}
 ],
										"lines" : [ 											{
												"patchline" : 												{
													"destination" : [ "obj-21", 0 ],
													"disabled" : 0,
													"hidden" : 0,
													"source" : [ "obj-13", 0 ]
												}

											}
, 											{
												"patchline" : 												{
													"destination" : [ "obj-13", 0 ],
													"disabled" : 0,
													"hidden" : 0,
													"source" : [ "obj-20", 0 ]
												}

											}
 ]
									}
,
									"patching_rect" : [ 50.0, 253.0, 82.0, 22.0 ],
									"saved_object_attributes" : 									{
										"description" : "",
										"digest" : "",
										"globalpatchername" : "",
										"style" : "",
										"tags" : ""
									}
,
									"style" : "",
									"text" : "p version test"
								}

							}
, 							{
								"box" : 								{
									"id" : "obj-17",
									"maxclass" : "newobj",
									"numinlets" : 1,
									"numoutlets" : 4,
									"outlettype" : [ "", "", "", "FullPacket" ],
									"patching_rect" : [ 50.0, 349.0, 187.0, 22.0 ],
									"style" : "",
									"text" : "o.select /server /err /from_server"
								}

							}
, 							{
								"box" : 								{
									"id" : "obj-16",
									"maxclass" : "newobj",
									"numinlets" : 1,
									"numoutlets" : 1,
									"outlettype" : [ "" ],
									"patching_rect" : [ 50.0, 223.0, 78.0, 22.0 ],
									"style" : "",
									"text" : "env.o.accum"
								}

							}
, 							{
								"box" : 								{
									"fontface" : 0,
									"fontsize" : 12.0,
									"id" : "obj-10",
									"linecount" : 2,
									"maxclass" : "o.compose",
									"numinlets" : 2,
									"numoutlets" : 1,
									"outlettype" : [ "" ],
									"patching_rect" : [ 385.5, 179.0, 267.0, 38.0 ],
									"saved_bundle_data" : [ 35, 98, 117, 110, 100, 108, 101, 0, 0, 0, 0, 0, 0, 0, 0, 0, 0, 0, 0, 24, 47, 99, 108, 105, 101, 110, 116, 47, 118, 101, 114, 115, 105, 111, 110, 0, 44, 105, 0, 0, 0, 0, 0, 0, 0, 0, 0, 40, 47, 115, 101, 114, 118, 101, 114, 47, 115, 117, 98, 115, 99, 114, 105, 98, 101, 47, 105, 112, 0, 0, 0, 0, 44, 115, 0, 0, 108, 111, 99, 97, 108, 104, 111, 115, 116, 0, 0, 0 ],
									"saved_bundle_length" : 88,
									"text" : "/client/version : 0,\n/server/subscribe/ip : \"localhost\"",
									"textcolor" : [ 0.188, 0.188, 0.188, 1.0 ]
								}

							}
, 							{
								"box" : 								{
									"comment" : "",
									"id" : "obj-58",
									"maxclass" : "inlet",
									"numinlets" : 0,
									"numoutlets" : 1,
									"outlettype" : [ "FullPacket" ],
									"patching_rect" : [ 50.0, 40.0, 30.0, 30.0 ],
									"style" : ""
								}

							}
, 							{
								"box" : 								{
									"comment" : "",
									"id" : "obj-59",
									"maxclass" : "outlet",
									"numinlets" : 1,
									"numoutlets" : 0,
									"patching_rect" : [ 50.0, 548.0, 30.0, 30.0 ],
									"style" : ""
								}

							}
 ],
						"lines" : [ 							{
								"patchline" : 								{
									"destination" : [ "obj-16", 0 ],
									"disabled" : 0,
									"hidden" : 0,
									"source" : [ "obj-10", 0 ]
								}

							}
, 							{
								"patchline" : 								{
									"destination" : [ "obj-17", 0 ],
									"disabled" : 0,
									"hidden" : 0,
									"source" : [ "obj-14", 0 ]
								}

							}
, 							{
								"patchline" : 								{
									"destination" : [ "obj-10", 0 ],
									"disabled" : 0,
									"hidden" : 0,
									"source" : [ "obj-15", 1 ]
								}

							}
, 							{
								"patchline" : 								{
									"destination" : [ "obj-14", 0 ],
									"disabled" : 0,
									"hidden" : 0,
									"source" : [ "obj-15", 0 ]
								}

							}
, 							{
								"patchline" : 								{
									"destination" : [ "obj-22", 0 ],
									"disabled" : 0,
									"hidden" : 0,
									"source" : [ "obj-16", 0 ]
								}

							}
, 							{
								"patchline" : 								{
									"destination" : [ "obj-1", 0 ],
									"disabled" : 0,
									"hidden" : 0,
									"source" : [ "obj-17", 1 ]
								}

							}
, 							{
								"patchline" : 								{
									"destination" : [ "obj-25", 0 ],
									"disabled" : 0,
									"hidden" : 0,
									"source" : [ "obj-17", 1 ]
								}

							}
, 							{
								"patchline" : 								{
									"destination" : [ "obj-32", 0 ],
									"disabled" : 0,
									"hidden" : 0,
									"source" : [ "obj-17", 2 ]
								}

							}
, 							{
								"patchline" : 								{
									"destination" : [ "obj-59", 0 ],
									"disabled" : 0,
									"hidden" : 0,
									"source" : [ "obj-17", 0 ]
								}

							}
, 							{
								"patchline" : 								{
									"destination" : [ "obj-17", 0 ],
									"disabled" : 0,
									"hidden" : 0,
									"source" : [ "obj-22", 0 ]
								}

							}
, 							{
								"patchline" : 								{
									"destination" : [ "obj-16", 0 ],
									"disabled" : 0,
									"hidden" : 0,
									"source" : [ "obj-39", 0 ]
								}

							}
, 							{
								"patchline" : 								{
									"destination" : [ "obj-15", 0 ],
									"disabled" : 0,
									"hidden" : 0,
									"source" : [ "obj-40", 0 ]
								}

							}
, 							{
								"patchline" : 								{
									"destination" : [ "obj-16", 0 ],
									"disabled" : 0,
									"hidden" : 0,
									"source" : [ "obj-41", 0 ]
								}

							}
, 							{
								"patchline" : 								{
									"destination" : [ "obj-39", 0 ],
									"disabled" : 0,
									"hidden" : 0,
									"source" : [ "obj-58", 0 ]
								}

							}
 ]
					}
,
					"patching_rect" : [ 1130.0, 390.0, 100.0, 22.0 ],
					"saved_object_attributes" : 					{
						"description" : "",
						"digest" : "",
						"globalpatchername" : "",
						"style" : "",
						"tags" : ""
					}
,
					"style" : "",
					"text" : "p server-connect"
				}

			}
, 			{
				"box" : 				{
					"fontface" : 0,
					"fontsize" : 12.0,
					"id" : "obj-13",
					"maxclass" : "o.compose",
					"numinlets" : 2,
					"numoutlets" : 1,
					"outlettype" : [ "" ],
					"patching_rect" : [ 966.5, 398.0, 123.0, 24.0 ],
					"saved_bundle_data" : [ 35, 98, 117, 110, 100, 108, 101, 0, 0, 0, 0, 0, 0, 0, 0, 0, 0, 0, 0, 20, 47, 105, 110, 105, 116, 0, 0, 0, 44, 115, 0, 0, 98, 97, 110, 103, 0, 0, 0, 0 ],
					"saved_bundle_length" : 40,
					"text" : "/init : \"bang\"",
					"textcolor" : [ 0.188, 0.188, 0.188, 1.0 ]
				}

			}
, 			{
				"box" : 				{
					"id" : "obj-6",
					"maxclass" : "newobj",
					"numinlets" : 1,
					"numoutlets" : 2,
					"outlettype" : [ "", "FullPacket" ],
					"patching_rect" : [ 1030.0, 102.0, 119.0, 22.0 ],
					"style" : "",
					"text" : "o.route /dsp"
				}

			}
, 			{
				"box" : 				{
					"id" : "obj-2",
					"maxclass" : "newobj",
					"numinlets" : 1,
					"numoutlets" : 2,
					"outlettype" : [ "", "FullPacket" ],
					"patching_rect" : [ 1030.0, 73.0, 88.0, 22.0 ],
					"style" : "",
					"text" : "o.route /server"
				}

			}
, 			{
				"box" : 				{
					"fontname" : "Arial Italic",
					"id" : "obj-35",
					"linecount" : 2,
					"maxclass" : "comment",
					"numinlets" : 1,
					"numoutlets" : 0,
					"patching_rect" : [ 780.0, 652.5, 381.0, 33.0 ],
					"style" : "",
					"text" : "n.b.: envelop server ip will be listed somewhere in the documentation, and probably on a piece of paper by the computer..."
				}

			}
, 			{
				"box" : 				{
					"id" : "obj-9",
					"maxclass" : "comment",
					"numinlets" : 1,
					"numoutlets" : 0,
					"patching_rect" : [ 798.0, 551.0, 57.0, 20.0 ],
					"style" : "",
					"text" : "to server"
				}

			}
, 			{
				"box" : 				{
					"id" : "obj-7",
					"maxclass" : "newobj",
					"numinlets" : 1,
					"numoutlets" : 0,
					"patching_rect" : [ 768.0, 522.0, 137.0, 22.0 ],
					"style" : "",
					"text" : "udpsend localhost 4444"
				}

			}
, 			{
				"box" : 				{
					"id" : "obj-4",
					"maxclass" : "comment",
					"numinlets" : 1,
					"numoutlets" : 0,
					"patching_rect" : [ 1050.0, 16.0, 77.0, 20.0 ],
					"style" : "",
					"text" : "from server"
				}

			}
, 			{
				"box" : 				{
					"id" : "obj-5",
					"maxclass" : "newobj",
					"numinlets" : 1,
					"numoutlets" : 1,
					"outlettype" : [ "" ],
					"patching_rect" : [ 1030.0, 43.0, 135.0, 22.0 ],
					"style" : "",
					"text" : "udpreceive 5555 cnmat"
				}

			}
, 			{
				"box" : 				{
					"id" : "obj-3",
					"maxclass" : "comment",
					"numinlets" : 1,
					"numoutlets" : 0,
					"patching_rect" : [ 76.375, 48.5, 77.0, 20.0 ],
					"style" : "",
					"text" : "from ableton"
				}

			}
, 			{
				"box" : 				{
					"id" : "obj-1",
					"maxclass" : "newobj",
					"numinlets" : 1,
					"numoutlets" : 1,
					"outlettype" : [ "" ],
					"patching_rect" : [ 61.0, 83.5, 135.0, 22.0 ],
					"style" : "",
					"text" : "udpreceive 3333 cnmat"
				}

			}
, 			{
				"box" : 				{
					"id" : "obj-53",
					"linecount" : 2,
					"maxclass" : "message",
					"numinlets" : 2,
					"numoutlets" : 1,
					"outlettype" : [ "" ],
					"patching_rect" : [ 416.0, 410.0, 109.0, 35.0 ],
					"style" : "",
					"text" : "mapname envelop, view 1"
				}

			}
, 			{
				"box" : 				{
					"id" : "obj-55",
					"maxclass" : "message",
					"numinlets" : 2,
					"numoutlets" : 1,
					"outlettype" : [ "" ],
					"patching_rect" : [ 172.875, 427.0, 109.0, 22.0 ],
					"style" : "",
					"text" : "mapname envelop"
				}

			}
, 			{
				"box" : 				{
					"attr" : "zoom",
					"id" : "obj-27",
					"maxclass" : "attrui",
					"numinlets" : 1,
					"numoutlets" : 1,
					"outlettype" : [ "" ],
					"patching_rect" : [ 576.0, 423.0, 150.0, 22.0 ],
					"presentation" : 1,
					"presentation_rect" : [ 562.0, 358.0, 150.0, 22.0 ],
					"style" : ""
				}

			}
, 			{
				"box" : 				{
					"bgcolor" : [ 0.311041, 0.314599, 0.318357, 1.0 ],
					"id" : "obj-36",
					"maxclass" : "multislider",
					"numinlets" : 1,
					"numoutlets" : 2,
					"outlettype" : [ "", "" ],
					"parameter_enable" : 0,
					"patching_rect" : [ 597.0, 246.0, 153.0, 44.0 ],
					"presentation" : 1,
					"presentation_rect" : [ 893.118713, 7.0, 165.881271, 66.0 ],
					"setminmax" : [ -70.0, 6.0 ],
					"setstyle" : 1,
					"size" : 16,
					"slidercolor" : [ 0.803922, 0.898039, 0.909804, 1.0 ],
					"spacing" : 1,
					"style" : ""
				}

			}
, 			{
				"box" : 				{
					"id" : "obj-30",
					"maxclass" : "newobj",
					"numinlets" : 1,
					"numoutlets" : 3,
					"outlettype" : [ "", "", "FullPacket" ],
					"patching_rect" : [ 597.0, 159.0, 133.0, 22.0 ],
					"style" : "",
					"text" : "o.route /input /encoded"
				}

			}
, 			{
				"box" : 				{
					"bgcolor" : [ 0.311041, 0.314599, 0.318357, 1.0 ],
					"id" : "obj-28",
					"maxclass" : "multislider",
					"numinlets" : 1,
					"numoutlets" : 2,
					"outlettype" : [ "", "" ],
					"parameter_enable" : 0,
					"patching_rect" : [ 597.0, 192.0, 153.0, 44.0 ],
					"presentation" : 1,
					"presentation_rect" : [ 721.0, 7.0, 165.881271, 66.0 ],
					"setminmax" : [ -70.0, 6.0 ],
					"setstyle" : 1,
					"size" : 16,
					"slidercolor" : [ 0.803922, 0.898039, 0.909804, 1.0 ],
					"spacing" : 1,
					"style" : ""
				}

			}
, 			{
				"box" : 				{
					"id" : "obj-56",
					"maxclass" : "newobj",
					"numinlets" : 1,
					"numoutlets" : 1,
					"outlettype" : [ "FullPacket" ],
					"patching_rect" : [ 768.0, 410.0, 127.0, 22.0 ],
					"style" : "",
					"text" : "o.prepend /server/dsp"
				}

			}
, 			{
				"box" : 				{
					"bgmode" : 0,
					"border" : 0,
					"clickthrough" : 0,
					"enablehscroll" : 0,
					"enablevscroll" : 0,
					"id" : "obj-18",
					"lockeddragscroll" : 0,
					"maxclass" : "bpatcher",
					"name" : "o.io.dsp.setting.bp.maxpat",
					"numinlets" : 1,
					"numoutlets" : 1,
					"offset" : [ 0.0, 0.0 ],
					"outlettype" : [ "FullPacket" ],
					"patching_rect" : [ 768.0, 147.0, 338.0, 242.0 ],
					"presentation" : 1,
					"presentation_rect" : [ 721.0, 138.0, 338.0, 242.0 ],
					"viewvisibility" : 1
				}

			}
, 			{
				"box" : 				{
					"id" : "obj-24",
					"maxclass" : "newobj",
					"numinlets" : 1,
					"numoutlets" : 2,
					"outlettype" : [ "", "FullPacket" ],
					"patching_rect" : [ 702.0, 112.0, 85.0, 22.0 ],
					"style" : "",
					"text" : "o.route /meter"
				}

			}
, 			{
				"box" : 				{
					"bgcolor" : [ 0.19771, 0.188048, 0.201856, 1.0 ],
					"color" : [ 1.0, 1.0, 1.0, 1.0 ],
					"fontface" : 0,
					"fontname" : "Arial",
					"fontsize" : 8.0,
					"id" : "obj-54",
					"map_saved_state" : [ "_source_preset_data_", "source", 1, 1, 1.169881, 1.600975, 0.0, 0, 1.0, 1.0, 1.0, 1.0, "", "source", 2, 1, 1.696165, -1.027018, 0.0, 0, 1.0, 1.0, 1.0, 1.0, "", "source", 3, 1, 1.366965, -1.350055, 0.0, 0, 1.0, 1.0, 1.0, 1.0, "", "source", 4, 1, -1.366965, -1.350055, 0.0, 0, 1.0, 1.0, 1.0, 1.0, "", "source", 5, 1, -0.14889, 0.988854, 0.0, 0, 1.0, 1.0, 1.0, 1.0, "", "source", 6, 1, -0.219741, -0.975558, 0.0, 0, 1.0, 1.0, 1.0, 1.0, "", "source", 7, 1, -0.996402, -0.084752, 0.0, 0, 1.0, 1.0, 1.0, 1.0, "", "source", 8, 1, 0.075834, 0.99712, 0.0, 0, 1.0, 1.0, 1.0, 1.0, "", "source", 9, 1, -0.996402, -0.084752, 0.0, 0, 1.0, 1.0, 1.0, 1.0, "", "source", 10, 1, 0.075834, 0.99712, 0.0, 0, 1.0, 1.0, 1.0, 1.0, "", "source", 11, 1, -0.996402, -0.084752, 0.0, 0, 1.0, 1.0, 1.0, 1.0, "", "source", 12, 1, 0.075834, 0.99712, 0.0, 0, 1.0, 1.0, 1.0, 1.0, "", "source", 13, 1, -0.996402, -0.084752, 0.0, 0, 1.0, 1.0, 1.0, 1.0, "", "source", 14, 1, 0.075834, 0.99712, 0.0, 0, 1.0, 1.0, 1.0, 1.0, "", "source", 15, 1, -0.991044, -0.133538, 0.0, 0, 1.0, 1.0, 1.0, 1.0, "", "source", 16, 1, 0.02682, 0.99964, 0.0, 0, 1.0, 1.0, 1.0, 1.0, "", "source", 17, 0, 0.0, 0.0, 0.0, 0, 0.0, 0.0, 0.0, 1.0, "", "source", 18, 0, 0.0, 0.0, 0.0, 0, 0.0, 0.0, 0.0, 1.0, "", "source", 19, 0, 0.0, 0.0, 0.0, 0, 0.0, 0.0, 0.0, 1.0, "", "source", 20, 0, 0.0, 0.0, 0.0, 0, 0.0, 0.0, 0.0, 1.0, "", "source", 21, 0, 0.0, 0.0, 0.0, 0, 0.0, 0.0, 0.0, 1.0, "", "source", 22, 0, 0.0, 0.0, 0.0, 0, 0.0, 0.0, 0.0, 1.0, "", "source", 23, 0, 0.0, 0.0, 0.0, 0, 0.0, 0.0, 0.0, 1.0, "", "source", 24, 0, 0.0, 0.0, 0.0, 0, 0.0, 0.0, 0.0, 1.0, "", "source", 25, 0, 0.0, 0.0, 0.0, 0, 0.0, 0.0, 0.0, 1.0, "", "source", 26, 0, 0.0, 0.0, 0.0, 0, 0.0, 0.0, 0.0, 1.0, "", "source", 27, 0, 0.0, 0.0, 0.0, 0, 0.0, 0.0, 0.0, 1.0, "", "source", 28, 0, 0.0, 0.0, 0.0, 0, 0.0, 0.0, 0.0, 1.0, "", "source", 29, 0, 0.0, 0.0, 0.0, 0, 0.0, 0.0, 0.0, 1.0, "", "source", 30, 0, 0.0, 0.0, 0.0, 0, 0.0, 0.0, 0.0, 1.0, "", "source", 31, 0, 0.0, 0.0, 0.0, 0, 0.0, 0.0, 0.0, 1.0, "", "source", 32, 0, 0.0, 0.0, 0.0, 0, 0.0, 0.0, 0.0, 1.0, "", "source", 33, 0, 0.0, 0.0, 0.0, 0, 0.0, 0.0, 0.0, 1.0, "", "source", 34, 0, 0.0, 0.0, 0.0, 0, 0.0, 0.0, 0.0, 1.0, "", "source", 35, 0, 0.0, 0.0, 0.0, 0, 0.0, 0.0, 0.0, 1.0, "", "source", 36, 0, 0.0, 0.0, 0.0, 0, 0.0, 0.0, 0.0, 1.0, "", "source", 37, 0, 0.0, 0.0, 0.0, 0, 0.0, 0.0, 0.0, 1.0, "", "source", 38, 0, 0.0, 0.0, 0.0, 0, 0.0, 0.0, 0.0, 1.0, "", "source", 39, 0, 0.0, 0.0, 0.0, 0, 0.0, 0.0, 0.0, 1.0, "", "source", 40, 0, 0.0, 0.0, 0.0, 0, 0.0, 0.0, 0.0, 1.0, "", "source", 41, 0, 0.0, 0.0, 0.0, 0, 0.0, 0.0, 0.0, 1.0, "", "source", 42, 0, 0.0, 0.0, 0.0, 0, 0.0, 0.0, 0.0, 1.0, "", "source", 43, 0, 0.0, 0.0, 0.0, 0, 0.0, 0.0, 0.0, 1.0, "", "source", 44, 0, 0.0, 0.0, 0.0, 0, 0.0, 0.0, 0.0, 1.0, "", "source", 45, 0, 0.0, 0.0, 0.0, 0, 0.0, 0.0, 0.0, 1.0, "", "source", 46, 0, 0.0, 0.0, 0.0, 0, 0.0, 0.0, 0.0, 1.0, "", "source", 47, 0, 0.0, 0.0, 0.0, 0, 0.0, 0.0, 0.0, 1.0, "", "source", 48, 0, 0.0, 0.0, 0.0, 0, 0.0, 0.0, 0.0, 1.0, "", "source", 49, 0, 0.0, 0.0, 0.0, 0, 0.0, 0.0, 0.0, 1.0, "", "source", 50, 0, 0.0, 0.0, 0.0, 0, 0.0, 0.0, 0.0, 1.0, "", "source", 51, 0, 0.0, 0.0, 0.0, 0, 0.0, 0.0, 0.0, 1.0, "", "source", 52, 0, 0.0, 0.0, 0.0, 0, 0.0, 0.0, 0.0, 1.0, "", "source", 53, 0, 0.0, 0.0, 0.0, 0, 0.0, 0.0, 0.0, 1.0, "", "source", 54, 0, 0.0, 0.0, 0.0, 0, 0.0, 0.0, 0.0, 1.0, "", "source", 55, 0, 0.0, 0.0, 0.0, 0, 0.0, 0.0, 0.0, 1.0, "", "source", 56, 0, 0.0, 0.0, 0.0, 0, 0.0, 0.0, 0.0, 1.0, "", "source", 57, 0, 0.0, 0.0, 0.0, 0, 0.0, 0.0, 0.0, 1.0, "", "source", 58, 0, 0.0, 0.0, 0.0, 0, 0.0, 0.0, 0.0, 1.0, "", "source", 59, 0, 0.0, 0.0, 0.0, 0, 0.0, 0.0, 0.0, 1.0, "", "source", 60, 0, 0.0, 0.0, 0.0, 0, 0.0, 0.0, 0.0, 1.0, "", "source", 61, 0, 0.0, 0.0, 0.0, 0, 0.0, 0.0, 0.0, 1.0, "", "source", 62, 0, 0.0, 0.0, 0.0, 0, 0.0, 0.0, 0.0, 1.0, "", "source", 63, 0, 0.0, 0.0, 0.0, 0, 0.0, 0.0, 0.0, 1.0, "", "source", 64, 0, 0.0, 0.0, 0.0, 0, 0.0, 0.0, 0.0, 1.0, "", "_group_preset_data_", "group", 1, 0, "", 0.0, 0.0, 0.0, 0.0, "", "group", 2, 0, "", 0.0, 0.0, 0.0, 0.0, "", "group", 3, 0, "", 0.0, 0.0, 0.0, 0.0, "", "group", 4, 0, "", 0.0, 0.0, 0.0, 0.0, "", "group", 5, 0, "", 0.0, 0.0, 0.0, 0.0, "", "group", 6, 0, "", 0.0, 0.0, 0.0, 0.0, "", "group", 7, 0, "", 0.0, 0.0, 0.0, 0.0, "", "group", 8, 0, "", 0.0, 0.0, 0.0, 0.0, "", "group", 9, 0, "", 0.0, 0.0, 0.0, 0.0, "", "group", 10, 0, "", 0.0, 0.0, 0.0, 0.0, "", "group", 11, 0, "", 0.0, 0.0, 0.0, 0.0, "", "group", 12, 0, "", 0.0, 0.0, 0.0, 0.0, "", "group", 13, 0, "", 0.0, 0.0, 0.0, 0.0, "", "group", 14, 0, "", 0.0, 0.0, 0.0, 0.0, "", "group", 15, 0, "", 0.0, 0.0, 0.0, 0.0, "", "group", 16, 0, "", 0.0, 0.0, 0.0, 0.0, "", "group", 17, 0, "", 0.0, 0.0, 0.0, 0.0, "", "group", 18, 0, "", 0.0, 0.0, 0.0, 0.0, "", "group", 19, 0, "", 0.0, 0.0, 0.0, 0.0, "", "group", 20, 0, "", 0.0, 0.0, 0.0, 0.0, "", "group", 21, 0, "", 0.0, 0.0, 0.0, 0.0, "", "group", 22, 0, "", 0.0, 0.0, 0.0, 0.0, "", "group", 23, 0, "", 0.0, 0.0, 0.0, 0.0, "", "group", 24, 0, "", 0.0, 0.0, 0.0, 0.0, "", "group", 25, 0, "", 0.0, 0.0, 0.0, 0.0, "", "group", 26, 0, "", 0.0, 0.0, 0.0, 0.0, "", "group", 27, 0, "", 0.0, 0.0, 0.0, 0.0, "", "group", 28, 0, "", 0.0, 0.0, 0.0, 0.0, "", "group", 29, 0, "", 0.0, 0.0, 0.0, 0.0, "", "group", 30, 0, "", 0.0, 0.0, 0.0, 0.0, "", "group", 31, 0, "", 0.0, 0.0, 0.0, 0.0, "", "group", 32, 0, "", 0.0, 0.0, 0.0, 0.0, "", "group", 33, 0, "", 0.0, 0.0, 0.0, 0.0, "", "group", 34, 0, "", 0.0, 0.0, 0.0, 0.0, "", "group", 35, 0, "", 0.0, 0.0, 0.0, 0.0, "", "group", 36, 0, "", 0.0, 0.0, 0.0, 0.0, "", "group", 37, 0, "", 0.0, 0.0, 0.0, 0.0, "", "group", 38, 0, "", 0.0, 0.0, 0.0, 0.0, "", "group", 39, 0, "", 0.0, 0.0, 0.0, 0.0, "", "group", 40, 0, "", 0.0, 0.0, 0.0, 0.0, "", "group", 41, 0, "", 0.0, 0.0, 0.0, 0.0, "", "group", 42, 0, "", 0.0, 0.0, 0.0, 0.0, "", "group", 43, 0, "", 0.0, 0.0, 0.0, 0.0, "", "group", 44, 0, "", 0.0, 0.0, 0.0, 0.0, "", "group", 45, 0, "", 0.0, 0.0, 0.0, 0.0, "", "group", 46, 0, "", 0.0, 0.0, 0.0, 0.0, "", "group", 47, 0, "", 0.0, 0.0, 0.0, 0.0, "", "group", 48, 0, "", 0.0, 0.0, 0.0, 0.0, "", "group", 49, 0, "", 0.0, 0.0, 0.0, 0.0, "", "group", 50, 0, "", 0.0, 0.0, 0.0, 0.0, "", "group", 51, 0, "", 0.0, 0.0, 0.0, 0.0, "", "group", 52, 0, "", 0.0, 0.0, 0.0, 0.0, "", "group", 53, 0, "", 0.0, 0.0, 0.0, 0.0, "", "group", 54, 0, "", 0.0, 0.0, 0.0, 0.0, "", "group", 55, 0, "", 0.0, 0.0, 0.0, 0.0, "", "group", 56, 0, "", 0.0, 0.0, 0.0, 0.0, "", "group", 57, 0, "", 0.0, 0.0, 0.0, 0.0, "", "group", 58, 0, "", 0.0, 0.0, 0.0, 0.0, "", "group", 59, 0, "", 0.0, 0.0, 0.0, 0.0, "", "group", 60, 0, "", 0.0, 0.0, 0.0, 0.0, "", "group", 61, 0, "", 0.0, 0.0, 0.0, 0.0, "", "group", 62, 0, "", 0.0, 0.0, 0.0, 0.0, "", "group", 63, 0, "", 0.0, 0.0, 0.0, 0.0, "", "group", 64, 0, "", 0.0, 0.0, 0.0, 0.0, "" ],
					"mapname" : "envelop",
					"maxclass" : "hoa.map",
					"numinlets" : 1,
					"numoutlets" : 3,
					"outlettype" : [ "list", "list", "list" ],
					"parameter_enable" : 0,
					"patching_rect" : [ 416.0, 475.0, 314.0, 314.0 ],
					"presentation" : 1,
					"presentation_rect" : [ 363.0, 7.0, 349.0, 349.0 ],
					"selcolor" : [ 1.0, 1.0, 1.0, 0.501961 ],
					"view" : 1,
					"zoom" : 0.185
				}

			}
, 			{
				"box" : 				{
					"bgcolor" : [ 0.19771, 0.188048, 0.201856, 1.0 ],
					"color" : [ 1.0, 1.0, 1.0, 1.0 ],
					"fontface" : 0,
					"fontname" : "Arial",
					"fontsize" : 8.0,
					"id" : "obj-21",
					"map_saved_state" : [ "_source_preset_data_", "source", 1, 1, 1.169881, 1.600975, 0.0, 0, 1.0, 1.0, 1.0, 1.0, "", "source", 2, 1, 1.696165, -1.027018, 0.0, 0, 1.0, 1.0, 1.0, 1.0, "", "source", 3, 1, 1.366965, -1.350055, 0.0, 0, 1.0, 1.0, 1.0, 1.0, "", "source", 4, 1, -1.366965, -1.350055, 0.0, 0, 1.0, 1.0, 1.0, 1.0, "", "source", 5, 1, -0.14889, 0.988854, 0.0, 0, 1.0, 1.0, 1.0, 1.0, "", "source", 6, 1, -0.219741, -0.975558, 0.0, 0, 1.0, 1.0, 1.0, 1.0, "", "source", 7, 1, -0.996402, -0.084752, 0.0, 0, 1.0, 1.0, 1.0, 1.0, "", "source", 8, 1, 0.075834, 0.99712, 0.0, 0, 1.0, 1.0, 1.0, 1.0, "", "source", 9, 1, -0.996402, -0.084752, 0.0, 0, 1.0, 1.0, 1.0, 1.0, "", "source", 10, 1, 0.075834, 0.99712, 0.0, 0, 1.0, 1.0, 1.0, 1.0, "", "source", 11, 1, -0.996402, -0.084752, 0.0, 0, 1.0, 1.0, 1.0, 1.0, "", "source", 12, 1, 0.075834, 0.99712, 0.0, 0, 1.0, 1.0, 1.0, 1.0, "", "source", 13, 1, -0.996402, -0.084752, 0.0, 0, 1.0, 1.0, 1.0, 1.0, "", "source", 14, 1, 0.075834, 0.99712, 0.0, 0, 1.0, 1.0, 1.0, 1.0, "", "source", 15, 1, -0.991044, -0.133538, 0.0, 0, 1.0, 1.0, 1.0, 1.0, "", "source", 16, 1, 0.02682, 0.99964, 0.0, 0, 1.0, 1.0, 1.0, 1.0, "", "source", 17, 0, 0.0, 0.0, 0.0, 0, 0.0, 0.0, 0.0, 1.0, "", "source", 18, 0, 0.0, 0.0, 0.0, 0, 0.0, 0.0, 0.0, 1.0, "", "source", 19, 0, 0.0, 0.0, 0.0, 0, 0.0, 0.0, 0.0, 1.0, "", "source", 20, 0, 0.0, 0.0, 0.0, 0, 0.0, 0.0, 0.0, 1.0, "", "source", 21, 0, 0.0, 0.0, 0.0, 0, 0.0, 0.0, 0.0, 1.0, "", "source", 22, 0, 0.0, 0.0, 0.0, 0, 0.0, 0.0, 0.0, 1.0, "", "source", 23, 0, 0.0, 0.0, 0.0, 0, 0.0, 0.0, 0.0, 1.0, "", "source", 24, 0, 0.0, 0.0, 0.0, 0, 0.0, 0.0, 0.0, 1.0, "", "source", 25, 0, 0.0, 0.0, 0.0, 0, 0.0, 0.0, 0.0, 1.0, "", "source", 26, 0, 0.0, 0.0, 0.0, 0, 0.0, 0.0, 0.0, 1.0, "", "source", 27, 0, 0.0, 0.0, 0.0, 0, 0.0, 0.0, 0.0, 1.0, "", "source", 28, 0, 0.0, 0.0, 0.0, 0, 0.0, 0.0, 0.0, 1.0, "", "source", 29, 0, 0.0, 0.0, 0.0, 0, 0.0, 0.0, 0.0, 1.0, "", "source", 30, 0, 0.0, 0.0, 0.0, 0, 0.0, 0.0, 0.0, 1.0, "", "source", 31, 0, 0.0, 0.0, 0.0, 0, 0.0, 0.0, 0.0, 1.0, "", "source", 32, 0, 0.0, 0.0, 0.0, 0, 0.0, 0.0, 0.0, 1.0, "", "source", 33, 0, 0.0, 0.0, 0.0, 0, 0.0, 0.0, 0.0, 1.0, "", "source", 34, 0, 0.0, 0.0, 0.0, 0, 0.0, 0.0, 0.0, 1.0, "", "source", 35, 0, 0.0, 0.0, 0.0, 0, 0.0, 0.0, 0.0, 1.0, "", "source", 36, 0, 0.0, 0.0, 0.0, 0, 0.0, 0.0, 0.0, 1.0, "", "source", 37, 0, 0.0, 0.0, 0.0, 0, 0.0, 0.0, 0.0, 1.0, "", "source", 38, 0, 0.0, 0.0, 0.0, 0, 0.0, 0.0, 0.0, 1.0, "", "source", 39, 0, 0.0, 0.0, 0.0, 0, 0.0, 0.0, 0.0, 1.0, "", "source", 40, 0, 0.0, 0.0, 0.0, 0, 0.0, 0.0, 0.0, 1.0, "", "source", 41, 0, 0.0, 0.0, 0.0, 0, 0.0, 0.0, 0.0, 1.0, "", "source", 42, 0, 0.0, 0.0, 0.0, 0, 0.0, 0.0, 0.0, 1.0, "", "source", 43, 0, 0.0, 0.0, 0.0, 0, 0.0, 0.0, 0.0, 1.0, "", "source", 44, 0, 0.0, 0.0, 0.0, 0, 0.0, 0.0, 0.0, 1.0, "", "source", 45, 0, 0.0, 0.0, 0.0, 0, 0.0, 0.0, 0.0, 1.0, "", "source", 46, 0, 0.0, 0.0, 0.0, 0, 0.0, 0.0, 0.0, 1.0, "", "source", 47, 0, 0.0, 0.0, 0.0, 0, 0.0, 0.0, 0.0, 1.0, "", "source", 48, 0, 0.0, 0.0, 0.0, 0, 0.0, 0.0, 0.0, 1.0, "", "source", 49, 0, 0.0, 0.0, 0.0, 0, 0.0, 0.0, 0.0, 1.0, "", "source", 50, 0, 0.0, 0.0, 0.0, 0, 0.0, 0.0, 0.0, 1.0, "", "source", 51, 0, 0.0, 0.0, 0.0, 0, 0.0, 0.0, 0.0, 1.0, "", "source", 52, 0, 0.0, 0.0, 0.0, 0, 0.0, 0.0, 0.0, 1.0, "", "source", 53, 0, 0.0, 0.0, 0.0, 0, 0.0, 0.0, 0.0, 1.0, "", "source", 54, 0, 0.0, 0.0, 0.0, 0, 0.0, 0.0, 0.0, 1.0, "", "source", 55, 0, 0.0, 0.0, 0.0, 0, 0.0, 0.0, 0.0, 1.0, "", "source", 56, 0, 0.0, 0.0, 0.0, 0, 0.0, 0.0, 0.0, 1.0, "", "source", 57, 0, 0.0, 0.0, 0.0, 0, 0.0, 0.0, 0.0, 1.0, "", "source", 58, 0, 0.0, 0.0, 0.0, 0, 0.0, 0.0, 0.0, 1.0, "", "source", 59, 0, 0.0, 0.0, 0.0, 0, 0.0, 0.0, 0.0, 1.0, "", "source", 60, 0, 0.0, 0.0, 0.0, 0, 0.0, 0.0, 0.0, 1.0, "", "source", 61, 0, 0.0, 0.0, 0.0, 0, 0.0, 0.0, 0.0, 1.0, "", "source", 62, 0, 0.0, 0.0, 0.0, 0, 0.0, 0.0, 0.0, 1.0, "", "source", 63, 0, 0.0, 0.0, 0.0, 0, 0.0, 0.0, 0.0, 1.0, "", "source", 64, 0, 0.0, 0.0, 0.0, 0, 0.0, 0.0, 0.0, 1.0, "", "_group_preset_data_", "group", 1, 0, "", 0.0, 0.0, 0.0, 0.0, "", "group", 2, 0, "", 0.0, 0.0, 0.0, 0.0, "", "group", 3, 0, "", 0.0, 0.0, 0.0, 0.0, "", "group", 4, 0, "", 0.0, 0.0, 0.0, 0.0, "", "group", 5, 0, "", 0.0, 0.0, 0.0, 0.0, "", "group", 6, 0, "", 0.0, 0.0, 0.0, 0.0, "", "group", 7, 0, "", 0.0, 0.0, 0.0, 0.0, "", "group", 8, 0, "", 0.0, 0.0, 0.0, 0.0, "", "group", 9, 0, "", 0.0, 0.0, 0.0, 0.0, "", "group", 10, 0, "", 0.0, 0.0, 0.0, 0.0, "", "group", 11, 0, "", 0.0, 0.0, 0.0, 0.0, "", "group", 12, 0, "", 0.0, 0.0, 0.0, 0.0, "", "group", 13, 0, "", 0.0, 0.0, 0.0, 0.0, "", "group", 14, 0, "", 0.0, 0.0, 0.0, 0.0, "", "group", 15, 0, "", 0.0, 0.0, 0.0, 0.0, "", "group", 16, 0, "", 0.0, 0.0, 0.0, 0.0, "", "group", 17, 0, "", 0.0, 0.0, 0.0, 0.0, "", "group", 18, 0, "", 0.0, 0.0, 0.0, 0.0, "", "group", 19, 0, "", 0.0, 0.0, 0.0, 0.0, "", "group", 20, 0, "", 0.0, 0.0, 0.0, 0.0, "", "group", 21, 0, "", 0.0, 0.0, 0.0, 0.0, "", "group", 22, 0, "", 0.0, 0.0, 0.0, 0.0, "", "group", 23, 0, "", 0.0, 0.0, 0.0, 0.0, "", "group", 24, 0, "", 0.0, 0.0, 0.0, 0.0, "", "group", 25, 0, "", 0.0, 0.0, 0.0, 0.0, "", "group", 26, 0, "", 0.0, 0.0, 0.0, 0.0, "", "group", 27, 0, "", 0.0, 0.0, 0.0, 0.0, "", "group", 28, 0, "", 0.0, 0.0, 0.0, 0.0, "", "group", 29, 0, "", 0.0, 0.0, 0.0, 0.0, "", "group", 30, 0, "", 0.0, 0.0, 0.0, 0.0, "", "group", 31, 0, "", 0.0, 0.0, 0.0, 0.0, "", "group", 32, 0, "", 0.0, 0.0, 0.0, 0.0, "", "group", 33, 0, "", 0.0, 0.0, 0.0, 0.0, "", "group", 34, 0, "", 0.0, 0.0, 0.0, 0.0, "", "group", 35, 0, "", 0.0, 0.0, 0.0, 0.0, "", "group", 36, 0, "", 0.0, 0.0, 0.0, 0.0, "", "group", 37, 0, "", 0.0, 0.0, 0.0, 0.0, "", "group", 38, 0, "", 0.0, 0.0, 0.0, 0.0, "", "group", 39, 0, "", 0.0, 0.0, 0.0, 0.0, "", "group", 40, 0, "", 0.0, 0.0, 0.0, 0.0, "", "group", 41, 0, "", 0.0, 0.0, 0.0, 0.0, "", "group", 42, 0, "", 0.0, 0.0, 0.0, 0.0, "", "group", 43, 0, "", 0.0, 0.0, 0.0, 0.0, "", "group", 44, 0, "", 0.0, 0.0, 0.0, 0.0, "", "group", 45, 0, "", 0.0, 0.0, 0.0, 0.0, "", "group", 46, 0, "", 0.0, 0.0, 0.0, 0.0, "", "group", 47, 0, "", 0.0, 0.0, 0.0, 0.0, "", "group", 48, 0, "", 0.0, 0.0, 0.0, 0.0, "", "group", 49, 0, "", 0.0, 0.0, 0.0, 0.0, "", "group", 50, 0, "", 0.0, 0.0, 0.0, 0.0, "", "group", 51, 0, "", 0.0, 0.0, 0.0, 0.0, "", "group", 52, 0, "", 0.0, 0.0, 0.0, 0.0, "", "group", 53, 0, "", 0.0, 0.0, 0.0, 0.0, "", "group", 54, 0, "", 0.0, 0.0, 0.0, 0.0, "", "group", 55, 0, "", 0.0, 0.0, 0.0, 0.0, "", "group", 56, 0, "", 0.0, 0.0, 0.0, 0.0, "", "group", 57, 0, "", 0.0, 0.0, 0.0, 0.0, "", "group", 58, 0, "", 0.0, 0.0, 0.0, 0.0, "", "group", 59, 0, "", 0.0, 0.0, 0.0, 0.0, "", "group", 60, 0, "", 0.0, 0.0, 0.0, 0.0, "", "group", 61, 0, "", 0.0, 0.0, 0.0, 0.0, "", "group", 62, 0, "", 0.0, 0.0, 0.0, 0.0, "", "group", 63, 0, "", 0.0, 0.0, 0.0, 0.0, "", "group", 64, 0, "", 0.0, 0.0, 0.0, 0.0, "" ],
					"mapname" : "envelop",
					"maxclass" : "hoa.map",
					"numinlets" : 1,
					"numoutlets" : 3,
					"outlettype" : [ "list", "list", "list" ],
					"parameter_enable" : 0,
					"patching_rect" : [ 61.0, 475.0, 314.0, 314.0 ],
					"presentation" : 1,
					"presentation_rect" : [ 8.0, 7.0, 349.0, 349.0 ],
					"selcolor" : [ 1.0, 1.0, 1.0, 0.501961 ],
					"zoom" : 0.185
				}

			}
 ],
		"lines" : [ 			{
				"patchline" : 				{
					"destination" : [ "obj-14", 0 ],
					"disabled" : 0,
					"hidden" : 0,
					"source" : [ "obj-1", 0 ]
				}

			}
, 			{
				"patchline" : 				{
					"destination" : [ "obj-21", 0 ],
					"disabled" : 0,
					"hidden" : 0,
					"source" : [ "obj-10", 0 ]
				}

			}
, 			{
				"patchline" : 				{
					"destination" : [ "obj-16", 0 ],
					"disabled" : 0,
					"hidden" : 0,
					"source" : [ "obj-11", 0 ]
				}

			}
, 			{
				"patchline" : 				{
					"destination" : [ "obj-7", 0 ],
					"disabled" : 0,
					"hidden" : 0,
					"source" : [ "obj-13", 0 ]
				}

			}
, 			{
				"patchline" : 				{
					"destination" : [ "obj-17", 0 ],
					"disabled" : 0,
					"hidden" : 0,
					"source" : [ "obj-14", 0 ]
				}

			}
, 			{
				"patchline" : 				{
					"destination" : [ "obj-19", 0 ],
					"disabled" : 0,
					"hidden" : 0,
					"source" : [ "obj-16", 0 ]
				}

			}
, 			{
				"patchline" : 				{
					"destination" : [ "obj-20", 0 ],
					"disabled" : 0,
					"hidden" : 0,
					"source" : [ "obj-16", 1 ]
				}

			}
, 			{
				"patchline" : 				{
					"destination" : [ "obj-7", 0 ],
					"disabled" : 0,
					"hidden" : 0,
					"source" : [ "obj-17", 2 ]
				}

			}
, 			{
				"patchline" : 				{
					"destination" : [ "obj-72", 0 ],
					"disabled" : 0,
					"hidden" : 0,
					"source" : [ "obj-17", 0 ]
				}

			}
, 			{
				"patchline" : 				{
					"destination" : [ "obj-56", 0 ],
					"disabled" : 0,
					"hidden" : 0,
					"source" : [ "obj-18", 0 ]
				}

			}
, 			{
				"patchline" : 				{
					"destination" : [ "obj-15", 0 ],
					"disabled" : 0,
					"hidden" : 0,
					"source" : [ "obj-19", 0 ]
				}

			}
, 			{
				"patchline" : 				{
					"destination" : [ "obj-6", 0 ],
					"disabled" : 0,
					"hidden" : 0,
					"source" : [ "obj-2", 0 ]
				}

			}
, 			{
				"patchline" : 				{
					"destination" : [ "obj-22", 0 ],
					"disabled" : 0,
					"hidden" : 0,
					"source" : [ "obj-20", 0 ]
				}

			}
, 			{
				"patchline" : 				{
					"destination" : [ "obj-18", 0 ],
					"disabled" : 0,
					"hidden" : 0,
					"source" : [ "obj-24", 1 ]
				}

			}
, 			{
				"patchline" : 				{
					"destination" : [ "obj-30", 0 ],
					"disabled" : 0,
					"hidden" : 0,
					"source" : [ "obj-24", 0 ]
				}

			}
, 			{
				"patchline" : 				{
					"destination" : [ "obj-21", 0 ],
					"disabled" : 0,
					"hidden" : 0,
					"source" : [ "obj-27", 0 ]
				}

			}
, 			{
				"patchline" : 				{
					"destination" : [ "obj-54", 0 ],
					"disabled" : 0,
					"hidden" : 0,
					"source" : [ "obj-27", 0 ]
				}

			}
, 			{
				"patchline" : 				{
					"destination" : [ "obj-28", 0 ],
					"disabled" : 0,
					"hidden" : 0,
					"source" : [ "obj-30", 0 ]
				}

			}
, 			{
				"patchline" : 				{
					"destination" : [ "obj-36", 0 ],
					"disabled" : 0,
					"hidden" : 0,
					"source" : [ "obj-30", 1 ]
				}

			}
, 			{
				"patchline" : 				{
					"destination" : [ "obj-2", 0 ],
					"disabled" : 0,
					"hidden" : 0,
					"source" : [ "obj-5", 0 ]
				}

			}
, 			{
				"patchline" : 				{
					"destination" : [ "obj-54", 0 ],
					"disabled" : 0,
					"hidden" : 0,
					"source" : [ "obj-53", 0 ]
				}

			}
, 			{
				"patchline" : 				{
					"destination" : [ "obj-21", 0 ],
					"disabled" : 0,
					"hidden" : 0,
					"source" : [ "obj-55", 0 ]
				}

			}
, 			{
				"patchline" : 				{
					"destination" : [ "obj-7", 0 ],
					"disabled" : 0,
					"hidden" : 0,
					"source" : [ "obj-56", 0 ]
				}

			}
, 			{
				"patchline" : 				{
					"destination" : [ "obj-24", 0 ],
					"disabled" : 0,
					"hidden" : 0,
					"source" : [ "obj-6", 0 ]
				}

			}
, 			{
				"patchline" : 				{
					"destination" : [ "obj-60", 0 ],
					"disabled" : 0,
					"hidden" : 0,
					"source" : [ "obj-6", 1 ]
				}

			}
, 			{
				"patchline" : 				{
					"destination" : [ "obj-11", 0 ],
					"disabled" : 0,
					"hidden" : 0,
					"source" : [ "obj-60", 1 ]
				}

			}
, 			{
				"patchline" : 				{
					"destination" : [ "obj-7", 0 ],
					"disabled" : 0,
					"hidden" : 0,
					"source" : [ "obj-60", 0 ]
				}

			}
, 			{
				"patchline" : 				{
					"destination" : [ "obj-83", 0 ],
					"disabled" : 0,
					"hidden" : 0,
					"source" : [ "obj-72", 0 ]
				}

			}
, 			{
				"patchline" : 				{
					"destination" : [ "obj-10", 0 ],
					"disabled" : 0,
					"hidden" : 0,
					"source" : [ "obj-83", 0 ]
				}

			}
 ],
		"dependency_cache" : [ 			{
				"name" : "o.io.dsp.setting.bp.maxpat",
				"bootpath" : "~/Documents/dev-lib/EnvelopLive/dev/abstractions",
				"type" : "JSON",
				"implicit" : 1
			}
, 			{
				"name" : "o.io.dsp.setting.umenu.bp.maxpat",
				"bootpath" : "~/Documents/dev-lib/EnvelopLive/dev/abstractions",
				"type" : "JSON",
				"implicit" : 1
			}
, 			{
				"name" : "env.o.accum.maxpat",
				"bootpath" : "~/Documents/dev-lib/EnvelopLive/dev/abstractions",
				"type" : "JSON",
				"implicit" : 1
			}
, 			{
				"name" : "hoa.map.mxo",
				"type" : "iLaX"
			}
, 			{
				"name" : "o.route.mxo",
				"type" : "iLaX"
			}
, 			{
				"name" : "o.pack.mxo",
				"type" : "iLaX"
			}
, 			{
				"name" : "o.select.mxo",
				"type" : "iLaX"
			}
, 			{
				"name" : "o.union.mxo",
				"type" : "iLaX"
			}
, 			{
				"name" : "o.expr.codebox.mxo",
				"type" : "iLaX"
			}
, 			{
				"name" : "o.compose.mxo",
				"type" : "iLaX"
			}
, 			{
				"name" : "o.prepend.mxo",
				"type" : "iLaX"
			}
, 			{
				"name" : "o.display.mxo",
				"type" : "iLaX"
			}
, 			{
				"name" : "o.atomize.mxo",
				"type" : "iLaX"
			}
, 			{
				"name" : "o.explode.mxo",
				"type" : "iLaX"
			}
, 			{
				"name" : "o.flatten.mxo",
				"type" : "iLaX"
			}
 ],
		"autosave" : 0,
		"styles" : [ 			{
				"name" : "AudioStatus_Menu",
				"default" : 				{
					"bgfillcolor" : 					{
						"type" : "color",
						"color" : [ 0.294118, 0.313726, 0.337255, 1 ],
						"color1" : [ 0.454902, 0.462745, 0.482353, 0.0 ],
						"color2" : [ 0.290196, 0.309804, 0.301961, 1.0 ],
						"angle" : 270.0,
						"proportion" : 0.39,
						"autogradient" : 0
					}

				}
,
				"parentstyle" : "",
				"multi" : 0
			}
, 			{
				"name" : "newobjBlue-1",
				"default" : 				{
					"accentcolor" : [ 0.317647, 0.654902, 0.976471, 1.0 ]
				}
,
				"parentstyle" : "",
				"multi" : 0
			}
, 			{
				"name" : "newobjBlue-2",
				"default" : 				{
					"accentcolor" : [ 0.317647, 0.654902, 0.976471, 1.0 ]
				}
,
				"parentstyle" : "",
				"multi" : 0
			}
, 			{
				"name" : "newobjGreen-1",
				"default" : 				{
					"accentcolor" : [ 0.0, 0.533333, 0.168627, 1.0 ]
				}
,
				"parentstyle" : "",
				"multi" : 0
			}
, 			{
				"name" : "newobjGreen-2",
				"default" : 				{
					"accentcolor" : [ 0.0, 0.533333, 0.168627, 1.0 ]
				}
,
				"parentstyle" : "",
				"multi" : 0
			}
, 			{
				"name" : "newobjYellow-1",
				"default" : 				{
					"fontsize" : [ 12.059008 ],
					"accentcolor" : [ 0.82517, 0.78181, 0.059545, 1.0 ]
				}
,
				"parentstyle" : "",
				"multi" : 0
			}
, 			{
				"name" : "newobjYellow-2",
				"default" : 				{
					"fontsize" : [ 12.059008 ],
					"accentcolor" : [ 0.82517, 0.78181, 0.059545, 1.0 ]
				}
,
				"parentstyle" : "",
				"multi" : 0
			}
 ],
		"bgfillcolor_type" : "gradient",
		"bgfillcolor_color1" : [ 0.376471, 0.384314, 0.4, 1.0 ],
		"bgfillcolor_color2" : [ 0.290196, 0.309804, 0.301961, 1.0 ],
		"bgfillcolor_color" : [ 0.290196, 0.309804, 0.301961, 1.0 ],
		"bgfillcolor_angle" : 270.0,
		"bgfillcolor_proportion" : 0.39
	}

}
