{
	"patcher" : 	{
		"fileversion" : 1,
		"appversion" : 		{
			"major" : 7,
			"minor" : 0,
			"revision" : 6,
			"architecture" : "x64",
			"modernui" : 1
		}
,
		"rect" : [ 0.0, 45.0, 1167.0, 851.0 ],
		"bglocked" : 0,
		"openinpresentation" : 0,
		"default_fontsize" : 12.0,
		"default_fontface" : 0,
		"default_fontname" : "Arial",
		"gridonopen" : 1,
		"gridsize" : [ 15.0, 15.0 ],
		"gridsnaponopen" : 1,
		"objectsnaponopen" : 1,
		"statusbarvisible" : 2,
		"toolbarvisible" : 1,
		"lefttoolbarpinned" : 0,
		"toptoolbarpinned" : 0,
		"righttoolbarpinned" : 0,
		"bottomtoolbarpinned" : 0,
		"toolbars_unpinned_last_save" : 15,
		"tallnewobj" : 0,
		"boxanimatetime" : 200,
		"enablehscroll" : 1,
		"enablevscroll" : 1,
		"devicewidth" : 0.0,
		"description" : "",
		"digest" : "",
		"tags" : "",
		"style" : "",
		"subpatcher_template" : "no-menus",
		"boxes" : [ 			{
				"box" : 				{
					"fontface" : 0,
					"fontsize" : 12.0,
					"id" : "obj-23",
					"maxclass" : "o.display",
					"numinlets" : 1,
					"numoutlets" : 1,
					"outlettype" : [ "" ],
					"patching_rect" : [ 580.0, 449.0, 150.0, 34.0 ],
					"textcolor" : [ 1.0, 1.0, 1.0, 1.0 ]
				}

			}
, 			{
				"box" : 				{
					"id" : "obj-15",
					"maxclass" : "newobj",
					"numinlets" : 1,
					"numoutlets" : 1,
					"outlettype" : [ "FullPacket" ],
					"patching_rect" : [ 311.0, 381.0, 160.0, 22.0 ],
					"style" : "",
					"text" : "o.pack /source/*/reverb/filter"
				}

			}
, 			{
				"box" : 				{
					"fontface" : 0,
					"id" : "obj-10",
					"linmarkers" : [ 0.0, 11025.0, 16537.5 ],
					"logmarkers" : [ 0.0, 100.0, 1000.0, 10000.0 ],
					"maxclass" : "filtergraph~",
					"nfilters" : 1,
					"numinlets" : 8,
					"numoutlets" : 7,
					"outlettype" : [ "list", "float", "float", "float", "float", "list", "int" ],
					"parameter_enable" : 0,
					"patching_rect" : [ 311.0, 231.0, 256.0, 128.0 ],
					"setfilter" : [ 0, 1, 1, 0, 0, 862.763184, 0.961105, 0.643389, 0.0, 0.0, 0.0, 0.0, 0.0, 0.0 ],
					"style" : ""
				}

			}
, 			{
				"box" : 				{
					"id" : "obj-17",
					"linecount" : 2,
					"maxclass" : "newobj",
					"numinlets" : 1,
					"numoutlets" : 3,
					"outlettype" : [ "", "", "FullPacket" ],
					"patching_rect" : [ 56.0, 281.0, 126.0, 35.0 ],
					"style" : "",
					"text" : "o.select /source/*/pol /source/*/aed"
				}

			}
, 			{
				"box" : 				{
					"format" : 6,
					"id" : "obj-12",
					"maxclass" : "flonum",
					"numinlets" : 1,
					"numoutlets" : 2,
					"outlettype" : [ "", "bang" ],
					"parameter_enable" : 0,
					"patching_rect" : [ 218.0, 198.0, 50.0, 22.0 ],
					"style" : ""
				}

			}
, 			{
				"box" : 				{
					"id" : "obj-8",
					"maxclass" : "number",
					"numinlets" : 1,
					"numoutlets" : 2,
					"outlettype" : [ "", "bang" ],
					"parameter_enable" : 0,
					"patching_rect" : [ 406.0, 86.0, 50.0, 22.0 ],
					"style" : ""
				}

			}
, 			{
				"box" : 				{
					"id" : "obj-99",
					"maxclass" : "number",
					"numinlets" : 1,
					"numoutlets" : 2,
					"outlettype" : [ "", "bang" ],
					"parameter_enable" : 0,
					"patching_rect" : [ 368.0, 27.0, 50.0, 22.0 ],
					"style" : ""
				}

			}
, 			{
				"box" : 				{
					"format" : 6,
					"id" : "obj-90",
					"maxclass" : "flonum",
					"numinlets" : 1,
					"numoutlets" : 2,
					"outlettype" : [ "", "bang" ],
					"parameter_enable" : 0,
					"patching_rect" : [ 279.0, 14.0, 50.0, 22.0 ],
					"style" : ""
				}

			}
, 			{
				"box" : 				{
					"id" : "obj-91",
					"maxclass" : "newobj",
					"numinlets" : 6,
					"numoutlets" : 1,
					"outlettype" : [ "" ],
					"patching_rect" : [ 279.0, 111.0, 103.0, 22.0 ],
					"style" : "",
					"text" : "scale -1. 1. 1. 10."
				}

			}
, 			{
				"box" : 				{
					"id" : "obj-92",
					"maxclass" : "newobj",
					"numinlets" : 2,
					"numoutlets" : 1,
					"outlettype" : [ "float" ],
					"patching_rect" : [ 279.0, 81.0, 100.0, 22.0 ],
					"style" : "",
					"text" : "snapshot~ 100"
				}

			}
, 			{
				"box" : 				{
					"id" : "obj-93",
					"maxclass" : "newobj",
					"numinlets" : 2,
					"numoutlets" : 1,
					"outlettype" : [ "signal" ],
					"patching_rect" : [ 279.0, 48.0, 72.0, 22.0 ],
					"style" : "",
					"text" : "cycle~ 0.05"
				}

			}
, 			{
				"box" : 				{
					"format" : 6,
					"id" : "obj-86",
					"maxclass" : "flonum",
					"numinlets" : 1,
					"numoutlets" : 2,
					"outlettype" : [ "", "bang" ],
					"parameter_enable" : 0,
					"patching_rect" : [ 161.0, -1.0, 50.0, 22.0 ],
					"style" : ""
				}

			}
, 			{
				"box" : 				{
					"id" : "obj-87",
					"maxclass" : "newobj",
					"numinlets" : 6,
					"numoutlets" : 1,
					"outlettype" : [ "" ],
					"patching_rect" : [ 161.0, 96.0, 103.0, 22.0 ],
					"style" : "",
					"text" : "scale -1. 1. 0. 90"
				}

			}
, 			{
				"box" : 				{
					"id" : "obj-88",
					"maxclass" : "newobj",
					"numinlets" : 2,
					"numoutlets" : 1,
					"outlettype" : [ "float" ],
					"patching_rect" : [ 161.0, 66.0, 100.0, 22.0 ],
					"style" : "",
					"text" : "snapshot~ 100"
				}

			}
, 			{
				"box" : 				{
					"id" : "obj-89",
					"maxclass" : "newobj",
					"numinlets" : 2,
					"numoutlets" : 1,
					"outlettype" : [ "signal" ],
					"patching_rect" : [ 161.0, 33.0, 72.0, 22.0 ],
					"style" : "",
					"text" : "cycle~ 0.05"
				}

			}
, 			{
				"box" : 				{
					"id" : "obj-85",
					"maxclass" : "newobj",
					"numinlets" : 1,
					"numoutlets" : 1,
					"outlettype" : [ "" ],
					"patching_rect" : [ 56.0, 175.0, 127.0, 22.0 ],
					"style" : "",
					"text" : "prepend source 1 aed"
				}

			}
, 			{
				"box" : 				{
					"id" : "obj-84",
					"maxclass" : "newobj",
					"numinlets" : 3,
					"numoutlets" : 1,
					"outlettype" : [ "" ],
					"patching_rect" : [ 56.0, 142.0, 116.0, 22.0 ],
					"style" : "",
					"text" : "pack 0. 0. 2.157418"
				}

			}
, 			{
				"box" : 				{
					"id" : "obj-83",
					"maxclass" : "newobj",
					"numinlets" : 1,
					"numoutlets" : 1,
					"outlettype" : [ "" ],
					"patcher" : 					{
						"fileversion" : 1,
						"appversion" : 						{
							"major" : 7,
							"minor" : 0,
							"revision" : 6,
							"architecture" : "x64",
							"modernui" : 1
						}
,
						"rect" : [ 25.0, 70.0, 640.0, 480.0 ],
						"bglocked" : 0,
						"openinpresentation" : 0,
						"default_fontsize" : 12.0,
						"default_fontface" : 0,
						"default_fontname" : "Arial",
						"gridonopen" : 1,
						"gridsize" : [ 15.0, 15.0 ],
						"gridsnaponopen" : 1,
						"objectsnaponopen" : 1,
						"statusbarvisible" : 2,
						"toolbarvisible" : 1,
						"lefttoolbarpinned" : 0,
						"toptoolbarpinned" : 0,
						"righttoolbarpinned" : 0,
						"bottomtoolbarpinned" : 0,
						"toolbars_unpinned_last_save" : 15,
						"tallnewobj" : 0,
						"boxanimatetime" : 200,
						"enablehscroll" : 1,
						"enablevscroll" : 1,
						"devicewidth" : 0.0,
						"description" : "",
						"digest" : "",
						"tags" : "",
						"style" : "",
						"subpatcher_template" : "no-menus",
						"boxes" : [ 							{
								"box" : 								{
									"id" : "obj-78",
									"maxclass" : "newobj",
									"numinlets" : 2,
									"numoutlets" : 2,
									"outlettype" : [ "", "" ],
									"patching_rect" : [ 50.0, 174.0, 100.0, 22.0 ],
									"style" : "",
									"text" : "zl.join"
								}

							}
, 							{
								"box" : 								{
									"id" : "obj-77",
									"linecount" : 2,
									"maxclass" : "newobj",
									"numinlets" : 1,
									"numoutlets" : 1,
									"outlettype" : [ "" ],
									"patching_rect" : [ 50.0, 132.0, 82.0, 35.0 ],
									"style" : "",
									"text" : "fromsymbol @separator /"
								}

							}
, 							{
								"box" : 								{
									"id" : "obj-76",
									"maxclass" : "newobj",
									"numinlets" : 2,
									"numoutlets" : 2,
									"outlettype" : [ "", "" ],
									"patching_rect" : [ 50.0, 100.0, 100.0, 22.0 ],
									"style" : "",
									"text" : "zl.slice 1"
								}

							}
, 							{
								"box" : 								{
									"comment" : "",
									"id" : "obj-81",
									"maxclass" : "inlet",
									"numinlets" : 0,
									"numoutlets" : 1,
									"outlettype" : [ "" ],
									"patching_rect" : [ 50.0, 40.0, 30.0, 30.0 ],
									"style" : ""
								}

							}
, 							{
								"box" : 								{
									"comment" : "",
									"id" : "obj-82",
									"maxclass" : "outlet",
									"numinlets" : 1,
									"numoutlets" : 0,
									"patching_rect" : [ 50.0, 256.0, 30.0, 30.0 ],
									"style" : ""
								}

							}
 ],
						"lines" : [ 							{
								"patchline" : 								{
									"destination" : [ "obj-77", 0 ],
									"disabled" : 0,
									"hidden" : 0,
									"source" : [ "obj-76", 0 ]
								}

							}
, 							{
								"patchline" : 								{
									"destination" : [ "obj-78", 1 ],
									"disabled" : 0,
									"hidden" : 0,
									"source" : [ "obj-76", 1 ]
								}

							}
, 							{
								"patchline" : 								{
									"destination" : [ "obj-78", 0 ],
									"disabled" : 0,
									"hidden" : 0,
									"source" : [ "obj-77", 0 ]
								}

							}
, 							{
								"patchline" : 								{
									"destination" : [ "obj-82", 0 ],
									"disabled" : 0,
									"hidden" : 0,
									"source" : [ "obj-78", 0 ]
								}

							}
, 							{
								"patchline" : 								{
									"destination" : [ "obj-76", 0 ],
									"disabled" : 0,
									"hidden" : 0,
									"source" : [ "obj-81", 0 ]
								}

							}
 ]
					}
,
					"patching_rect" : [ 56.0, 394.0, 71.0, 22.0 ],
					"saved_object_attributes" : 					{
						"description" : "",
						"digest" : "",
						"globalpatchername" : "",
						"style" : "",
						"tags" : ""
					}
,
					"style" : "",
					"text" : "p fromOSC"
				}

			}
, 			{
				"box" : 				{
					"id" : "obj-72",
					"maxclass" : "newobj",
					"numinlets" : 1,
					"numoutlets" : 2,
					"outlettype" : [ "", "FullPacket" ],
					"patching_rect" : [ 56.0, 363.0, 133.0, 22.0 ],
					"style" : "",
					"text" : "o.atomize /source/*/pol"
				}

			}
, 			{
				"box" : 				{
					"format" : 6,
					"id" : "obj-70",
					"maxclass" : "flonum",
					"numinlets" : 1,
					"numoutlets" : 2,
					"outlettype" : [ "", "bang" ],
					"parameter_enable" : 0,
					"patching_rect" : [ 56.0, 14.0, 50.0, 22.0 ],
					"style" : ""
				}

			}
, 			{
				"box" : 				{
					"id" : "obj-65",
					"maxclass" : "newobj",
					"numinlets" : 2,
					"numoutlets" : 1,
					"outlettype" : [ "float" ],
					"patching_rect" : [ 56.0, 111.0, 43.0, 22.0 ],
					"style" : "",
					"text" : "* 360."
				}

			}
, 			{
				"box" : 				{
					"id" : "obj-62",
					"maxclass" : "newobj",
					"numinlets" : 2,
					"numoutlets" : 1,
					"outlettype" : [ "float" ],
					"patching_rect" : [ 56.0, 81.0, 100.0, 22.0 ],
					"style" : "",
					"text" : "snapshot~ 100"
				}

			}
, 			{
				"box" : 				{
					"id" : "obj-61",
					"maxclass" : "newobj",
					"numinlets" : 2,
					"numoutlets" : 1,
					"outlettype" : [ "signal" ],
					"patching_rect" : [ 56.0, 48.0, 72.0, 22.0 ],
					"style" : "",
					"text" : "cycle~ 0.05"
				}

			}
, 			{
				"box" : 				{
					"id" : "obj-60",
					"maxclass" : "newobj",
					"numinlets" : 1,
					"numoutlets" : 1,
					"outlettype" : [ "" ],
					"patcher" : 					{
						"fileversion" : 1,
						"appversion" : 						{
							"major" : 7,
							"minor" : 0,
							"revision" : 6,
							"architecture" : "x64",
							"modernui" : 1
						}
,
						"rect" : [ 25.0, 70.0, 640.0, 480.0 ],
						"bglocked" : 0,
						"openinpresentation" : 0,
						"default_fontsize" : 12.0,
						"default_fontface" : 0,
						"default_fontname" : "Arial",
						"gridonopen" : 1,
						"gridsize" : [ 15.0, 15.0 ],
						"gridsnaponopen" : 1,
						"objectsnaponopen" : 1,
						"statusbarvisible" : 2,
						"toolbarvisible" : 1,
						"lefttoolbarpinned" : 0,
						"toptoolbarpinned" : 0,
						"righttoolbarpinned" : 0,
						"bottomtoolbarpinned" : 0,
						"toolbars_unpinned_last_save" : 15,
						"tallnewobj" : 0,
						"boxanimatetime" : 200,
						"enablehscroll" : 1,
						"enablevscroll" : 1,
						"devicewidth" : 0.0,
						"description" : "",
						"digest" : "",
						"tags" : "",
						"style" : "",
						"subpatcher_template" : "no-menus",
						"boxes" : [ 							{
								"box" : 								{
									"fontface" : 0,
									"fontsize" : 12.0,
									"id" : "obj-41",
									"maxclass" : "o.compose",
									"numinlets" : 2,
									"numoutlets" : 1,
									"outlettype" : [ "" ],
									"patching_rect" : [ 385.5, 121.0, 159.0, 24.0 ],
									"saved_bundle_data" : [ 35, 98, 117, 110, 100, 108, 101, 0, 0, 0, 0, 0, 0, 0, 0, 0, 0, 0, 0, 24, 47, 99, 108, 105, 101, 110, 116, 47, 118, 101, 114, 115, 105, 111, 110, 0, 44, 105, 0, 0, 0, 0, 0, 1 ],
									"saved_bundle_length" : 44,
									"text" : "/client/version : 1",
									"textcolor" : [ 0.188, 0.188, 0.188, 1.0 ]
								}

							}
, 							{
								"box" : 								{
									"fontface" : 0,
									"fontsize" : 12.0,
									"id" : "obj-32",
									"linecount" : 2,
									"maxclass" : "o.display",
									"numinlets" : 1,
									"numoutlets" : 1,
									"outlettype" : [ "" ],
									"patching_rect" : [ 162.0, 385.0, 308.0, 48.0 ],
									"text" : "/from_server/subscribe/ip : \"localhost\",\n/from_server/version : 0",
									"textcolor" : [ 1.0, 1.0, 1.0, 1.0 ]
								}

							}
, 							{
								"box" : 								{
									"id" : "obj-15",
									"maxclass" : "newobj",
									"numinlets" : 1,
									"numoutlets" : 2,
									"outlettype" : [ "bang", "bang" ],
									"patching_rect" : [ 192.0, 137.0, 34.0, 22.0 ],
									"style" : "",
									"text" : "t b b"
								}

							}
, 							{
								"box" : 								{
									"fontface" : 0,
									"fontsize" : 12.0,
									"id" : "obj-14",
									"maxclass" : "o.compose",
									"numinlets" : 2,
									"numoutlets" : 1,
									"outlettype" : [ "" ],
									"patching_rect" : [ 192.0, 179.0, 174.0, 24.0 ],
									"saved_bundle_data" : [ 35, 98, 117, 110, 100, 108, 101, 0, 0, 0, 0, 0, 0, 0, 0, 0, 0, 0, 0, 28, 47, 115, 101, 114, 118, 101, 114, 47, 112, 105, 110, 103, 0, 0, 0, 0, 44, 115, 0, 0, 98, 97, 110, 103, 0, 0, 0, 0 ],
									"saved_bundle_length" : 48,
									"text" : "/server/ping : \"bang\"",
									"textcolor" : [ 0.188, 0.188, 0.188, 1.0 ]
								}

							}
, 							{
								"box" : 								{
									"id" : "obj-40",
									"maxclass" : "newobj",
									"numinlets" : 1,
									"numoutlets" : 1,
									"outlettype" : [ "bang" ],
									"patching_rect" : [ 192.0, 100.0, 60.0, 22.0 ],
									"style" : "",
									"text" : "loadbang"
								}

							}
, 							{
								"box" : 								{
									"id" : "obj-39",
									"maxclass" : "newobj",
									"numinlets" : 1,
									"numoutlets" : 1,
									"outlettype" : [ "FullPacket" ],
									"patching_rect" : [ 50.0, 187.0, 135.0, 22.0 ],
									"style" : "",
									"text" : "o.prepend /from_server"
								}

							}
, 							{
								"box" : 								{
									"fontface" : 0,
									"fontsize" : 12.0,
									"id" : "obj-25",
									"maxclass" : "o.display",
									"numinlets" : 1,
									"numoutlets" : 1,
									"outlettype" : [ "" ],
									"patching_rect" : [ 106.0, 454.0, 368.0, 34.0 ],
									"text" : "/err/version : \"none\"",
									"textcolor" : [ 1.0, 1.0, 1.0, 1.0 ]
								}

							}
, 							{
								"box" : 								{
									"id" : "obj-22",
									"maxclass" : "newobj",
									"numinlets" : 1,
									"numoutlets" : 1,
									"outlettype" : [ "FullPacket" ],
									"patcher" : 									{
										"fileversion" : 1,
										"appversion" : 										{
											"major" : 7,
											"minor" : 0,
											"revision" : 6,
											"architecture" : "x64",
											"modernui" : 1
										}
,
										"rect" : [ 470.0, 270.0, 768.0, 541.0 ],
										"bglocked" : 0,
										"openinpresentation" : 0,
										"default_fontsize" : 12.0,
										"default_fontface" : 0,
										"default_fontname" : "Arial",
										"gridonopen" : 1,
										"gridsize" : [ 15.0, 15.0 ],
										"gridsnaponopen" : 1,
										"objectsnaponopen" : 1,
										"statusbarvisible" : 2,
										"toolbarvisible" : 1,
										"lefttoolbarpinned" : 0,
										"toptoolbarpinned" : 0,
										"righttoolbarpinned" : 0,
										"bottomtoolbarpinned" : 0,
										"toolbars_unpinned_last_save" : 15,
										"tallnewobj" : 0,
										"boxanimatetime" : 200,
										"enablehscroll" : 1,
										"enablevscroll" : 1,
										"devicewidth" : 0.0,
										"description" : "",
										"digest" : "",
										"tags" : "",
										"style" : "",
										"subpatcher_template" : "no-menus",
										"boxes" : [ 											{
												"box" : 												{
													"fontface" : 0,
													"fontsize" : 12.0,
													"id" : "obj-13",
													"linecount" : 21,
													"maxclass" : "o.expr.codebox",
													"numinlets" : 1,
													"numoutlets" : 2,
													"outlettype" : [ "FullPacket", "FullPacket" ],
													"patching_rect" : [ 57.0, 93.0, 503.0, 304.0 ],
													"text" : "/from_server/version ??= \"unknown\",\n/client/version ??= \"unknown\",\n\n/err/version = \"uninitialized\",\n\nif( typetags(/from_server/version) == 's',\n  /err/version = \"unknown server\",\n  if( typetags(/client/version) == 's',\n    /err/version = \"unknown client\",\n    if( /from_server/version != /client/version,\n      /err/version = \"client and server versions no not match!\",\n      /err/version = \"none\"\n    )\n  )\n),\n\nif( bound(/server/subscribe/ip) && bound(/from_server/subscribe/ip) && (/server/subscribe/ip == /from_server/subscribe/ip),\n  delete( /server/subscribe/ip )\n)\n    ",
													"textcolor" : [ 0.0, 0.0, 0.0, 1.0 ]
												}

											}
, 											{
												"box" : 												{
													"comment" : "",
													"id" : "obj-20",
													"maxclass" : "inlet",
													"numinlets" : 0,
													"numoutlets" : 1,
													"outlettype" : [ "" ],
													"patching_rect" : [ 57.0, 23.0, 30.0, 30.0 ],
													"style" : ""
												}

											}
, 											{
												"box" : 												{
													"comment" : "",
													"id" : "obj-21",
													"maxclass" : "outlet",
													"numinlets" : 1,
													"numoutlets" : 0,
													"patching_rect" : [ 57.0, 426.0, 30.0, 30.0 ],
													"style" : ""
												}

											}
 ],
										"lines" : [ 											{
												"patchline" : 												{
													"destination" : [ "obj-21", 0 ],
													"disabled" : 0,
													"hidden" : 0,
													"source" : [ "obj-13", 0 ]
												}

											}
, 											{
												"patchline" : 												{
													"destination" : [ "obj-13", 0 ],
													"disabled" : 0,
													"hidden" : 0,
													"source" : [ "obj-20", 0 ]
												}

											}
 ]
									}
,
									"patching_rect" : [ 50.0, 253.0, 82.0, 22.0 ],
									"saved_object_attributes" : 									{
										"description" : "",
										"digest" : "",
										"globalpatchername" : "",
										"style" : "",
										"tags" : ""
									}
,
									"style" : "",
									"text" : "p version test"
								}

							}
, 							{
								"box" : 								{
									"id" : "obj-17",
									"maxclass" : "newobj",
									"numinlets" : 1,
									"numoutlets" : 4,
									"outlettype" : [ "", "", "", "FullPacket" ],
									"patching_rect" : [ 50.0, 349.0, 187.0, 22.0 ],
									"style" : "",
									"text" : "o.select /server /err /from_server"
								}

							}
, 							{
								"box" : 								{
									"id" : "obj-16",
									"maxclass" : "newobj",
									"numinlets" : 1,
									"numoutlets" : 1,
									"outlettype" : [ "" ],
									"patching_rect" : [ 50.0, 223.0, 78.0, 22.0 ],
									"style" : "",
									"text" : "env.o.accum"
								}

							}
, 							{
								"box" : 								{
									"fontface" : 0,
									"fontsize" : 12.0,
									"id" : "obj-10",
									"linecount" : 2,
									"maxclass" : "o.compose",
									"numinlets" : 2,
									"numoutlets" : 1,
									"outlettype" : [ "" ],
									"patching_rect" : [ 385.5, 179.0, 267.0, 38.0 ],
									"saved_bundle_data" : [ 35, 98, 117, 110, 100, 108, 101, 0, 0, 0, 0, 0, 0, 0, 0, 0, 0, 0, 0, 24, 47, 99, 108, 105, 101, 110, 116, 47, 118, 101, 114, 115, 105, 111, 110, 0, 44, 105, 0, 0, 0, 0, 0, 0, 0, 0, 0, 40, 47, 115, 101, 114, 118, 101, 114, 47, 115, 117, 98, 115, 99, 114, 105, 98, 101, 47, 105, 112, 0, 0, 0, 0, 44, 115, 0, 0, 108, 111, 99, 97, 108, 104, 111, 115, 116, 0, 0, 0 ],
									"saved_bundle_length" : 88,
									"text" : "/client/version : 0,\n/server/subscribe/ip : \"localhost\"",
									"textcolor" : [ 0.188, 0.188, 0.188, 1.0 ]
								}

							}
, 							{
								"box" : 								{
									"comment" : "",
									"id" : "obj-58",
									"maxclass" : "inlet",
									"numinlets" : 0,
									"numoutlets" : 1,
									"outlettype" : [ "FullPacket" ],
									"patching_rect" : [ 50.0, 40.0, 30.0, 30.0 ],
									"style" : ""
								}

							}
, 							{
								"box" : 								{
									"comment" : "",
									"id" : "obj-59",
									"maxclass" : "outlet",
									"numinlets" : 1,
									"numoutlets" : 0,
									"patching_rect" : [ 50.0, 548.0, 30.0, 30.0 ],
									"style" : ""
								}

							}
 ],
						"lines" : [ 							{
								"patchline" : 								{
									"destination" : [ "obj-16", 0 ],
									"disabled" : 0,
									"hidden" : 0,
									"source" : [ "obj-10", 0 ]
								}

							}
, 							{
								"patchline" : 								{
									"destination" : [ "obj-17", 0 ],
									"disabled" : 0,
									"hidden" : 0,
									"source" : [ "obj-14", 0 ]
								}

							}
, 							{
								"patchline" : 								{
									"destination" : [ "obj-10", 0 ],
									"disabled" : 0,
									"hidden" : 0,
									"source" : [ "obj-15", 1 ]
								}

							}
, 							{
								"patchline" : 								{
									"destination" : [ "obj-14", 0 ],
									"disabled" : 0,
									"hidden" : 0,
									"source" : [ "obj-15", 0 ]
								}

							}
, 							{
								"patchline" : 								{
									"destination" : [ "obj-22", 0 ],
									"disabled" : 0,
									"hidden" : 0,
									"source" : [ "obj-16", 0 ]
								}

							}
, 							{
								"patchline" : 								{
									"destination" : [ "obj-25", 0 ],
									"disabled" : 0,
									"hidden" : 0,
									"source" : [ "obj-17", 1 ]
								}

							}
, 							{
								"patchline" : 								{
									"destination" : [ "obj-32", 0 ],
									"disabled" : 0,
									"hidden" : 0,
									"source" : [ "obj-17", 2 ]
								}

							}
, 							{
								"patchline" : 								{
									"destination" : [ "obj-59", 0 ],
									"disabled" : 0,
									"hidden" : 0,
									"source" : [ "obj-17", 0 ]
								}

							}
, 							{
								"patchline" : 								{
									"destination" : [ "obj-17", 0 ],
									"disabled" : 0,
									"hidden" : 0,
									"source" : [ "obj-22", 0 ]
								}

							}
, 							{
								"patchline" : 								{
									"destination" : [ "obj-16", 0 ],
									"disabled" : 0,
									"hidden" : 0,
									"source" : [ "obj-39", 0 ]
								}

							}
, 							{
								"patchline" : 								{
									"destination" : [ "obj-15", 0 ],
									"disabled" : 0,
									"hidden" : 0,
									"source" : [ "obj-40", 0 ]
								}

							}
, 							{
								"patchline" : 								{
									"destination" : [ "obj-39", 0 ],
									"disabled" : 0,
									"hidden" : 0,
									"source" : [ "obj-58", 0 ]
								}

							}
 ]
					}
,
					"patching_rect" : [ 1130.0, 390.0, 100.0, 22.0 ],
					"saved_object_attributes" : 					{
						"description" : "",
						"digest" : "",
						"globalpatchername" : "",
						"style" : "",
						"tags" : ""
					}
,
					"style" : "",
					"text" : "p server-connect"
				}

			}
, 			{
				"box" : 				{
					"id" : "obj-47",
					"maxclass" : "newobj",
					"numinlets" : 1,
					"numoutlets" : 1,
					"outlettype" : [ "FullPacket" ],
					"patcher" : 					{
						"fileversion" : 1,
						"appversion" : 						{
							"major" : 7,
							"minor" : 0,
							"revision" : 6,
							"architecture" : "x64",
							"modernui" : 1
						}
,
						"rect" : [ 25.0, 70.0, 640.0, 480.0 ],
						"bglocked" : 0,
						"openinpresentation" : 0,
						"default_fontsize" : 12.0,
						"default_fontface" : 0,
						"default_fontname" : "Arial",
						"gridonopen" : 1,
						"gridsize" : [ 15.0, 15.0 ],
						"gridsnaponopen" : 1,
						"objectsnaponopen" : 1,
						"statusbarvisible" : 2,
						"toolbarvisible" : 1,
						"lefttoolbarpinned" : 0,
						"toptoolbarpinned" : 0,
						"righttoolbarpinned" : 0,
						"bottomtoolbarpinned" : 0,
						"toolbars_unpinned_last_save" : 15,
						"tallnewobj" : 0,
						"boxanimatetime" : 200,
						"enablehscroll" : 1,
						"enablevscroll" : 1,
						"devicewidth" : 0.0,
						"description" : "",
						"digest" : "",
						"tags" : "",
						"style" : "",
						"subpatcher_template" : "no-menus",
						"boxes" : [ 							{
								"box" : 								{
									"id" : "obj-38",
									"maxclass" : "newobj",
									"numinlets" : 2,
									"numoutlets" : 1,
									"outlettype" : [ "FullPacket" ],
									"patching_rect" : [ 50.0, 216.0, 37.0, 22.0 ],
									"style" : "",
									"text" : "o.var"
								}

							}
, 							{
								"box" : 								{
									"id" : "obj-37",
									"maxclass" : "newobj",
									"numinlets" : 2,
									"numoutlets" : 2,
									"outlettype" : [ "", "" ],
									"patching_rect" : [ 50.0, 180.0, 57.0, 22.0 ],
									"style" : "",
									"text" : "zl.join"
								}

							}
, 							{
								"box" : 								{
									"id" : "obj-34",
									"linecount" : 2,
									"maxclass" : "newobj",
									"numinlets" : 3,
									"numoutlets" : 1,
									"outlettype" : [ "" ],
									"patching_rect" : [ 50.0, 135.5, 100.0, 35.0 ],
									"style" : "",
									"text" : "sprintf /%s/%s/%s"
								}

							}
, 							{
								"box" : 								{
									"id" : "obj-23",
									"maxclass" : "newobj",
									"numinlets" : 2,
									"numoutlets" : 2,
									"outlettype" : [ "", "" ],
									"patching_rect" : [ 50.0, 100.0, 57.0, 22.0 ],
									"style" : "",
									"text" : "zl.slice 3"
								}

							}
, 							{
								"box" : 								{
									"comment" : "",
									"id" : "obj-45",
									"maxclass" : "inlet",
									"numinlets" : 0,
									"numoutlets" : 1,
									"outlettype" : [ "" ],
									"patching_rect" : [ 50.0, 40.0, 30.0, 30.0 ],
									"style" : ""
								}

							}
, 							{
								"box" : 								{
									"comment" : "",
									"id" : "obj-46",
									"maxclass" : "outlet",
									"numinlets" : 1,
									"numoutlets" : 0,
									"patching_rect" : [ 50.0, 262.0, 30.0, 30.0 ],
									"style" : ""
								}

							}
 ],
						"lines" : [ 							{
								"patchline" : 								{
									"destination" : [ "obj-34", 0 ],
									"disabled" : 0,
									"hidden" : 0,
									"source" : [ "obj-23", 0 ]
								}

							}
, 							{
								"patchline" : 								{
									"destination" : [ "obj-37", 1 ],
									"disabled" : 0,
									"hidden" : 0,
									"source" : [ "obj-23", 1 ]
								}

							}
, 							{
								"patchline" : 								{
									"destination" : [ "obj-37", 0 ],
									"disabled" : 0,
									"hidden" : 0,
									"source" : [ "obj-34", 0 ]
								}

							}
, 							{
								"patchline" : 								{
									"destination" : [ "obj-38", 0 ],
									"disabled" : 0,
									"hidden" : 0,
									"source" : [ "obj-37", 0 ]
								}

							}
, 							{
								"patchline" : 								{
									"destination" : [ "obj-46", 0 ],
									"disabled" : 0,
									"hidden" : 0,
									"source" : [ "obj-38", 0 ]
								}

							}
, 							{
								"patchline" : 								{
									"destination" : [ "obj-23", 0 ],
									"disabled" : 0,
									"hidden" : 0,
									"source" : [ "obj-45", 0 ]
								}

							}
 ]
					}
,
					"patching_rect" : [ 56.0, 214.0, 53.0, 22.0 ],
					"saved_object_attributes" : 					{
						"description" : "",
						"digest" : "",
						"globalpatchername" : "",
						"style" : "",
						"tags" : ""
					}
,
					"style" : "",
					"text" : "p to-osc"
				}

			}
, 			{
				"box" : 				{
					"id" : "obj-11",
					"maxclass" : "newobj",
					"numinlets" : 1,
					"numoutlets" : 1,
					"outlettype" : [ "FullPacket" ],
					"patcher" : 					{
						"fileversion" : 1,
						"appversion" : 						{
							"major" : 7,
							"minor" : 0,
							"revision" : 6,
							"architecture" : "x64",
							"modernui" : 1
						}
,
						"rect" : [ 143.0, 45.0, 1229.0, 851.0 ],
						"bglocked" : 0,
						"openinpresentation" : 0,
						"default_fontsize" : 12.0,
						"default_fontface" : 0,
						"default_fontname" : "Arial",
						"gridonopen" : 1,
						"gridsize" : [ 15.0, 15.0 ],
						"gridsnaponopen" : 1,
						"objectsnaponopen" : 1,
						"statusbarvisible" : 2,
						"toolbarvisible" : 1,
						"lefttoolbarpinned" : 0,
						"toptoolbarpinned" : 0,
						"righttoolbarpinned" : 0,
						"bottomtoolbarpinned" : 0,
						"toolbars_unpinned_last_save" : 15,
						"tallnewobj" : 0,
						"boxanimatetime" : 200,
						"enablehscroll" : 1,
						"enablevscroll" : 1,
						"devicewidth" : 0.0,
						"description" : "",
						"digest" : "",
						"tags" : "",
						"style" : "",
						"subpatcher_template" : "no-menus",
						"boxes" : [ 							{
								"box" : 								{
									"id" : "obj-26",
									"maxclass" : "comment",
									"numinlets" : 1,
									"numoutlets" : 0,
									"patching_rect" : [ 564.0, 205.0, 150.0, 20.0 ],
									"style" : "",
									"text" : "2.9239766082 ms / meter"
								}

							}
, 							{
								"box" : 								{
									"fontface" : 0,
									"fontsize" : 12.0,
									"id" : "obj-25",
									"linecount" : 12,
									"maxclass" : "o.expr.codebox",
									"numinlets" : 1,
									"numoutlets" : 2,
									"outlettype" : [ "FullPacket", "FullPacket" ],
									"patching_rect" : [ 271.0, 633.0, 813.0, 182.0 ],
									"text" : "map(\n  lambda(a,\n    if( bound(a+\"/aed\"),\n      progn(\n        /id = int32(split(\"/\", a)),\n        /aed = value(a+\"/aed\"), \n        assign(\"/hoa_map\"+a, [\"source\", /id, \"pol\", /aed[[2]], -degtorad() * /aed[[0]], degtorad() * /aed[[1]] ])\n      )\n    )\n  ), /addrs\n)",
									"textcolor" : [ 0.0, 0.0, 0.0, 1.0 ]
								}

							}
, 							{
								"box" : 								{
									"fontface" : 0,
									"fontsize" : 12.0,
									"id" : "obj-24",
									"linecount" : 24,
									"maxclass" : "o.expr.codebox",
									"numinlets" : 1,
									"numoutlets" : 2,
									"outlettype" : [ "FullPacket", "FullPacket" ],
									"patching_rect" : [ 104.0, 235.0, 711.0, 345.0 ],
									"text" : "/interpolation ??= 100, \n/curve ??= 0.,\n\nmap(\n  lambda(a,\n    if( bound(a+\"/aed\"),\n      progn(\n        /id = int32(split(\"/\", a)),\n        /aed = value(a+\"/aed\"),\n        /dist = (/aed[[2]] < 1.) ? 1. : /aed[[2]],\n        assign(a+\"/amp\", [1.0 / /dist, /interpolation, /curve] ),\n        assign(a+\"/delay\", /dist * 2.9239766082 ), # ms per meter\n        # hoalib format\n        /az = -degtorad() * /aed[[0]],\n        /el = degtorad() * /aed[[1]],\n        assign(a+\"/pol\", [ /aed[[2]], /az, /el ]),\n        assign(a+\"/az\", [/az, /interpolation, /curve] ),\n        assign(a+\"/el\", [/el, /interpolation, /curve] )\n      )\n    )\n  ), /addrs\n),\ndelete(/id), delete(/aed), delete(/dist), delete(/addrs), delete(/az), delete(/el), delete(/interpolation), delete(/curve)",
									"textcolor" : [ 0.0, 0.0, 0.0, 1.0 ]
								}

							}
, 							{
								"box" : 								{
									"comment" : "",
									"id" : "obj-23",
									"maxclass" : "outlet",
									"numinlets" : 1,
									"numoutlets" : 0,
									"patching_rect" : [ 104.0, 630.0, 30.0, 30.0 ],
									"style" : ""
								}

							}
, 							{
								"box" : 								{
									"id" : "obj-20",
									"maxclass" : "newobj",
									"numinlets" : 1,
									"numoutlets" : 1,
									"outlettype" : [ "FullPacket" ],
									"patching_rect" : [ 104.0, 203.0, 63.0, 22.0 ],
									"style" : "",
									"text" : "o.flatten"
								}

							}
, 							{
								"box" : 								{
									"id" : "obj-21",
									"maxclass" : "newobj",
									"numinlets" : 1,
									"numoutlets" : 1,
									"outlettype" : [ "FullPacket" ],
									"patching_rect" : [ 104.0, 136.0, 63.0, 22.0 ],
									"style" : "",
									"text" : "o.explode"
								}

							}
, 							{
								"box" : 								{
									"fontface" : 0,
									"fontsize" : 12.0,
									"id" : "obj-22",
									"maxclass" : "o.expr.codebox",
									"numinlets" : 1,
									"numoutlets" : 2,
									"outlettype" : [ "FullPacket", "FullPacket" ],
									"patching_rect" : [ 104.0, 164.0, 178.0, 32.0 ],
									"text" : "/addrs = getaddresses()",
									"textcolor" : [ 0.0, 0.0, 0.0, 1.0 ]
								}

							}
, 							{
								"box" : 								{
									"comment" : "",
									"id" : "obj-17",
									"maxclass" : "inlet",
									"numinlets" : 0,
									"numoutlets" : 1,
									"outlettype" : [ "FullPacket" ],
									"patching_rect" : [ 104.0, 26.0, 30.0, 30.0 ],
									"style" : ""
								}

							}
, 							{
								"box" : 								{
									"id" : "obj-9",
									"maxclass" : "comment",
									"numinlets" : 1,
									"numoutlets" : 0,
									"patching_rect" : [ 629.0, 70.0, 150.0, 20.0 ],
									"style" : "",
									"text" : "calc delay and gain"
								}

							}
, 							{
								"box" : 								{
									"id" : "obj-6",
									"maxclass" : "newobj",
									"numinlets" : 1,
									"numoutlets" : 1,
									"outlettype" : [ "FullPacket" ],
									"patching_rect" : [ 104.0, 597.0, 107.0, 22.0 ],
									"style" : "",
									"text" : "o.prepend /source"
								}

							}
, 							{
								"box" : 								{
									"id" : "obj-2",
									"maxclass" : "newobj",
									"numinlets" : 1,
									"numoutlets" : 2,
									"outlettype" : [ "", "FullPacket" ],
									"patching_rect" : [ 104.0, 85.0, 91.0, 22.0 ],
									"style" : "",
									"text" : "o.route /source"
								}

							}
, 							{
								"box" : 								{
									"fontface" : 0,
									"fontsize" : 12.0,
									"id" : "obj-1",
									"linecount" : 2,
									"maxclass" : "o.compose",
									"numinlets" : 2,
									"numoutlets" : 1,
									"outlettype" : [ "" ],
									"patching_rect" : [ 271.0, 11.0, 224.0, 38.0 ],
									"saved_bundle_data" : [ 35, 98, 117, 110, 100, 108, 101, 0, 0, 0, 0, 0, 0, 0, 0, 0, 0, 0, 0, 48, 47, 115, 111, 117, 114, 99, 101, 47, 49, 47, 97, 101, 100, 0, 0, 0, 44, 100, 100, 100, 0, 0, 0, 0, 64, 102, -128, 0, 0, 0, 0, 0, 0, 0, 0, 0, 0, 0, 0, 0, 63, -16, 0, 0, 0, 0, 0, 0 ],
									"saved_bundle_length" : 68,
									"text" : "/source/1/aed : [180., 0., 1.]",
									"textcolor" : [ 0.188, 0.188, 0.188, 1.0 ]
								}

							}
 ],
						"lines" : [ 							{
								"patchline" : 								{
									"destination" : [ "obj-2", 0 ],
									"disabled" : 0,
									"hidden" : 0,
									"source" : [ "obj-1", 0 ]
								}

							}
, 							{
								"patchline" : 								{
									"destination" : [ "obj-2", 0 ],
									"disabled" : 0,
									"hidden" : 0,
									"source" : [ "obj-17", 0 ]
								}

							}
, 							{
								"patchline" : 								{
									"destination" : [ "obj-21", 0 ],
									"disabled" : 0,
									"hidden" : 0,
									"source" : [ "obj-2", 0 ]
								}

							}
, 							{
								"patchline" : 								{
									"destination" : [ "obj-24", 0 ],
									"disabled" : 0,
									"hidden" : 0,
									"source" : [ "obj-20", 0 ]
								}

							}
, 							{
								"patchline" : 								{
									"destination" : [ "obj-22", 0 ],
									"disabled" : 0,
									"hidden" : 0,
									"source" : [ "obj-21", 0 ]
								}

							}
, 							{
								"patchline" : 								{
									"destination" : [ "obj-20", 0 ],
									"disabled" : 0,
									"hidden" : 0,
									"source" : [ "obj-22", 0 ]
								}

							}
, 							{
								"patchline" : 								{
									"destination" : [ "obj-6", 0 ],
									"disabled" : 0,
									"hidden" : 0,
									"source" : [ "obj-24", 0 ]
								}

							}
, 							{
								"patchline" : 								{
									"destination" : [ "obj-23", 0 ],
									"disabled" : 0,
									"hidden" : 0,
									"source" : [ "obj-6", 0 ]
								}

							}
 ]
					}
,
					"patching_rect" : [ 56.0, 246.0, 82.0, 22.0 ],
					"saved_object_attributes" : 					{
						"description" : "",
						"digest" : "",
						"globalpatchername" : "",
						"style" : "",
						"tags" : ""
					}
,
					"style" : "",
					"text" : "p source-calc"
				}

			}
, 			{
				"box" : 				{
					"fontface" : 0,
					"fontsize" : 12.0,
					"id" : "obj-13",
					"maxclass" : "o.compose",
					"numinlets" : 2,
					"numoutlets" : 1,
					"outlettype" : [ "" ],
					"patching_rect" : [ 1209.5, 421.0, 123.0, 24.0 ],
					"saved_bundle_data" : [ 35, 98, 117, 110, 100, 108, 101, 0, 0, 0, 0, 0, 0, 0, 0, 0, 0, 0, 0, 20, 47, 105, 110, 105, 116, 0, 0, 0, 44, 115, 0, 0, 98, 97, 110, 103, 0, 0, 0, 0 ],
					"saved_bundle_length" : 40,
					"text" : "/init : \"bang\"",
					"textcolor" : [ 0.188, 0.188, 0.188, 1.0 ]
				}

			}
, 			{
				"box" : 				{
					"id" : "obj-6",
					"maxclass" : "newobj",
					"numinlets" : 1,
					"numoutlets" : 2,
					"outlettype" : [ "", "FullPacket" ],
					"patching_rect" : [ 1030.0, 102.0, 119.0, 22.0 ],
					"style" : "",
					"text" : "o.route /dsp"
				}

			}
, 			{
				"box" : 				{
					"id" : "obj-2",
					"maxclass" : "newobj",
					"numinlets" : 1,
					"numoutlets" : 2,
					"outlettype" : [ "", "FullPacket" ],
					"patching_rect" : [ 1030.0, 73.0, 88.0, 22.0 ],
					"style" : "",
					"text" : "o.route /server"
				}

			}
, 			{
				"box" : 				{
					"fontname" : "Arial Italic",
					"id" : "obj-35",
					"linecount" : 2,
					"maxclass" : "comment",
					"numinlets" : 1,
					"numoutlets" : 0,
					"patching_rect" : [ 1030.0, 697.5, 381.0, 33.0 ],
					"style" : "",
					"text" : "n.b.: envelop server ip will be listed somewhere in the documentation, and probably on a piece of paper by the computer..."
				}

			}
, 			{
				"box" : 				{
					"id" : "obj-9",
					"maxclass" : "comment",
					"numinlets" : 1,
					"numoutlets" : 0,
					"patching_rect" : [ 789.0, 490.5, 57.0, 20.0 ],
					"style" : "",
					"text" : "to server"
				}

			}
, 			{
				"box" : 				{
					"id" : "obj-7",
					"maxclass" : "newobj",
					"numinlets" : 1,
					"numoutlets" : 0,
					"patching_rect" : [ 759.0, 461.5, 137.0, 22.0 ],
					"style" : "",
					"text" : "udpsend localhost 4444"
				}

			}
, 			{
				"box" : 				{
					"id" : "obj-4",
					"maxclass" : "comment",
					"numinlets" : 1,
					"numoutlets" : 0,
					"patching_rect" : [ 1050.0, 16.0, 77.0, 20.0 ],
					"style" : "",
					"text" : "from server"
				}

			}
, 			{
				"box" : 				{
					"id" : "obj-5",
					"maxclass" : "newobj",
					"numinlets" : 1,
					"numoutlets" : 1,
					"outlettype" : [ "" ],
					"patching_rect" : [ 1030.0, 43.0, 135.0, 22.0 ],
					"style" : "",
					"text" : "udpreceive 5555 cnmat"
				}

			}
, 			{
				"box" : 				{
					"id" : "obj-3",
					"maxclass" : "comment",
					"numinlets" : 1,
					"numoutlets" : 0,
					"patching_rect" : [ 535.0, 21.0, 77.0, 20.0 ],
					"style" : "",
					"text" : "from ableton"
				}

			}
, 			{
				"box" : 				{
					"id" : "obj-1",
					"maxclass" : "newobj",
					"numinlets" : 1,
					"numoutlets" : 1,
					"outlettype" : [ "" ],
					"patching_rect" : [ 485.0, 43.0, 135.0, 22.0 ],
					"style" : "",
					"text" : "udpreceive 3333 cnmat"
				}

			}
, 			{
				"box" : 				{
					"id" : "obj-53",
					"linecount" : 2,
					"maxclass" : "message",
					"numinlets" : 2,
					"numoutlets" : 1,
					"outlettype" : [ "" ],
					"patching_rect" : [ 382.0, 444.5, 109.0, 35.0 ],
					"style" : "",
					"text" : "mapname envelop, view 1"
				}

			}
, 			{
				"box" : 				{
					"bgcolor" : [ 0.19771, 0.188048, 0.201856, 1.0 ],
					"color" : [ 1.0, 1.0, 1.0, 1.0 ],
					"fontface" : 0,
					"fontname" : "Arial",
					"fontsize" : 8.0,
					"id" : "obj-54",
					"map_saved_state" : [ "_source_preset_data_", "source", 1, 1, 0.887731, 0.439041, 0.138479, 0, 1.0, 1.0, 1.0, 1.0, "", "source", 2, 1, -0.707107, 0.707107, 0.0, 0, 1.0, 1.0, 1.0, 1.0, "", "source", 3, 1, -0.92388, 0.382683, 0.0, 0, 1.0, 1.0, 1.0, 1.0, "", "source", 4, 1, -1.0, 0.0, 0.0, 0, 1.0, 1.0, 1.0, 1.0, "", "source", 5, 1, -0.92388, -0.382683, 0.0, 0, 1.0, 1.0, 1.0, 1.0, "", "source", 6, 1, -0.707107, -0.707107, 0.0, 0, 1.0, 1.0, 1.0, 1.0, "", "source", 7, 1, -0.382683, -0.92388, 0.0, 0, 1.0, 1.0, 1.0, 1.0, "", "source", 8, 1, -0.0, -1.0, 0.0, 0, 1.0, 1.0, 1.0, 1.0, "", "source", 9, 1, 0.382683, -0.92388, 0.0, 0, 1.0, 1.0, 1.0, 1.0, "", "source", 10, 1, 0.707107, -0.707107, 0.0, 0, 1.0, 1.0, 1.0, 1.0, "", "source", 11, 1, 0.923879, -0.382684, 0.0, 0, 1.0, 1.0, 1.0, 1.0, "", "source", 12, 1, 1.0, -0.0, 0.0, 0, 1.0, 1.0, 1.0, 1.0, "", "source", 13, 1, 0.923879, 0.382684, 0.0, 0, 1.0, 1.0, 1.0, 1.0, "", "source", 14, 1, 0.707107, 0.707107, 0.0, 0, 1.0, 1.0, 1.0, 1.0, "", "source", 15, 1, 0.382683, 0.92388, 0.0, 0, 1.0, 1.0, 1.0, 1.0, "", "source", 16, 1, 0.0, 1.0, 0.0, 0, 1.0, 1.0, 1.0, 1.0, "", "source", 17, 0, 0.0, 0.0, 0.0, 0, 0.0, 0.0, 0.0, 1.0, "", "source", 18, 0, 0.0, 0.0, 0.0, 0, 0.0, 0.0, 0.0, 1.0, "", "source", 19, 0, 0.0, 0.0, 0.0, 0, 0.0, 0.0, 0.0, 1.0, "", "source", 20, 0, 0.0, 0.0, 0.0, 0, 0.0, 0.0, 0.0, 1.0, "", "source", 21, 0, 0.0, 0.0, 0.0, 0, 0.0, 0.0, 0.0, 1.0, "", "source", 22, 0, 0.0, 0.0, 0.0, 0, 0.0, 0.0, 0.0, 1.0, "", "source", 23, 0, 0.0, 0.0, 0.0, 0, 0.0, 0.0, 0.0, 1.0, "", "source", 24, 0, 0.0, 0.0, 0.0, 0, 0.0, 0.0, 0.0, 1.0, "", "source", 25, 0, 0.0, 0.0, 0.0, 0, 0.0, 0.0, 0.0, 1.0, "", "source", 26, 0, 0.0, 0.0, 0.0, 0, 0.0, 0.0, 0.0, 1.0, "", "source", 27, 0, 0.0, 0.0, 0.0, 0, 0.0, 0.0, 0.0, 1.0, "", "source", 28, 0, 0.0, 0.0, 0.0, 0, 0.0, 0.0, 0.0, 1.0, "", "source", 29, 0, 0.0, 0.0, 0.0, 0, 0.0, 0.0, 0.0, 1.0, "", "source", 30, 0, 0.0, 0.0, 0.0, 0, 0.0, 0.0, 0.0, 1.0, "", "source", 31, 0, 0.0, 0.0, 0.0, 0, 0.0, 0.0, 0.0, 1.0, "", "source", 32, 0, 0.0, 0.0, 0.0, 0, 0.0, 0.0, 0.0, 1.0, "", "source", 33, 0, 0.0, 0.0, 0.0, 0, 0.0, 0.0, 0.0, 1.0, "", "source", 34, 0, 0.0, 0.0, 0.0, 0, 0.0, 0.0, 0.0, 1.0, "", "source", 35, 0, 0.0, 0.0, 0.0, 0, 0.0, 0.0, 0.0, 1.0, "", "source", 36, 0, 0.0, 0.0, 0.0, 0, 0.0, 0.0, 0.0, 1.0, "", "source", 37, 0, 0.0, 0.0, 0.0, 0, 0.0, 0.0, 0.0, 1.0, "", "source", 38, 0, 0.0, 0.0, 0.0, 0, 0.0, 0.0, 0.0, 1.0, "", "source", 39, 0, 0.0, 0.0, 0.0, 0, 0.0, 0.0, 0.0, 1.0, "", "source", 40, 0, 0.0, 0.0, 0.0, 0, 0.0, 0.0, 0.0, 1.0, "", "source", 41, 0, 0.0, 0.0, 0.0, 0, 0.0, 0.0, 0.0, 1.0, "", "source", 42, 0, 0.0, 0.0, 0.0, 0, 0.0, 0.0, 0.0, 1.0, "", "source", 43, 0, 0.0, 0.0, 0.0, 0, 0.0, 0.0, 0.0, 1.0, "", "source", 44, 0, 0.0, 0.0, 0.0, 0, 0.0, 0.0, 0.0, 1.0, "", "source", 45, 0, 0.0, 0.0, 0.0, 0, 0.0, 0.0, 0.0, 1.0, "", "source", 46, 0, 0.0, 0.0, 0.0, 0, 0.0, 0.0, 0.0, 1.0, "", "source", 47, 0, 0.0, 0.0, 0.0, 0, 0.0, 0.0, 0.0, 1.0, "", "source", 48, 0, 0.0, 0.0, 0.0, 0, 0.0, 0.0, 0.0, 1.0, "", "source", 49, 0, 0.0, 0.0, 0.0, 0, 0.0, 0.0, 0.0, 1.0, "", "source", 50, 0, 0.0, 0.0, 0.0, 0, 0.0, 0.0, 0.0, 1.0, "", "source", 51, 0, 0.0, 0.0, 0.0, 0, 0.0, 0.0, 0.0, 1.0, "", "source", 52, 0, 0.0, 0.0, 0.0, 0, 0.0, 0.0, 0.0, 1.0, "", "source", 53, 0, 0.0, 0.0, 0.0, 0, 0.0, 0.0, 0.0, 1.0, "", "source", 54, 0, 0.0, 0.0, 0.0, 0, 0.0, 0.0, 0.0, 1.0, "", "source", 55, 0, 0.0, 0.0, 0.0, 0, 0.0, 0.0, 0.0, 1.0, "", "source", 56, 0, 0.0, 0.0, 0.0, 0, 0.0, 0.0, 0.0, 1.0, "", "source", 57, 0, 0.0, 0.0, 0.0, 0, 0.0, 0.0, 0.0, 1.0, "", "source", 58, 0, 0.0, 0.0, 0.0, 0, 0.0, 0.0, 0.0, 1.0, "", "source", 59, 0, 0.0, 0.0, 0.0, 0, 0.0, 0.0, 0.0, 1.0, "", "source", 60, 0, 0.0, 0.0, 0.0, 0, 0.0, 0.0, 0.0, 1.0, "", "source", 61, 0, 0.0, 0.0, 0.0, 0, 0.0, 0.0, 0.0, 1.0, "", "source", 62, 0, 0.0, 0.0, 0.0, 0, 0.0, 0.0, 0.0, 1.0, "", "source", 63, 0, 0.0, 0.0, 0.0, 0, 0.0, 0.0, 0.0, 1.0, "", "source", 64, 0, 0.0, 0.0, 0.0, 0, 0.0, 0.0, 0.0, 1.0, "", "_group_preset_data_", "group", 1, 0, "", 0.0, 0.0, 0.0, 0.0, "", "group", 2, 0, "", 0.0, 0.0, 0.0, 0.0, "", "group", 3, 0, "", 0.0, 0.0, 0.0, 0.0, "", "group", 4, 0, "", 0.0, 0.0, 0.0, 0.0, "", "group", 5, 0, "", 0.0, 0.0, 0.0, 0.0, "", "group", 6, 0, "", 0.0, 0.0, 0.0, 0.0, "", "group", 7, 0, "", 0.0, 0.0, 0.0, 0.0, "", "group", 8, 0, "", 0.0, 0.0, 0.0, 0.0, "", "group", 9, 0, "", 0.0, 0.0, 0.0, 0.0, "", "group", 10, 0, "", 0.0, 0.0, 0.0, 0.0, "", "group", 11, 0, "", 0.0, 0.0, 0.0, 0.0, "", "group", 12, 0, "", 0.0, 0.0, 0.0, 0.0, "", "group", 13, 0, "", 0.0, 0.0, 0.0, 0.0, "", "group", 14, 0, "", 0.0, 0.0, 0.0, 0.0, "", "group", 15, 0, "", 0.0, 0.0, 0.0, 0.0, "", "group", 16, 0, "", 0.0, 0.0, 0.0, 0.0, "", "group", 17, 0, "", 0.0, 0.0, 0.0, 0.0, "", "group", 18, 0, "", 0.0, 0.0, 0.0, 0.0, "", "group", 19, 0, "", 0.0, 0.0, 0.0, 0.0, "", "group", 20, 0, "", 0.0, 0.0, 0.0, 0.0, "", "group", 21, 0, "", 0.0, 0.0, 0.0, 0.0, "", "group", 22, 0, "", 0.0, 0.0, 0.0, 0.0, "", "group", 23, 0, "", 0.0, 0.0, 0.0, 0.0, "", "group", 24, 0, "", 0.0, 0.0, 0.0, 0.0, "", "group", 25, 0, "", 0.0, 0.0, 0.0, 0.0, "", "group", 26, 0, "", 0.0, 0.0, 0.0, 0.0, "", "group", 27, 0, "", 0.0, 0.0, 0.0, 0.0, "", "group", 28, 0, "", 0.0, 0.0, 0.0, 0.0, "", "group", 29, 0, "", 0.0, 0.0, 0.0, 0.0, "", "group", 30, 0, "", 0.0, 0.0, 0.0, 0.0, "", "group", 31, 0, "", 0.0, 0.0, 0.0, 0.0, "", "group", 32, 0, "", 0.0, 0.0, 0.0, 0.0, "", "group", 33, 0, "", 0.0, 0.0, 0.0, 0.0, "", "group", 34, 0, "", 0.0, 0.0, 0.0, 0.0, "", "group", 35, 0, "", 0.0, 0.0, 0.0, 0.0, "", "group", 36, 0, "", 0.0, 0.0, 0.0, 0.0, "", "group", 37, 0, "", 0.0, 0.0, 0.0, 0.0, "", "group", 38, 0, "", 0.0, 0.0, 0.0, 0.0, "", "group", 39, 0, "", 0.0, 0.0, 0.0, 0.0, "", "group", 40, 0, "", 0.0, 0.0, 0.0, 0.0, "", "group", 41, 0, "", 0.0, 0.0, 0.0, 0.0, "", "group", 42, 0, "", 0.0, 0.0, 0.0, 0.0, "", "group", 43, 0, "", 0.0, 0.0, 0.0, 0.0, "", "group", 44, 0, "", 0.0, 0.0, 0.0, 0.0, "", "group", 45, 0, "", 0.0, 0.0, 0.0, 0.0, "", "group", 46, 0, "", 0.0, 0.0, 0.0, 0.0, "", "group", 47, 0, "", 0.0, 0.0, 0.0, 0.0, "", "group", 48, 0, "", 0.0, 0.0, 0.0, 0.0, "", "group", 49, 0, "", 0.0, 0.0, 0.0, 0.0, "", "group", 50, 0, "", 0.0, 0.0, 0.0, 0.0, "", "group", 51, 0, "", 0.0, 0.0, 0.0, 0.0, "", "group", 52, 0, "", 0.0, 0.0, 0.0, 0.0, "", "group", 53, 0, "", 0.0, 0.0, 0.0, 0.0, "", "group", 54, 0, "", 0.0, 0.0, 0.0, 0.0, "", "group", 55, 0, "", 0.0, 0.0, 0.0, 0.0, "", "group", 56, 0, "", 0.0, 0.0, 0.0, 0.0, "", "group", 57, 0, "", 0.0, 0.0, 0.0, 0.0, "", "group", 58, 0, "", 0.0, 0.0, 0.0, 0.0, "", "group", 59, 0, "", 0.0, 0.0, 0.0, 0.0, "", "group", 60, 0, "", 0.0, 0.0, 0.0, 0.0, "", "group", 61, 0, "", 0.0, 0.0, 0.0, 0.0, "", "group", 62, 0, "", 0.0, 0.0, 0.0, 0.0, "", "group", 63, 0, "", 0.0, 0.0, 0.0, 0.0, "", "group", 64, 0, "", 0.0, 0.0, 0.0, 0.0, "" ],
					"mapname" : "envelop",
					"maxclass" : "hoa.map",
					"numinlets" : 1,
					"numoutlets" : 3,
					"outlettype" : [ "list", "list", "list" ],
					"parameter_enable" : 0,
					"patching_rect" : [ 382.0, 496.0, 314.0, 314.0 ],
					"selcolor" : [ 1.0, 1.0, 1.0, 0.501961 ],
					"view" : 1,
					"zoom" : 0.13
				}

			}
, 			{
				"box" : 				{
					"id" : "obj-55",
					"maxclass" : "message",
					"numinlets" : 2,
					"numoutlets" : 1,
					"outlettype" : [ "" ],
					"patching_rect" : [ 113.0, 461.5, 109.0, 22.0 ],
					"style" : "",
					"text" : "mapname envelop"
				}

			}
, 			{
				"box" : 				{
					"id" : "obj-31",
					"maxclass" : "button",
					"numinlets" : 1,
					"numoutlets" : 1,
					"outlettype" : [ "bang" ],
					"patching_rect" : [ 267.0, 426.5, 24.0, 24.0 ],
					"style" : ""
				}

			}
, 			{
				"box" : 				{
					"id" : "obj-29",
					"maxclass" : "newobj",
					"numinlets" : 1,
					"numoutlets" : 1,
					"outlettype" : [ "" ],
					"patcher" : 					{
						"fileversion" : 1,
						"appversion" : 						{
							"major" : 7,
							"minor" : 0,
							"revision" : 6,
							"architecture" : "x64",
							"modernui" : 1
						}
,
						"rect" : [ 701.0, 58.0, 659.0, 325.0 ],
						"bglocked" : 0,
						"openinpresentation" : 0,
						"default_fontsize" : 12.0,
						"default_fontface" : 0,
						"default_fontname" : "Arial",
						"gridonopen" : 1,
						"gridsize" : [ 15.0, 15.0 ],
						"gridsnaponopen" : 1,
						"objectsnaponopen" : 1,
						"statusbarvisible" : 2,
						"toolbarvisible" : 1,
						"lefttoolbarpinned" : 0,
						"toptoolbarpinned" : 0,
						"righttoolbarpinned" : 0,
						"bottomtoolbarpinned" : 0,
						"toolbars_unpinned_last_save" : 15,
						"tallnewobj" : 0,
						"boxanimatetime" : 200,
						"enablehscroll" : 1,
						"enablevscroll" : 1,
						"devicewidth" : 0.0,
						"description" : "",
						"digest" : "",
						"tags" : "",
						"style" : "",
						"subpatcher_template" : "no-menus",
						"boxes" : [ 							{
								"box" : 								{
									"id" : "obj-4",
									"maxclass" : "newobj",
									"numinlets" : 1,
									"numoutlets" : 2,
									"outlettype" : [ "", "FullPacket" ],
									"patching_rect" : [ 50.0, 216.0, 67.0, 22.0 ],
									"style" : "",
									"text" : "o.route /*/*"
								}

							}
, 							{
								"box" : 								{
									"comment" : "",
									"id" : "obj-3",
									"maxclass" : "outlet",
									"numinlets" : 1,
									"numoutlets" : 0,
									"patching_rect" : [ 50.0, 254.0, 30.0, 30.0 ],
									"style" : ""
								}

							}
, 							{
								"box" : 								{
									"comment" : "",
									"id" : "obj-2",
									"maxclass" : "inlet",
									"numinlets" : 0,
									"numoutlets" : 1,
									"outlettype" : [ "bang" ],
									"patching_rect" : [ 50.0, 27.0, 30.0, 30.0 ],
									"style" : ""
								}

							}
, 							{
								"box" : 								{
									"fontface" : 0,
									"fontsize" : 12.0,
									"id" : "obj-28",
									"linecount" : 6,
									"maxclass" : "o.expr.codebox",
									"numinlets" : 1,
									"numoutlets" : 2,
									"outlettype" : [ "FullPacket", "FullPacket" ],
									"patching_rect" : [ 50.0, 100.0, 568.0, 100.0 ],
									"text" : "map(\n  lambda(i,\n    assign(\"/\"+i+\"/pol\", [\"source\", i, \"pol\", 1, (i / 16.) * twopi(), 0.] ),\n    assign(\"/\"+i+\"/color\", [\"source\", i, \"color\", 1., 1., 1., 1. ] ) \n  ), aseq(1, 16)\n)",
									"textcolor" : [ 0.0, 0.0, 0.0, 1.0 ]
								}

							}
 ],
						"lines" : [ 							{
								"patchline" : 								{
									"destination" : [ "obj-28", 0 ],
									"disabled" : 0,
									"hidden" : 0,
									"source" : [ "obj-2", 0 ]
								}

							}
, 							{
								"patchline" : 								{
									"destination" : [ "obj-4", 0 ],
									"disabled" : 0,
									"hidden" : 0,
									"source" : [ "obj-28", 0 ]
								}

							}
, 							{
								"patchline" : 								{
									"destination" : [ "obj-3", 0 ],
									"disabled" : 0,
									"hidden" : 0,
									"source" : [ "obj-4", 0 ]
								}

							}
 ]
					}
,
					"patching_rect" : [ 267.0, 461.5, 36.0, 22.0 ],
					"saved_object_attributes" : 					{
						"description" : "",
						"digest" : "",
						"globalpatchername" : "",
						"style" : "",
						"tags" : ""
					}
,
					"style" : "",
					"text" : "p init"
				}

			}
, 			{
				"box" : 				{
					"bgcolor" : [ 0.19771, 0.188048, 0.201856, 1.0 ],
					"color" : [ 1.0, 1.0, 1.0, 1.0 ],
					"fontface" : 0,
					"fontname" : "Arial",
					"fontsize" : 8.0,
					"id" : "obj-21",
					"map_saved_state" : [ "_source_preset_data_", "source", 1, 1, 0.887731, 0.439041, 0.138479, 0, 1.0, 1.0, 1.0, 1.0, "", "source", 2, 1, -0.707107, 0.707107, 0.0, 0, 1.0, 1.0, 1.0, 1.0, "", "source", 3, 1, -0.92388, 0.382683, 0.0, 0, 1.0, 1.0, 1.0, 1.0, "", "source", 4, 1, -1.0, 0.0, 0.0, 0, 1.0, 1.0, 1.0, 1.0, "", "source", 5, 1, -0.92388, -0.382683, 0.0, 0, 1.0, 1.0, 1.0, 1.0, "", "source", 6, 1, -0.707107, -0.707107, 0.0, 0, 1.0, 1.0, 1.0, 1.0, "", "source", 7, 1, -0.382683, -0.92388, 0.0, 0, 1.0, 1.0, 1.0, 1.0, "", "source", 8, 1, -0.0, -1.0, 0.0, 0, 1.0, 1.0, 1.0, 1.0, "", "source", 9, 1, 0.382683, -0.92388, 0.0, 0, 1.0, 1.0, 1.0, 1.0, "", "source", 10, 1, 0.707107, -0.707107, 0.0, 0, 1.0, 1.0, 1.0, 1.0, "", "source", 11, 1, 0.923879, -0.382684, 0.0, 0, 1.0, 1.0, 1.0, 1.0, "", "source", 12, 1, 1.0, -0.0, 0.0, 0, 1.0, 1.0, 1.0, 1.0, "", "source", 13, 1, 0.923879, 0.382684, 0.0, 0, 1.0, 1.0, 1.0, 1.0, "", "source", 14, 1, 0.707107, 0.707107, 0.0, 0, 1.0, 1.0, 1.0, 1.0, "", "source", 15, 1, 0.382683, 0.92388, 0.0, 0, 1.0, 1.0, 1.0, 1.0, "", "source", 16, 1, 0.0, 1.0, 0.0, 0, 1.0, 1.0, 1.0, 1.0, "", "source", 17, 0, 0.0, 0.0, 0.0, 0, 0.0, 0.0, 0.0, 1.0, "", "source", 18, 0, 0.0, 0.0, 0.0, 0, 0.0, 0.0, 0.0, 1.0, "", "source", 19, 0, 0.0, 0.0, 0.0, 0, 0.0, 0.0, 0.0, 1.0, "", "source", 20, 0, 0.0, 0.0, 0.0, 0, 0.0, 0.0, 0.0, 1.0, "", "source", 21, 0, 0.0, 0.0, 0.0, 0, 0.0, 0.0, 0.0, 1.0, "", "source", 22, 0, 0.0, 0.0, 0.0, 0, 0.0, 0.0, 0.0, 1.0, "", "source", 23, 0, 0.0, 0.0, 0.0, 0, 0.0, 0.0, 0.0, 1.0, "", "source", 24, 0, 0.0, 0.0, 0.0, 0, 0.0, 0.0, 0.0, 1.0, "", "source", 25, 0, 0.0, 0.0, 0.0, 0, 0.0, 0.0, 0.0, 1.0, "", "source", 26, 0, 0.0, 0.0, 0.0, 0, 0.0, 0.0, 0.0, 1.0, "", "source", 27, 0, 0.0, 0.0, 0.0, 0, 0.0, 0.0, 0.0, 1.0, "", "source", 28, 0, 0.0, 0.0, 0.0, 0, 0.0, 0.0, 0.0, 1.0, "", "source", 29, 0, 0.0, 0.0, 0.0, 0, 0.0, 0.0, 0.0, 1.0, "", "source", 30, 0, 0.0, 0.0, 0.0, 0, 0.0, 0.0, 0.0, 1.0, "", "source", 31, 0, 0.0, 0.0, 0.0, 0, 0.0, 0.0, 0.0, 1.0, "", "source", 32, 0, 0.0, 0.0, 0.0, 0, 0.0, 0.0, 0.0, 1.0, "", "source", 33, 0, 0.0, 0.0, 0.0, 0, 0.0, 0.0, 0.0, 1.0, "", "source", 34, 0, 0.0, 0.0, 0.0, 0, 0.0, 0.0, 0.0, 1.0, "", "source", 35, 0, 0.0, 0.0, 0.0, 0, 0.0, 0.0, 0.0, 1.0, "", "source", 36, 0, 0.0, 0.0, 0.0, 0, 0.0, 0.0, 0.0, 1.0, "", "source", 37, 0, 0.0, 0.0, 0.0, 0, 0.0, 0.0, 0.0, 1.0, "", "source", 38, 0, 0.0, 0.0, 0.0, 0, 0.0, 0.0, 0.0, 1.0, "", "source", 39, 0, 0.0, 0.0, 0.0, 0, 0.0, 0.0, 0.0, 1.0, "", "source", 40, 0, 0.0, 0.0, 0.0, 0, 0.0, 0.0, 0.0, 1.0, "", "source", 41, 0, 0.0, 0.0, 0.0, 0, 0.0, 0.0, 0.0, 1.0, "", "source", 42, 0, 0.0, 0.0, 0.0, 0, 0.0, 0.0, 0.0, 1.0, "", "source", 43, 0, 0.0, 0.0, 0.0, 0, 0.0, 0.0, 0.0, 1.0, "", "source", 44, 0, 0.0, 0.0, 0.0, 0, 0.0, 0.0, 0.0, 1.0, "", "source", 45, 0, 0.0, 0.0, 0.0, 0, 0.0, 0.0, 0.0, 1.0, "", "source", 46, 0, 0.0, 0.0, 0.0, 0, 0.0, 0.0, 0.0, 1.0, "", "source", 47, 0, 0.0, 0.0, 0.0, 0, 0.0, 0.0, 0.0, 1.0, "", "source", 48, 0, 0.0, 0.0, 0.0, 0, 0.0, 0.0, 0.0, 1.0, "", "source", 49, 0, 0.0, 0.0, 0.0, 0, 0.0, 0.0, 0.0, 1.0, "", "source", 50, 0, 0.0, 0.0, 0.0, 0, 0.0, 0.0, 0.0, 1.0, "", "source", 51, 0, 0.0, 0.0, 0.0, 0, 0.0, 0.0, 0.0, 1.0, "", "source", 52, 0, 0.0, 0.0, 0.0, 0, 0.0, 0.0, 0.0, 1.0, "", "source", 53, 0, 0.0, 0.0, 0.0, 0, 0.0, 0.0, 0.0, 1.0, "", "source", 54, 0, 0.0, 0.0, 0.0, 0, 0.0, 0.0, 0.0, 1.0, "", "source", 55, 0, 0.0, 0.0, 0.0, 0, 0.0, 0.0, 0.0, 1.0, "", "source", 56, 0, 0.0, 0.0, 0.0, 0, 0.0, 0.0, 0.0, 1.0, "", "source", 57, 0, 0.0, 0.0, 0.0, 0, 0.0, 0.0, 0.0, 1.0, "", "source", 58, 0, 0.0, 0.0, 0.0, 0, 0.0, 0.0, 0.0, 1.0, "", "source", 59, 0, 0.0, 0.0, 0.0, 0, 0.0, 0.0, 0.0, 1.0, "", "source", 60, 0, 0.0, 0.0, 0.0, 0, 0.0, 0.0, 0.0, 1.0, "", "source", 61, 0, 0.0, 0.0, 0.0, 0, 0.0, 0.0, 0.0, 1.0, "", "source", 62, 0, 0.0, 0.0, 0.0, 0, 0.0, 0.0, 0.0, 1.0, "", "source", 63, 0, 0.0, 0.0, 0.0, 0, 0.0, 0.0, 0.0, 1.0, "", "source", 64, 0, 0.0, 0.0, 0.0, 0, 0.0, 0.0, 0.0, 1.0, "", "_group_preset_data_", "group", 1, 0, "", 0.0, 0.0, 0.0, 0.0, "", "group", 2, 0, "", 0.0, 0.0, 0.0, 0.0, "", "group", 3, 0, "", 0.0, 0.0, 0.0, 0.0, "", "group", 4, 0, "", 0.0, 0.0, 0.0, 0.0, "", "group", 5, 0, "", 0.0, 0.0, 0.0, 0.0, "", "group", 6, 0, "", 0.0, 0.0, 0.0, 0.0, "", "group", 7, 0, "", 0.0, 0.0, 0.0, 0.0, "", "group", 8, 0, "", 0.0, 0.0, 0.0, 0.0, "", "group", 9, 0, "", 0.0, 0.0, 0.0, 0.0, "", "group", 10, 0, "", 0.0, 0.0, 0.0, 0.0, "", "group", 11, 0, "", 0.0, 0.0, 0.0, 0.0, "", "group", 12, 0, "", 0.0, 0.0, 0.0, 0.0, "", "group", 13, 0, "", 0.0, 0.0, 0.0, 0.0, "", "group", 14, 0, "", 0.0, 0.0, 0.0, 0.0, "", "group", 15, 0, "", 0.0, 0.0, 0.0, 0.0, "", "group", 16, 0, "", 0.0, 0.0, 0.0, 0.0, "", "group", 17, 0, "", 0.0, 0.0, 0.0, 0.0, "", "group", 18, 0, "", 0.0, 0.0, 0.0, 0.0, "", "group", 19, 0, "", 0.0, 0.0, 0.0, 0.0, "", "group", 20, 0, "", 0.0, 0.0, 0.0, 0.0, "", "group", 21, 0, "", 0.0, 0.0, 0.0, 0.0, "", "group", 22, 0, "", 0.0, 0.0, 0.0, 0.0, "", "group", 23, 0, "", 0.0, 0.0, 0.0, 0.0, "", "group", 24, 0, "", 0.0, 0.0, 0.0, 0.0, "", "group", 25, 0, "", 0.0, 0.0, 0.0, 0.0, "", "group", 26, 0, "", 0.0, 0.0, 0.0, 0.0, "", "group", 27, 0, "", 0.0, 0.0, 0.0, 0.0, "", "group", 28, 0, "", 0.0, 0.0, 0.0, 0.0, "", "group", 29, 0, "", 0.0, 0.0, 0.0, 0.0, "", "group", 30, 0, "", 0.0, 0.0, 0.0, 0.0, "", "group", 31, 0, "", 0.0, 0.0, 0.0, 0.0, "", "group", 32, 0, "", 0.0, 0.0, 0.0, 0.0, "", "group", 33, 0, "", 0.0, 0.0, 0.0, 0.0, "", "group", 34, 0, "", 0.0, 0.0, 0.0, 0.0, "", "group", 35, 0, "", 0.0, 0.0, 0.0, 0.0, "", "group", 36, 0, "", 0.0, 0.0, 0.0, 0.0, "", "group", 37, 0, "", 0.0, 0.0, 0.0, 0.0, "", "group", 38, 0, "", 0.0, 0.0, 0.0, 0.0, "", "group", 39, 0, "", 0.0, 0.0, 0.0, 0.0, "", "group", 40, 0, "", 0.0, 0.0, 0.0, 0.0, "", "group", 41, 0, "", 0.0, 0.0, 0.0, 0.0, "", "group", 42, 0, "", 0.0, 0.0, 0.0, 0.0, "", "group", 43, 0, "", 0.0, 0.0, 0.0, 0.0, "", "group", 44, 0, "", 0.0, 0.0, 0.0, 0.0, "", "group", 45, 0, "", 0.0, 0.0, 0.0, 0.0, "", "group", 46, 0, "", 0.0, 0.0, 0.0, 0.0, "", "group", 47, 0, "", 0.0, 0.0, 0.0, 0.0, "", "group", 48, 0, "", 0.0, 0.0, 0.0, 0.0, "", "group", 49, 0, "", 0.0, 0.0, 0.0, 0.0, "", "group", 50, 0, "", 0.0, 0.0, 0.0, 0.0, "", "group", 51, 0, "", 0.0, 0.0, 0.0, 0.0, "", "group", 52, 0, "", 0.0, 0.0, 0.0, 0.0, "", "group", 53, 0, "", 0.0, 0.0, 0.0, 0.0, "", "group", 54, 0, "", 0.0, 0.0, 0.0, 0.0, "", "group", 55, 0, "", 0.0, 0.0, 0.0, 0.0, "", "group", 56, 0, "", 0.0, 0.0, 0.0, 0.0, "", "group", 57, 0, "", 0.0, 0.0, 0.0, 0.0, "", "group", 58, 0, "", 0.0, 0.0, 0.0, 0.0, "", "group", 59, 0, "", 0.0, 0.0, 0.0, 0.0, "", "group", 60, 0, "", 0.0, 0.0, 0.0, 0.0, "", "group", 61, 0, "", 0.0, 0.0, 0.0, 0.0, "", "group", 62, 0, "", 0.0, 0.0, 0.0, 0.0, "", "group", 63, 0, "", 0.0, 0.0, 0.0, 0.0, "", "group", 64, 0, "", 0.0, 0.0, 0.0, 0.0, "" ],
					"mapname" : "envelop",
					"maxclass" : "hoa.map",
					"numinlets" : 1,
					"numoutlets" : 3,
					"outlettype" : [ "list", "list", "list" ],
					"parameter_enable" : 0,
					"patching_rect" : [ 56.0, 499.5, 314.0, 314.0 ],
					"selcolor" : [ 1.0, 1.0, 1.0, 0.501961 ],
					"zoom" : 0.13
				}

			}
, 			{
				"box" : 				{
					"attr" : "zoom",
					"id" : "obj-27",
					"maxclass" : "attrui",
					"numinlets" : 1,
					"numoutlets" : 1,
					"outlettype" : [ "" ],
					"patching_rect" : [ 99.0, 427.5, 150.0, 22.0 ],
					"style" : ""
				}

			}
, 			{
				"box" : 				{
					"bgcolor" : [ 0.311041, 0.314599, 0.318357, 1.0 ],
					"id" : "obj-36",
					"maxclass" : "multislider",
					"numinlets" : 1,
					"numoutlets" : 2,
					"outlettype" : [ "", "" ],
					"parameter_enable" : 0,
					"patching_rect" : [ 597.0, 246.0, 153.0, 44.0 ],
					"setminmax" : [ -70.0, 6.0 ],
					"setstyle" : 1,
					"size" : 16,
					"slidercolor" : [ 0.803922, 0.898039, 0.909804, 1.0 ],
					"spacing" : 1,
					"style" : ""
				}

			}
, 			{
				"box" : 				{
					"id" : "obj-30",
					"maxclass" : "newobj",
					"numinlets" : 1,
					"numoutlets" : 3,
					"outlettype" : [ "", "", "FullPacket" ],
					"patching_rect" : [ 597.0, 159.0, 133.0, 22.0 ],
					"style" : "",
					"text" : "o.route /input /encoded"
				}

			}
, 			{
				"box" : 				{
					"bgcolor" : [ 0.311041, 0.314599, 0.318357, 1.0 ],
					"id" : "obj-28",
					"maxclass" : "multislider",
					"numinlets" : 1,
					"numoutlets" : 2,
					"outlettype" : [ "", "" ],
					"parameter_enable" : 0,
					"patching_rect" : [ 597.0, 192.0, 153.0, 44.0 ],
					"setminmax" : [ -70.0, 6.0 ],
					"setstyle" : 1,
					"size" : 16,
					"slidercolor" : [ 0.803922, 0.898039, 0.909804, 1.0 ],
					"spacing" : 1,
					"style" : ""
				}

			}
, 			{
				"box" : 				{
					"id" : "obj-56",
					"maxclass" : "newobj",
					"numinlets" : 1,
					"numoutlets" : 1,
					"outlettype" : [ "FullPacket" ],
					"patching_rect" : [ 759.0, 399.0, 127.0, 22.0 ],
					"style" : "",
					"text" : "o.prepend /server/dsp"
				}

			}
, 			{
				"box" : 				{
					"bgmode" : 0,
					"border" : 0,
					"clickthrough" : 0,
					"enablehscroll" : 0,
					"enablevscroll" : 0,
					"id" : "obj-18",
					"lockeddragscroll" : 0,
					"maxclass" : "bpatcher",
					"name" : "o.io.dsp.setting.bp.maxpat",
					"numinlets" : 1,
					"numoutlets" : 1,
					"offset" : [ 0.0, 0.0 ],
					"outlettype" : [ "FullPacket" ],
					"patching_rect" : [ 759.0, 147.0, 338.0, 242.0 ],
					"viewvisibility" : 1
				}

			}
, 			{
				"box" : 				{
					"id" : "obj-24",
					"maxclass" : "newobj",
					"numinlets" : 1,
					"numoutlets" : 2,
					"outlettype" : [ "", "FullPacket" ],
					"patching_rect" : [ 702.0, 112.0, 85.0, 22.0 ],
					"style" : "",
					"text" : "o.route /meter"
				}

			}
, 			{
				"box" : 				{
					"attr" : "edit_mode",
					"id" : "obj-14",
					"maxclass" : "attrui",
					"numinlets" : 1,
					"numoutlets" : 1,
					"outlettype" : [ "" ],
					"patching_rect" : [ 311.0, 201.0, 204.0, 22.0 ],
					"style" : ""
				}

			}
 ],
		"lines" : [ 			{
				"patchline" : 				{
					"destination" : [ "obj-15", 0 ],
					"disabled" : 0,
					"hidden" : 0,
					"source" : [ "obj-10", 0 ]
				}

			}
, 			{
				"patchline" : 				{
					"destination" : [ "obj-17", 0 ],
					"disabled" : 0,
					"hidden" : 0,
					"source" : [ "obj-11", 0 ]
				}

			}
, 			{
				"patchline" : 				{
					"destination" : [ "obj-87", 4 ],
					"disabled" : 0,
					"hidden" : 0,
					"source" : [ "obj-12", 0 ]
				}

			}
, 			{
				"patchline" : 				{
					"destination" : [ "obj-7", 0 ],
					"disabled" : 0,
					"hidden" : 0,
					"source" : [ "obj-13", 0 ]
				}

			}
, 			{
				"patchline" : 				{
					"destination" : [ "obj-10", 0 ],
					"disabled" : 0,
					"hidden" : 0,
					"source" : [ "obj-14", 0 ]
				}

			}
, 			{
				"patchline" : 				{
					"destination" : [ "obj-23", 0 ],
					"disabled" : 0,
					"hidden" : 0,
					"source" : [ "obj-15", 0 ]
				}

			}
, 			{
				"patchline" : 				{
					"destination" : [ "obj-7", 0 ],
					"disabled" : 0,
					"hidden" : 0,
					"source" : [ "obj-15", 0 ]
				}

			}
, 			{
				"patchline" : 				{
					"destination" : [ "obj-7", 0 ],
					"disabled" : 0,
					"hidden" : 0,
					"source" : [ "obj-17", 2 ]
				}

			}
, 			{
				"patchline" : 				{
					"destination" : [ "obj-72", 0 ],
					"disabled" : 0,
					"hidden" : 0,
					"source" : [ "obj-17", 0 ]
				}

			}
, 			{
				"patchline" : 				{
					"destination" : [ "obj-56", 0 ],
					"disabled" : 0,
					"hidden" : 0,
					"source" : [ "obj-18", 0 ]
				}

			}
, 			{
				"patchline" : 				{
					"destination" : [ "obj-6", 0 ],
					"disabled" : 0,
					"hidden" : 0,
					"source" : [ "obj-2", 0 ]
				}

			}
, 			{
				"patchline" : 				{
					"destination" : [ "obj-18", 0 ],
					"disabled" : 0,
					"hidden" : 0,
					"source" : [ "obj-24", 1 ]
				}

			}
, 			{
				"patchline" : 				{
					"destination" : [ "obj-30", 0 ],
					"disabled" : 0,
					"hidden" : 0,
					"source" : [ "obj-24", 0 ]
				}

			}
, 			{
				"patchline" : 				{
					"destination" : [ "obj-21", 0 ],
					"disabled" : 0,
					"hidden" : 0,
					"source" : [ "obj-27", 0 ]
				}

			}
, 			{
				"patchline" : 				{
					"destination" : [ "obj-54", 0 ],
					"disabled" : 0,
					"hidden" : 0,
					"source" : [ "obj-27", 0 ]
				}

			}
, 			{
				"patchline" : 				{
					"destination" : [ "obj-21", 0 ],
					"disabled" : 0,
					"hidden" : 0,
					"source" : [ "obj-29", 0 ]
				}

			}
, 			{
				"patchline" : 				{
					"destination" : [ "obj-28", 0 ],
					"disabled" : 0,
					"hidden" : 0,
					"source" : [ "obj-30", 0 ]
				}

			}
, 			{
				"patchline" : 				{
					"destination" : [ "obj-36", 0 ],
					"disabled" : 0,
					"hidden" : 0,
					"source" : [ "obj-30", 1 ]
				}

			}
, 			{
				"patchline" : 				{
					"destination" : [ "obj-29", 0 ],
					"disabled" : 0,
					"hidden" : 0,
					"source" : [ "obj-31", 0 ]
				}

			}
, 			{
				"patchline" : 				{
					"destination" : [ "obj-11", 0 ],
					"disabled" : 0,
					"hidden" : 0,
					"source" : [ "obj-47", 0 ]
				}

			}
, 			{
				"patchline" : 				{
					"destination" : [ "obj-2", 0 ],
					"disabled" : 0,
					"hidden" : 0,
					"source" : [ "obj-5", 0 ]
				}

			}
, 			{
				"patchline" : 				{
					"destination" : [ "obj-54", 0 ],
					"disabled" : 0,
					"hidden" : 0,
					"source" : [ "obj-53", 0 ]
				}

			}
, 			{
				"patchline" : 				{
					"destination" : [ "obj-21", 0 ],
					"disabled" : 0,
					"hidden" : 0,
					"source" : [ "obj-55", 0 ]
				}

			}
, 			{
				"patchline" : 				{
					"destination" : [ "obj-7", 0 ],
					"disabled" : 0,
					"hidden" : 0,
					"source" : [ "obj-56", 0 ]
				}

			}
, 			{
				"patchline" : 				{
					"destination" : [ "obj-24", 0 ],
					"disabled" : 0,
					"hidden" : 0,
					"source" : [ "obj-6", 0 ]
				}

			}
, 			{
				"patchline" : 				{
					"destination" : [ "obj-60", 0 ],
					"disabled" : 0,
					"hidden" : 0,
					"source" : [ "obj-6", 1 ]
				}

			}
, 			{
				"patchline" : 				{
					"destination" : [ "obj-7", 0 ],
					"disabled" : 0,
					"hidden" : 0,
					"source" : [ "obj-60", 0 ]
				}

			}
, 			{
				"patchline" : 				{
					"destination" : [ "obj-62", 0 ],
					"disabled" : 0,
					"hidden" : 0,
					"source" : [ "obj-61", 0 ]
				}

			}
, 			{
				"patchline" : 				{
					"destination" : [ "obj-65", 0 ],
					"disabled" : 0,
					"hidden" : 0,
					"source" : [ "obj-62", 0 ]
				}

			}
, 			{
				"patchline" : 				{
					"destination" : [ "obj-84", 0 ],
					"disabled" : 0,
					"hidden" : 0,
					"source" : [ "obj-65", 0 ]
				}

			}
, 			{
				"patchline" : 				{
					"destination" : [ "obj-61", 0 ],
					"disabled" : 0,
					"hidden" : 0,
					"source" : [ "obj-70", 0 ]
				}

			}
, 			{
				"patchline" : 				{
					"destination" : [ "obj-83", 0 ],
					"disabled" : 0,
					"hidden" : 0,
					"source" : [ "obj-72", 0 ]
				}

			}
, 			{
				"patchline" : 				{
					"destination" : [ "obj-91", 4 ],
					"disabled" : 0,
					"hidden" : 0,
					"source" : [ "obj-8", 0 ]
				}

			}
, 			{
				"patchline" : 				{
					"destination" : [ "obj-21", 0 ],
					"disabled" : 0,
					"hidden" : 0,
					"source" : [ "obj-83", 0 ]
				}

			}
, 			{
				"patchline" : 				{
					"destination" : [ "obj-85", 0 ],
					"disabled" : 0,
					"hidden" : 0,
					"source" : [ "obj-84", 0 ]
				}

			}
, 			{
				"patchline" : 				{
					"destination" : [ "obj-47", 0 ],
					"disabled" : 0,
					"hidden" : 0,
					"source" : [ "obj-85", 0 ]
				}

			}
, 			{
				"patchline" : 				{
					"destination" : [ "obj-89", 0 ],
					"disabled" : 0,
					"hidden" : 0,
					"source" : [ "obj-86", 0 ]
				}

			}
, 			{
				"patchline" : 				{
					"destination" : [ "obj-84", 1 ],
					"disabled" : 0,
					"hidden" : 0,
					"source" : [ "obj-87", 0 ]
				}

			}
, 			{
				"patchline" : 				{
					"destination" : [ "obj-87", 0 ],
					"disabled" : 0,
					"hidden" : 0,
					"source" : [ "obj-88", 0 ]
				}

			}
, 			{
				"patchline" : 				{
					"destination" : [ "obj-88", 0 ],
					"disabled" : 0,
					"hidden" : 0,
					"source" : [ "obj-89", 0 ]
				}

			}
, 			{
				"patchline" : 				{
					"destination" : [ "obj-93", 0 ],
					"disabled" : 0,
					"hidden" : 0,
					"source" : [ "obj-90", 0 ]
				}

			}
, 			{
				"patchline" : 				{
					"destination" : [ "obj-84", 2 ],
					"disabled" : 0,
					"hidden" : 0,
					"source" : [ "obj-91", 0 ]
				}

			}
, 			{
				"patchline" : 				{
					"destination" : [ "obj-91", 0 ],
					"disabled" : 0,
					"hidden" : 0,
					"source" : [ "obj-92", 0 ]
				}

			}
, 			{
				"patchline" : 				{
					"destination" : [ "obj-92", 0 ],
					"disabled" : 0,
					"hidden" : 0,
					"source" : [ "obj-93", 0 ]
				}

			}
, 			{
				"patchline" : 				{
					"destination" : [ "obj-62", 1 ],
					"disabled" : 0,
					"hidden" : 0,
					"source" : [ "obj-99", 0 ]
				}

			}
, 			{
				"patchline" : 				{
					"destination" : [ "obj-92", 1 ],
					"disabled" : 0,
					"hidden" : 0,
					"source" : [ "obj-99", 0 ]
				}

			}
 ],
		"dependency_cache" : [ 			{
				"name" : "o.io.dsp.setting.bp.maxpat",
				"bootpath" : "~/Documents/dev-lib/EnvelopLive/dev/abstractions",
				"type" : "JSON",
				"implicit" : 1
			}
, 			{
				"name" : "o.io.dsp.setting.umenu.bp.maxpat",
				"bootpath" : "~/Documents/dev-lib/EnvelopLive/dev/abstractions",
				"type" : "JSON",
				"implicit" : 1
			}
, 			{
				"name" : "env.o.accum.maxpat",
				"bootpath" : "~/Documents/dev-lib/EnvelopLive/dev/abstractions",
				"type" : "JSON",
				"implicit" : 1
			}
, 			{
				"name" : "o.route.mxo",
				"type" : "iLaX"
			}
, 			{
				"name" : "o.pack.mxo",
				"type" : "iLaX"
			}
, 			{
				"name" : "o.select.mxo",
				"type" : "iLaX"
			}
, 			{
				"name" : "o.union.mxo",
				"type" : "iLaX"
			}
, 			{
				"name" : "o.expr.codebox.mxo",
				"type" : "iLaX"
			}
, 			{
				"name" : "o.compose.mxo",
				"type" : "iLaX"
			}
, 			{
				"name" : "o.prepend.mxo",
				"type" : "iLaX"
			}
, 			{
				"name" : "hoa.map.mxo",
				"type" : "iLaX"
			}
, 			{
				"name" : "o.explode.mxo",
				"type" : "iLaX"
			}
, 			{
				"name" : "o.flatten.mxo",
				"type" : "iLaX"
			}
, 			{
				"name" : "o.var.mxo",
				"type" : "iLaX"
			}
, 			{
				"name" : "o.display.mxo",
				"type" : "iLaX"
			}
, 			{
				"name" : "o.atomize.mxo",
				"type" : "iLaX"
			}
 ],
		"embedsnapshot" : 0,
		"bgfillcolor_type" : "gradient",
		"bgfillcolor_color1" : [ 0.376471, 0.384314, 0.4, 1.0 ],
		"bgfillcolor_color2" : [ 0.290196, 0.309804, 0.301961, 1.0 ],
		"bgfillcolor_color" : [ 0.290196, 0.309804, 0.301961, 1.0 ],
		"bgfillcolor_angle" : 270.0,
		"bgfillcolor_proportion" : 0.39
	}

}
