{
	"patcher" : 	{
		"fileversion" : 1,
		"appversion" : 		{
			"major" : 8,
			"minor" : 0,
			"revision" : 0,
			"architecture" : "x64",
			"modernui" : 1
		}
,
		"rect" : [ 38.0, 79.0, 1368.0, 787.0 ],
		"bgcolor" : [ 0.898039, 0.898039, 0.898039, 1 ],
		"editing_bgcolor" : [ 0.898039, 0.898039, 0.898039, 1 ],
		"bglocked" : 0,
		"openinpresentation" : 0,
		"default_fontsize" : 12.0,
		"default_fontface" : 0,
		"default_fontname" : "Arial",
		"gridonopen" : 1,
		"gridsize" : [ 15.0, 15.0 ],
		"gridsnaponopen" : 1,
		"objectsnaponopen" : 1,
		"statusbarvisible" : 2,
		"toolbarvisible" : 1,
		"lefttoolbarpinned" : 0,
		"toptoolbarpinned" : 0,
		"righttoolbarpinned" : 0,
		"bottomtoolbarpinned" : 0,
		"toolbars_unpinned_last_save" : 0,
		"tallnewobj" : 0,
		"boxanimatetime" : 200,
		"enablehscroll" : 1,
		"enablevscroll" : 1,
		"devicewidth" : 0.0,
		"description" : "",
		"digest" : "",
		"tags" : "",
		"style" : "",
		"subpatcher_template" : "",
		"boxes" : [ 			{
				"box" : 				{
					"id" : "obj-8",
					"maxclass" : "newobj",
					"numinlets" : 0,
					"numoutlets" : 0,
					"patcher" : 					{
						"fileversion" : 1,
						"appversion" : 						{
							"major" : 8,
							"minor" : 0,
							"revision" : 0,
							"architecture" : "x64",
							"modernui" : 1
						}
,
						"rect" : [ 38.0, 79.0, 976.0, 787.0 ],
						"bgcolor" : [ 0.898039, 0.898039, 0.898039, 1 ],
						"editing_bgcolor" : [ 0.898039, 0.898039, 0.898039, 1 ],
						"bglocked" : 0,
						"openinpresentation" : 0,
						"default_fontsize" : 12.0,
						"default_fontface" : 0,
						"default_fontname" : "Arial",
						"gridonopen" : 1,
						"gridsize" : [ 15.0, 15.0 ],
						"gridsnaponopen" : 1,
						"objectsnaponopen" : 1,
						"statusbarvisible" : 2,
						"toolbarvisible" : 1,
						"lefttoolbarpinned" : 0,
						"toptoolbarpinned" : 0,
						"righttoolbarpinned" : 0,
						"bottomtoolbarpinned" : 0,
						"toolbars_unpinned_last_save" : 0,
						"tallnewobj" : 0,
						"boxanimatetime" : 200,
						"enablehscroll" : 1,
						"enablevscroll" : 1,
						"devicewidth" : 0.0,
						"description" : "",
						"digest" : "",
						"tags" : "",
						"style" : "",
						"subpatcher_template" : "",
						"boxes" : [ 							{
								"box" : 								{
									"id" : "obj-33",
									"linecount" : 3,
									"maxclass" : "newobj",
									"numinlets" : 1,
									"numoutlets" : 3,
									"outlettype" : [ "", "", "FullPacket" ],
									"patching_rect" : [ 321.800018, 322.0, 60.0, 49.0 ],
									"presentation_rect" : [ 321.800018, 322.0, 60.0, 49.0 ],
									"style" : "",
									"text" : "o.route /w_gain /g_gain"
								}

							}
, 							{
								"box" : 								{
									"id" : "obj-29",
									"maxclass" : "button",
									"numinlets" : 1,
									"numoutlets" : 1,
									"outlettype" : [ "bang" ],
									"parameter_enable" : 0,
									"patching_rect" : [ 702.0, 71.0, 24.0, 24.0 ],
									"presentation_rect" : [ 702.0, 71.0, 24.0, 24.0 ],
									"style" : ""
								}

							}
, 							{
								"box" : 								{
									"format" : 6,
									"id" : "obj-27",
									"maxclass" : "flonum",
									"numinlets" : 1,
									"numoutlets" : 2,
									"outlettype" : [ "", "bang" ],
									"parameter_enable" : 0,
									"patching_rect" : [ 841.0, 33.0, 50.0, 22.0 ],
									"presentation_rect" : [ 841.0, 33.0, 50.0, 22.0 ],
									"style" : ""
								}

							}
, 							{
								"box" : 								{
									"format" : 6,
									"id" : "obj-26",
									"maxclass" : "flonum",
									"numinlets" : 1,
									"numoutlets" : 2,
									"outlettype" : [ "", "bang" ],
									"parameter_enable" : 0,
									"patching_rect" : [ 737.0, 33.0, 50.0, 22.0 ],
									"presentation_rect" : [ 737.0, 33.0, 50.0, 22.0 ],
									"style" : ""
								}

							}
, 							{
								"box" : 								{
									"id" : "obj-24",
									"maxclass" : "message",
									"numinlets" : 2,
									"numoutlets" : 1,
									"outlettype" : [ "" ],
									"patching_rect" : [ 367.0, 207.0, 63.0, 22.0 ],
									"presentation_rect" : [ 367.0, 207.0, 63.0, 22.0 ],
									"style" : "",
									"text" : "aed_scale"
								}

							}
, 							{
								"box" : 								{
									"id" : "obj-21",
									"maxclass" : "newobj",
									"numinlets" : 18,
									"numoutlets" : 16,
									"outlettype" : [ "signal", "signal", "signal", "signal", "signal", "signal", "signal", "signal", "signal", "signal", "signal", "signal", "signal", "signal", "signal", "signal" ],
									"patcher" : 									{
										"fileversion" : 1,
										"appversion" : 										{
											"major" : 8,
											"minor" : 0,
											"revision" : 0,
											"architecture" : "x64",
											"modernui" : 1
										}
,
										"rect" : [ 63.0, 104.0, 1145.0, 364.0 ],
										"bgcolor" : [ 0.898039, 0.898039, 0.898039, 1 ],
										"editing_bgcolor" : [ 0.898039, 0.898039, 0.898039, 1 ],
										"bglocked" : 0,
										"openinpresentation" : 0,
										"default_fontsize" : 12.0,
										"default_fontface" : 0,
										"default_fontname" : "Arial",
										"gridonopen" : 1,
										"gridsize" : [ 15.0, 15.0 ],
										"gridsnaponopen" : 1,
										"objectsnaponopen" : 1,
										"statusbarvisible" : 2,
										"toolbarvisible" : 1,
										"lefttoolbarpinned" : 0,
										"toptoolbarpinned" : 0,
										"righttoolbarpinned" : 0,
										"bottomtoolbarpinned" : 0,
										"toolbars_unpinned_last_save" : 0,
										"tallnewobj" : 0,
										"boxanimatetime" : 200,
										"enablehscroll" : 1,
										"enablevscroll" : 1,
										"devicewidth" : 0.0,
										"description" : "",
										"digest" : "",
										"tags" : "",
										"style" : "",
										"subpatcher_template" : "",
										"boxes" : [ 											{
												"box" : 												{
													"id" : "obj-55",
													"maxclass" : "message",
													"numinlets" : 2,
													"numoutlets" : 1,
													"outlettype" : [ "" ],
													"patching_rect" : [ 873.0, 58.0, 50.0, 22.0 ],
													"presentation_rect" : [ 873.0, 58.0, 50.0, 22.0 ],
													"style" : "",
													"text" : "$1 20"
												}

											}
, 											{
												"box" : 												{
													"id" : "obj-54",
													"maxclass" : "message",
													"numinlets" : 2,
													"numoutlets" : 1,
													"outlettype" : [ "" ],
													"patching_rect" : [ 750.0, 71.0, 50.0, 22.0 ],
													"presentation_rect" : [ 750.0, 71.0, 50.0, 22.0 ],
													"style" : "",
													"text" : "$1 20"
												}

											}
, 											{
												"box" : 												{
													"id" : "obj-50",
													"maxclass" : "newobj",
													"numinlets" : 2,
													"numoutlets" : 1,
													"outlettype" : [ "signal" ],
													"patching_rect" : [ 14.0, 131.0, 29.5, 22.0 ],
													"presentation_rect" : [ 14.0, 131.0, 29.5, 22.0 ],
													"style" : "",
													"text" : "*~"
												}

											}
, 											{
												"box" : 												{
													"comment" : "",
													"id" : "obj-51",
													"index" : 1,
													"maxclass" : "inlet",
													"numinlets" : 0,
													"numoutlets" : 1,
													"outlettype" : [ "signal" ],
													"patching_rect" : [ 14.0, 71.0, 30.0, 30.0 ],
													"presentation_rect" : [ 14.0, 71.0, 30.0, 30.0 ],
													"style" : ""
												}

											}
, 											{
												"box" : 												{
													"comment" : "",
													"id" : "obj-52",
													"index" : 1,
													"maxclass" : "outlet",
													"numinlets" : 1,
													"numoutlets" : 0,
													"patching_rect" : [ 14.0, 180.0, 30.0, 30.0 ],
													"presentation_rect" : [ 14.0, 180.0, 30.0, 30.0 ],
													"style" : ""
												}

											}
, 											{
												"box" : 												{
													"comment" : "",
													"id" : "obj-48",
													"index" : 17,
													"maxclass" : "inlet",
													"numinlets" : 0,
													"numoutlets" : 1,
													"outlettype" : [ "" ],
													"patching_rect" : [ 750.0, 26.0, 30.0, 30.0 ],
													"presentation_rect" : [ 750.0, 26.0, 30.0, 30.0 ],
													"style" : ""
												}

											}
, 											{
												"box" : 												{
													"id" : "obj-49",
													"maxclass" : "newobj",
													"numinlets" : 2,
													"numoutlets" : 2,
													"outlettype" : [ "signal", "bang" ],
													"patching_rect" : [ 43.0, 35.0, 44.0, 22.0 ],
													"presentation_rect" : [ 43.0, 35.0, 44.0, 22.0 ],
													"style" : "",
													"text" : "line~ 1"
												}

											}
, 											{
												"box" : 												{
													"comment" : "",
													"id" : "obj-47",
													"index" : 18,
													"maxclass" : "inlet",
													"numinlets" : 0,
													"numoutlets" : 1,
													"outlettype" : [ "" ],
													"patching_rect" : [ 873.0, 13.0, 30.0, 30.0 ],
													"presentation_rect" : [ 873.0, 13.0, 30.0, 30.0 ],
													"style" : ""
												}

											}
, 											{
												"box" : 												{
													"id" : "obj-46",
													"maxclass" : "newobj",
													"numinlets" : 2,
													"numoutlets" : 2,
													"outlettype" : [ "signal", "bang" ],
													"patching_rect" : [ 873.0, 95.0, 44.0, 22.0 ],
													"presentation_rect" : [ 873.0, 95.0, 44.0, 22.0 ],
													"style" : "",
													"text" : "line~ 1"
												}

											}
, 											{
												"box" : 												{
													"id" : "obj-43",
													"maxclass" : "newobj",
													"numinlets" : 2,
													"numoutlets" : 1,
													"outlettype" : [ "signal" ],
													"patching_rect" : [ 673.0, 131.0, 29.5, 22.0 ],
													"presentation_rect" : [ 673.0, 131.0, 29.5, 22.0 ],
													"style" : "",
													"text" : "*~"
												}

											}
, 											{
												"box" : 												{
													"comment" : "",
													"id" : "obj-44",
													"index" : 16,
													"maxclass" : "inlet",
													"numinlets" : 0,
													"numoutlets" : 1,
													"outlettype" : [ "signal" ],
													"patching_rect" : [ 673.0, 71.0, 30.0, 30.0 ],
													"presentation_rect" : [ 673.0, 71.0, 30.0, 30.0 ],
													"style" : ""
												}

											}
, 											{
												"box" : 												{
													"comment" : "",
													"id" : "obj-45",
													"index" : 16,
													"maxclass" : "outlet",
													"numinlets" : 1,
													"numoutlets" : 0,
													"patching_rect" : [ 673.0, 180.0, 30.0, 30.0 ],
													"presentation_rect" : [ 673.0, 180.0, 30.0, 30.0 ],
													"style" : ""
												}

											}
, 											{
												"box" : 												{
													"id" : "obj-40",
													"maxclass" : "newobj",
													"numinlets" : 2,
													"numoutlets" : 1,
													"outlettype" : [ "signal" ],
													"patching_rect" : [ 629.0, 131.0, 29.5, 22.0 ],
													"presentation_rect" : [ 629.0, 131.0, 29.5, 22.0 ],
													"style" : "",
													"text" : "*~"
												}

											}
, 											{
												"box" : 												{
													"comment" : "",
													"id" : "obj-41",
													"index" : 15,
													"maxclass" : "inlet",
													"numinlets" : 0,
													"numoutlets" : 1,
													"outlettype" : [ "signal" ],
													"patching_rect" : [ 629.0, 71.0, 30.0, 30.0 ],
													"presentation_rect" : [ 629.0, 71.0, 30.0, 30.0 ],
													"style" : ""
												}

											}
, 											{
												"box" : 												{
													"comment" : "",
													"id" : "obj-42",
													"index" : 15,
													"maxclass" : "outlet",
													"numinlets" : 1,
													"numoutlets" : 0,
													"patching_rect" : [ 629.0, 180.0, 30.0, 30.0 ],
													"presentation_rect" : [ 629.0, 180.0, 30.0, 30.0 ],
													"style" : ""
												}

											}
, 											{
												"box" : 												{
													"id" : "obj-37",
													"maxclass" : "newobj",
													"numinlets" : 2,
													"numoutlets" : 1,
													"outlettype" : [ "signal" ],
													"patching_rect" : [ 585.0, 131.0, 29.5, 22.0 ],
													"presentation_rect" : [ 585.0, 131.0, 29.5, 22.0 ],
													"style" : "",
													"text" : "*~"
												}

											}
, 											{
												"box" : 												{
													"comment" : "",
													"id" : "obj-38",
													"index" : 14,
													"maxclass" : "inlet",
													"numinlets" : 0,
													"numoutlets" : 1,
													"outlettype" : [ "signal" ],
													"patching_rect" : [ 585.0, 71.0, 30.0, 30.0 ],
													"presentation_rect" : [ 585.0, 71.0, 30.0, 30.0 ],
													"style" : ""
												}

											}
, 											{
												"box" : 												{
													"comment" : "",
													"id" : "obj-39",
													"index" : 14,
													"maxclass" : "outlet",
													"numinlets" : 1,
													"numoutlets" : 0,
													"patching_rect" : [ 585.0, 180.0, 30.0, 30.0 ],
													"presentation_rect" : [ 585.0, 180.0, 30.0, 30.0 ],
													"style" : ""
												}

											}
, 											{
												"box" : 												{
													"id" : "obj-34",
													"maxclass" : "newobj",
													"numinlets" : 2,
													"numoutlets" : 1,
													"outlettype" : [ "signal" ],
													"patching_rect" : [ 541.0, 131.0, 29.5, 22.0 ],
													"presentation_rect" : [ 541.0, 131.0, 29.5, 22.0 ],
													"style" : "",
													"text" : "*~"
												}

											}
, 											{
												"box" : 												{
													"comment" : "",
													"id" : "obj-35",
													"index" : 13,
													"maxclass" : "inlet",
													"numinlets" : 0,
													"numoutlets" : 1,
													"outlettype" : [ "signal" ],
													"patching_rect" : [ 541.0, 71.0, 30.0, 30.0 ],
													"presentation_rect" : [ 541.0, 71.0, 30.0, 30.0 ],
													"style" : ""
												}

											}
, 											{
												"box" : 												{
													"comment" : "",
													"id" : "obj-36",
													"index" : 13,
													"maxclass" : "outlet",
													"numinlets" : 1,
													"numoutlets" : 0,
													"patching_rect" : [ 541.0, 180.0, 30.0, 30.0 ],
													"presentation_rect" : [ 541.0, 180.0, 30.0, 30.0 ],
													"style" : ""
												}

											}
, 											{
												"box" : 												{
													"id" : "obj-31",
													"maxclass" : "newobj",
													"numinlets" : 2,
													"numoutlets" : 1,
													"outlettype" : [ "signal" ],
													"patching_rect" : [ 497.0, 131.0, 29.5, 22.0 ],
													"presentation_rect" : [ 497.0, 131.0, 29.5, 22.0 ],
													"style" : "",
													"text" : "*~"
												}

											}
, 											{
												"box" : 												{
													"comment" : "",
													"id" : "obj-32",
													"index" : 12,
													"maxclass" : "inlet",
													"numinlets" : 0,
													"numoutlets" : 1,
													"outlettype" : [ "signal" ],
													"patching_rect" : [ 497.0, 71.0, 30.0, 30.0 ],
													"presentation_rect" : [ 497.0, 71.0, 30.0, 30.0 ],
													"style" : ""
												}

											}
, 											{
												"box" : 												{
													"comment" : "",
													"id" : "obj-33",
													"index" : 12,
													"maxclass" : "outlet",
													"numinlets" : 1,
													"numoutlets" : 0,
													"patching_rect" : [ 497.0, 180.0, 30.0, 30.0 ],
													"presentation_rect" : [ 497.0, 180.0, 30.0, 30.0 ],
													"style" : ""
												}

											}
, 											{
												"box" : 												{
													"id" : "obj-28",
													"maxclass" : "newobj",
													"numinlets" : 2,
													"numoutlets" : 1,
													"outlettype" : [ "signal" ],
													"patching_rect" : [ 453.0, 131.0, 29.5, 22.0 ],
													"presentation_rect" : [ 453.0, 131.0, 29.5, 22.0 ],
													"style" : "",
													"text" : "*~"
												}

											}
, 											{
												"box" : 												{
													"comment" : "",
													"id" : "obj-29",
													"index" : 11,
													"maxclass" : "inlet",
													"numinlets" : 0,
													"numoutlets" : 1,
													"outlettype" : [ "signal" ],
													"patching_rect" : [ 453.0, 71.0, 30.0, 30.0 ],
													"presentation_rect" : [ 453.0, 71.0, 30.0, 30.0 ],
													"style" : ""
												}

											}
, 											{
												"box" : 												{
													"comment" : "",
													"id" : "obj-30",
													"index" : 11,
													"maxclass" : "outlet",
													"numinlets" : 1,
													"numoutlets" : 0,
													"patching_rect" : [ 453.0, 180.0, 30.0, 30.0 ],
													"presentation_rect" : [ 453.0, 180.0, 30.0, 30.0 ],
													"style" : ""
												}

											}
, 											{
												"box" : 												{
													"id" : "obj-25",
													"maxclass" : "newobj",
													"numinlets" : 2,
													"numoutlets" : 1,
													"outlettype" : [ "signal" ],
													"patching_rect" : [ 409.0, 131.0, 29.5, 22.0 ],
													"presentation_rect" : [ 409.0, 131.0, 29.5, 22.0 ],
													"style" : "",
													"text" : "*~"
												}

											}
, 											{
												"box" : 												{
													"comment" : "",
													"id" : "obj-26",
													"index" : 10,
													"maxclass" : "inlet",
													"numinlets" : 0,
													"numoutlets" : 1,
													"outlettype" : [ "signal" ],
													"patching_rect" : [ 409.0, 71.0, 30.0, 30.0 ],
													"presentation_rect" : [ 409.0, 71.0, 30.0, 30.0 ],
													"style" : ""
												}

											}
, 											{
												"box" : 												{
													"comment" : "",
													"id" : "obj-27",
													"index" : 10,
													"maxclass" : "outlet",
													"numinlets" : 1,
													"numoutlets" : 0,
													"patching_rect" : [ 409.0, 180.0, 30.0, 30.0 ],
													"presentation_rect" : [ 409.0, 180.0, 30.0, 30.0 ],
													"style" : ""
												}

											}
, 											{
												"box" : 												{
													"id" : "obj-22",
													"maxclass" : "newobj",
													"numinlets" : 2,
													"numoutlets" : 1,
													"outlettype" : [ "signal" ],
													"patching_rect" : [ 365.0, 131.0, 29.5, 22.0 ],
													"presentation_rect" : [ 365.0, 131.0, 29.5, 22.0 ],
													"style" : "",
													"text" : "*~"
												}

											}
, 											{
												"box" : 												{
													"comment" : "",
													"id" : "obj-23",
													"index" : 9,
													"maxclass" : "inlet",
													"numinlets" : 0,
													"numoutlets" : 1,
													"outlettype" : [ "signal" ],
													"patching_rect" : [ 365.0, 71.0, 30.0, 30.0 ],
													"presentation_rect" : [ 365.0, 71.0, 30.0, 30.0 ],
													"style" : ""
												}

											}
, 											{
												"box" : 												{
													"comment" : "",
													"id" : "obj-24",
													"index" : 9,
													"maxclass" : "outlet",
													"numinlets" : 1,
													"numoutlets" : 0,
													"patching_rect" : [ 365.0, 180.0, 30.0, 30.0 ],
													"presentation_rect" : [ 365.0, 180.0, 30.0, 30.0 ],
													"style" : ""
												}

											}
, 											{
												"box" : 												{
													"id" : "obj-16",
													"maxclass" : "newobj",
													"numinlets" : 2,
													"numoutlets" : 1,
													"outlettype" : [ "signal" ],
													"patching_rect" : [ 321.0, 131.0, 29.5, 22.0 ],
													"presentation_rect" : [ 321.0, 131.0, 29.5, 22.0 ],
													"style" : "",
													"text" : "*~"
												}

											}
, 											{
												"box" : 												{
													"comment" : "",
													"id" : "obj-17",
													"index" : 8,
													"maxclass" : "inlet",
													"numinlets" : 0,
													"numoutlets" : 1,
													"outlettype" : [ "signal" ],
													"patching_rect" : [ 321.0, 71.0, 30.0, 30.0 ],
													"presentation_rect" : [ 321.0, 71.0, 30.0, 30.0 ],
													"style" : ""
												}

											}
, 											{
												"box" : 												{
													"comment" : "",
													"id" : "obj-21",
													"index" : 8,
													"maxclass" : "outlet",
													"numinlets" : 1,
													"numoutlets" : 0,
													"patching_rect" : [ 321.0, 180.0, 30.0, 30.0 ],
													"presentation_rect" : [ 321.0, 180.0, 30.0, 30.0 ],
													"style" : ""
												}

											}
, 											{
												"box" : 												{
													"id" : "obj-13",
													"maxclass" : "newobj",
													"numinlets" : 2,
													"numoutlets" : 1,
													"outlettype" : [ "signal" ],
													"patching_rect" : [ 277.0, 131.0, 29.5, 22.0 ],
													"presentation_rect" : [ 277.0, 131.0, 29.5, 22.0 ],
													"style" : "",
													"text" : "*~"
												}

											}
, 											{
												"box" : 												{
													"comment" : "",
													"id" : "obj-14",
													"index" : 7,
													"maxclass" : "inlet",
													"numinlets" : 0,
													"numoutlets" : 1,
													"outlettype" : [ "signal" ],
													"patching_rect" : [ 277.0, 71.0, 30.0, 30.0 ],
													"presentation_rect" : [ 277.0, 71.0, 30.0, 30.0 ],
													"style" : ""
												}

											}
, 											{
												"box" : 												{
													"comment" : "",
													"id" : "obj-15",
													"index" : 7,
													"maxclass" : "outlet",
													"numinlets" : 1,
													"numoutlets" : 0,
													"patching_rect" : [ 277.0, 180.0, 30.0, 30.0 ],
													"presentation_rect" : [ 277.0, 180.0, 30.0, 30.0 ],
													"style" : ""
												}

											}
, 											{
												"box" : 												{
													"id" : "obj-10",
													"maxclass" : "newobj",
													"numinlets" : 2,
													"numoutlets" : 1,
													"outlettype" : [ "signal" ],
													"patching_rect" : [ 233.0, 131.0, 29.5, 22.0 ],
													"presentation_rect" : [ 233.0, 131.0, 29.5, 22.0 ],
													"style" : "",
													"text" : "*~"
												}

											}
, 											{
												"box" : 												{
													"comment" : "",
													"id" : "obj-11",
													"index" : 6,
													"maxclass" : "inlet",
													"numinlets" : 0,
													"numoutlets" : 1,
													"outlettype" : [ "signal" ],
													"patching_rect" : [ 233.0, 71.0, 30.0, 30.0 ],
													"presentation_rect" : [ 233.0, 71.0, 30.0, 30.0 ],
													"style" : ""
												}

											}
, 											{
												"box" : 												{
													"comment" : "",
													"id" : "obj-12",
													"index" : 6,
													"maxclass" : "outlet",
													"numinlets" : 1,
													"numoutlets" : 0,
													"patching_rect" : [ 233.0, 180.0, 30.0, 30.0 ],
													"presentation_rect" : [ 233.0, 180.0, 30.0, 30.0 ],
													"style" : ""
												}

											}
, 											{
												"box" : 												{
													"id" : "obj-7",
													"maxclass" : "newobj",
													"numinlets" : 2,
													"numoutlets" : 1,
													"outlettype" : [ "signal" ],
													"patching_rect" : [ 189.0, 131.0, 29.5, 22.0 ],
													"presentation_rect" : [ 189.0, 131.0, 29.5, 22.0 ],
													"style" : "",
													"text" : "*~"
												}

											}
, 											{
												"box" : 												{
													"comment" : "",
													"id" : "obj-8",
													"index" : 5,
													"maxclass" : "inlet",
													"numinlets" : 0,
													"numoutlets" : 1,
													"outlettype" : [ "signal" ],
													"patching_rect" : [ 189.0, 71.0, 30.0, 30.0 ],
													"presentation_rect" : [ 189.0, 71.0, 30.0, 30.0 ],
													"style" : ""
												}

											}
, 											{
												"box" : 												{
													"comment" : "",
													"id" : "obj-9",
													"index" : 5,
													"maxclass" : "outlet",
													"numinlets" : 1,
													"numoutlets" : 0,
													"patching_rect" : [ 189.0, 180.0, 30.0, 30.0 ],
													"presentation_rect" : [ 189.0, 180.0, 30.0, 30.0 ],
													"style" : ""
												}

											}
, 											{
												"box" : 												{
													"id" : "obj-4",
													"maxclass" : "newobj",
													"numinlets" : 2,
													"numoutlets" : 1,
													"outlettype" : [ "signal" ],
													"patching_rect" : [ 145.0, 131.0, 29.5, 22.0 ],
													"presentation_rect" : [ 145.0, 131.0, 29.5, 22.0 ],
													"style" : "",
													"text" : "*~"
												}

											}
, 											{
												"box" : 												{
													"comment" : "",
													"id" : "obj-5",
													"index" : 4,
													"maxclass" : "inlet",
													"numinlets" : 0,
													"numoutlets" : 1,
													"outlettype" : [ "signal" ],
													"patching_rect" : [ 145.0, 71.0, 30.0, 30.0 ],
													"presentation_rect" : [ 145.0, 71.0, 30.0, 30.0 ],
													"style" : ""
												}

											}
, 											{
												"box" : 												{
													"comment" : "",
													"id" : "obj-6",
													"index" : 4,
													"maxclass" : "outlet",
													"numinlets" : 1,
													"numoutlets" : 0,
													"patching_rect" : [ 145.0, 180.0, 30.0, 30.0 ],
													"presentation_rect" : [ 145.0, 180.0, 30.0, 30.0 ],
													"style" : ""
												}

											}
, 											{
												"box" : 												{
													"id" : "obj-1",
													"maxclass" : "newobj",
													"numinlets" : 2,
													"numoutlets" : 1,
													"outlettype" : [ "signal" ],
													"patching_rect" : [ 101.0, 131.0, 29.5, 22.0 ],
													"presentation_rect" : [ 101.0, 131.0, 29.5, 22.0 ],
													"style" : "",
													"text" : "*~"
												}

											}
, 											{
												"box" : 												{
													"comment" : "",
													"id" : "obj-2",
													"index" : 3,
													"maxclass" : "inlet",
													"numinlets" : 0,
													"numoutlets" : 1,
													"outlettype" : [ "signal" ],
													"patching_rect" : [ 101.0, 71.0, 30.0, 30.0 ],
													"presentation_rect" : [ 101.0, 71.0, 30.0, 30.0 ],
													"style" : ""
												}

											}
, 											{
												"box" : 												{
													"comment" : "",
													"id" : "obj-3",
													"index" : 3,
													"maxclass" : "outlet",
													"numinlets" : 1,
													"numoutlets" : 0,
													"patching_rect" : [ 101.0, 180.0, 30.0, 30.0 ],
													"presentation_rect" : [ 101.0, 180.0, 30.0, 30.0 ],
													"style" : ""
												}

											}
, 											{
												"box" : 												{
													"id" : "obj-18",
													"maxclass" : "newobj",
													"numinlets" : 2,
													"numoutlets" : 1,
													"outlettype" : [ "signal" ],
													"patching_rect" : [ 57.0, 131.0, 29.5, 22.0 ],
													"presentation_rect" : [ 57.0, 131.0, 29.5, 22.0 ],
													"style" : "",
													"text" : "*~"
												}

											}
, 											{
												"box" : 												{
													"comment" : "",
													"id" : "obj-19",
													"index" : 2,
													"maxclass" : "inlet",
													"numinlets" : 0,
													"numoutlets" : 1,
													"outlettype" : [ "signal" ],
													"patching_rect" : [ 57.0, 71.0, 30.0, 30.0 ],
													"presentation_rect" : [ 57.0, 71.0, 30.0, 30.0 ],
													"style" : ""
												}

											}
, 											{
												"box" : 												{
													"comment" : "",
													"id" : "obj-20",
													"index" : 2,
													"maxclass" : "outlet",
													"numinlets" : 1,
													"numoutlets" : 0,
													"patching_rect" : [ 57.0, 180.0, 30.0, 30.0 ],
													"presentation_rect" : [ 57.0, 180.0, 30.0, 30.0 ],
													"style" : ""
												}

											}
 ],
										"lines" : [ 											{
												"patchline" : 												{
													"destination" : [ "obj-3", 0 ],
													"source" : [ "obj-1", 0 ]
												}

											}
, 											{
												"patchline" : 												{
													"destination" : [ "obj-12", 0 ],
													"source" : [ "obj-10", 0 ]
												}

											}
, 											{
												"patchline" : 												{
													"destination" : [ "obj-10", 0 ],
													"source" : [ "obj-11", 0 ]
												}

											}
, 											{
												"patchline" : 												{
													"destination" : [ "obj-15", 0 ],
													"source" : [ "obj-13", 0 ]
												}

											}
, 											{
												"patchline" : 												{
													"destination" : [ "obj-13", 0 ],
													"source" : [ "obj-14", 0 ]
												}

											}
, 											{
												"patchline" : 												{
													"destination" : [ "obj-21", 0 ],
													"source" : [ "obj-16", 0 ]
												}

											}
, 											{
												"patchline" : 												{
													"destination" : [ "obj-16", 0 ],
													"source" : [ "obj-17", 0 ]
												}

											}
, 											{
												"patchline" : 												{
													"destination" : [ "obj-20", 0 ],
													"source" : [ "obj-18", 0 ]
												}

											}
, 											{
												"patchline" : 												{
													"destination" : [ "obj-18", 0 ],
													"source" : [ "obj-19", 0 ]
												}

											}
, 											{
												"patchline" : 												{
													"destination" : [ "obj-1", 0 ],
													"source" : [ "obj-2", 0 ]
												}

											}
, 											{
												"patchline" : 												{
													"destination" : [ "obj-24", 0 ],
													"source" : [ "obj-22", 0 ]
												}

											}
, 											{
												"patchline" : 												{
													"destination" : [ "obj-22", 0 ],
													"source" : [ "obj-23", 0 ]
												}

											}
, 											{
												"patchline" : 												{
													"destination" : [ "obj-27", 0 ],
													"source" : [ "obj-25", 0 ]
												}

											}
, 											{
												"patchline" : 												{
													"destination" : [ "obj-25", 0 ],
													"source" : [ "obj-26", 0 ]
												}

											}
, 											{
												"patchline" : 												{
													"destination" : [ "obj-30", 0 ],
													"source" : [ "obj-28", 0 ]
												}

											}
, 											{
												"patchline" : 												{
													"destination" : [ "obj-28", 0 ],
													"source" : [ "obj-29", 0 ]
												}

											}
, 											{
												"patchline" : 												{
													"destination" : [ "obj-33", 0 ],
													"source" : [ "obj-31", 0 ]
												}

											}
, 											{
												"patchline" : 												{
													"destination" : [ "obj-31", 0 ],
													"source" : [ "obj-32", 0 ]
												}

											}
, 											{
												"patchline" : 												{
													"destination" : [ "obj-36", 0 ],
													"source" : [ "obj-34", 0 ]
												}

											}
, 											{
												"patchline" : 												{
													"destination" : [ "obj-34", 0 ],
													"source" : [ "obj-35", 0 ]
												}

											}
, 											{
												"patchline" : 												{
													"destination" : [ "obj-39", 0 ],
													"source" : [ "obj-37", 0 ]
												}

											}
, 											{
												"patchline" : 												{
													"destination" : [ "obj-37", 0 ],
													"source" : [ "obj-38", 0 ]
												}

											}
, 											{
												"patchline" : 												{
													"destination" : [ "obj-6", 0 ],
													"source" : [ "obj-4", 0 ]
												}

											}
, 											{
												"patchline" : 												{
													"destination" : [ "obj-42", 0 ],
													"source" : [ "obj-40", 0 ]
												}

											}
, 											{
												"patchline" : 												{
													"destination" : [ "obj-40", 0 ],
													"source" : [ "obj-41", 0 ]
												}

											}
, 											{
												"patchline" : 												{
													"destination" : [ "obj-45", 0 ],
													"source" : [ "obj-43", 0 ]
												}

											}
, 											{
												"patchline" : 												{
													"destination" : [ "obj-43", 0 ],
													"source" : [ "obj-44", 0 ]
												}

											}
, 											{
												"patchline" : 												{
													"destination" : [ "obj-1", 1 ],
													"order" : 13,
													"source" : [ "obj-46", 0 ]
												}

											}
, 											{
												"patchline" : 												{
													"destination" : [ "obj-10", 1 ],
													"order" : 10,
													"source" : [ "obj-46", 0 ]
												}

											}
, 											{
												"patchline" : 												{
													"destination" : [ "obj-13", 1 ],
													"order" : 9,
													"source" : [ "obj-46", 0 ]
												}

											}
, 											{
												"patchline" : 												{
													"destination" : [ "obj-16", 1 ],
													"order" : 8,
													"source" : [ "obj-46", 0 ]
												}

											}
, 											{
												"patchline" : 												{
													"destination" : [ "obj-18", 1 ],
													"order" : 14,
													"source" : [ "obj-46", 0 ]
												}

											}
, 											{
												"patchline" : 												{
													"destination" : [ "obj-22", 1 ],
													"order" : 7,
													"source" : [ "obj-46", 0 ]
												}

											}
, 											{
												"patchline" : 												{
													"destination" : [ "obj-25", 1 ],
													"order" : 6,
													"source" : [ "obj-46", 0 ]
												}

											}
, 											{
												"patchline" : 												{
													"destination" : [ "obj-28", 1 ],
													"order" : 5,
													"source" : [ "obj-46", 0 ]
												}

											}
, 											{
												"patchline" : 												{
													"destination" : [ "obj-31", 1 ],
													"order" : 4,
													"source" : [ "obj-46", 0 ]
												}

											}
, 											{
												"patchline" : 												{
													"destination" : [ "obj-34", 1 ],
													"order" : 3,
													"source" : [ "obj-46", 0 ]
												}

											}
, 											{
												"patchline" : 												{
													"destination" : [ "obj-37", 1 ],
													"order" : 2,
													"source" : [ "obj-46", 0 ]
												}

											}
, 											{
												"patchline" : 												{
													"destination" : [ "obj-4", 1 ],
													"order" : 12,
													"source" : [ "obj-46", 0 ]
												}

											}
, 											{
												"patchline" : 												{
													"destination" : [ "obj-40", 1 ],
													"order" : 1,
													"source" : [ "obj-46", 0 ]
												}

											}
, 											{
												"patchline" : 												{
													"destination" : [ "obj-43", 1 ],
													"order" : 0,
													"source" : [ "obj-46", 0 ]
												}

											}
, 											{
												"patchline" : 												{
													"destination" : [ "obj-7", 1 ],
													"order" : 11,
													"source" : [ "obj-46", 0 ]
												}

											}
, 											{
												"patchline" : 												{
													"destination" : [ "obj-55", 0 ],
													"source" : [ "obj-47", 0 ]
												}

											}
, 											{
												"patchline" : 												{
													"destination" : [ "obj-54", 0 ],
													"source" : [ "obj-48", 0 ]
												}

											}
, 											{
												"patchline" : 												{
													"destination" : [ "obj-50", 1 ],
													"source" : [ "obj-49", 0 ]
												}

											}
, 											{
												"patchline" : 												{
													"destination" : [ "obj-4", 0 ],
													"source" : [ "obj-5", 0 ]
												}

											}
, 											{
												"patchline" : 												{
													"destination" : [ "obj-52", 0 ],
													"source" : [ "obj-50", 0 ]
												}

											}
, 											{
												"patchline" : 												{
													"destination" : [ "obj-50", 0 ],
													"source" : [ "obj-51", 0 ]
												}

											}
, 											{
												"patchline" : 												{
													"destination" : [ "obj-49", 0 ],
													"source" : [ "obj-54", 0 ]
												}

											}
, 											{
												"patchline" : 												{
													"destination" : [ "obj-46", 0 ],
													"source" : [ "obj-55", 0 ]
												}

											}
, 											{
												"patchline" : 												{
													"destination" : [ "obj-9", 0 ],
													"source" : [ "obj-7", 0 ]
												}

											}
, 											{
												"patchline" : 												{
													"destination" : [ "obj-7", 0 ],
													"source" : [ "obj-8", 0 ]
												}

											}
 ]
									}
,
									"patching_rect" : [ 69.0, 378.0, 287.600006, 22.0 ],
									"presentation_rect" : [ 69.0, 378.0, 287.600006, 22.0 ],
									"saved_object_attributes" : 									{
										"description" : "",
										"digest" : "",
										"globalpatchername" : "",
										"style" : "",
										"tags" : ""
									}
,
									"style" : "",
									"text" : "p"
								}

							}
, 							{
								"box" : 								{
									"id" : "obj-32",
									"maxclass" : "message",
									"numinlets" : 2,
									"numoutlets" : 1,
									"outlettype" : [ "" ],
									"patching_rect" : [ 499.0, 206.0, 78.0, 22.0 ],
									"presentation_rect" : [ 499.0, 206.0, 78.0, 22.0 ],
									"style" : "",
									"text" : "center_curve"
								}

							}
, 							{
								"box" : 								{
									"id" : "obj-30",
									"maxclass" : "message",
									"numinlets" : 2,
									"numoutlets" : 1,
									"outlettype" : [ "" ],
									"patching_rect" : [ 633.0, 63.0, 55.0, 22.0 ],
									"presentation_rect" : [ 633.0, 63.0, 55.0, 22.0 ],
									"style" : "",
									"text" : "$3 $4 $5"
								}

							}
, 							{
								"box" : 								{
									"fontface" : 0,
									"fontsize" : 12.0,
									"id" : "obj-13",
									"linecount" : 11,
									"maxclass" : "o.compose",
									"numinlets" : 2,
									"numoutlets" : 1,
									"outlettype" : [ "" ],
									"patching_rect" : [ 215.0, 493.0, 316.0, 160.0 ],
									"presentation_linecount" : 11,
									"presentation_rect" : [ 215.0, 493.0, 316.0, 160.0 ],
									"saved_bundle_data" : [ 35, 98, 117, 110, 100, 108, 101, 0, 0, 0, 0, 0, 0, 0, 0, 0, 0, 0, 0, 40, 47, 97, 101, 100, 0, 0, 0, 0, 44, 100, 100, 100, 0, 0, 0, 0, -64, 72, -76, -12, -83, -70, -126, 104, 0, 0, 0, 0, 0, 0, 0, 0, 63, -16, 25, -38, 35, -1, -54, 97, 0, 0, 0, 24, 47, 99, 101, 110, 116, 101, 114, 95, 115, 105, 122, 101, 0, 0, 0, 0, 44, 105, 0, 0, 0, 0, 0, 1, 0, 0, 0, 20, 47, 97, 101, 100, 95, 115, 99, 97, 108, 101, 0, 0, 44, 105, 0, 0, 0, 0, 0, 10, 0, 0, 0, 24, 47, 115, 95, 99, 101, 110, 116, 101, 114, 95, 115, 105, 122, 101, 0, 0, 44, 105, 0, 0, 0, 0, 0, 1, 0, 0, 0, 20, 47, 100, 105, 115, 116, 0, 0, 0, 44, 100, 0, 0, 64, 36, 32, 80, -84, -1, -68, -7, 0, 0, 0, 20, 47, 100, 105, 115, 116, 95, 97, 116, 116, 0, 0, 0, 44, 105, 0, 0, 0, 0, 0, 1, 0, 0, 0, 24, 47, 100, 98, 95, 117, 110, 105, 116, 0, 0, 0, 0, 44, 100, 0, 0, -65, -8, 0, 0, 0, 0, 0, 0, 0, 0, 0, 20, 47, 103, 95, 103, 97, 105, 110, 0, 44, 100, 0, 0, 63, -54, -62, 103, -58, -52, 81, 5, 0, 0, 0, 20, 47, 119, 95, 103, 97, 105, 110, 0, 44, 100, 0, 0, 63, -54, -62, 103, -58, -52, 81, 5, 0, 0, 0, 20, 47, 102, 108, 105, 112, 48, 0, 0, 44, 100, 0, 0, 64, 19, 34, 42, -41, -26, -23, -101, 0, 0, 0, 20, 47, 102, 108, 105, 112, 49, 0, 0, 44, 100, 0, 0, 64, 19, 34, 42, -41, -26, -23, -101 ],
									"saved_bundle_length" : 312,
									"text" : "/aed : [-49.4137, 0., 1.00631],\n/center_size : 1,\n/aed_scale : 10,\n/s_center_size : 1,\n/dist : 10.0631,\n/dist_att : 1,\n/db_unit : -1.5,\n/g_gain : 0.209058,\n/w_gain : 0.209058,\n/flip0 : 4.78337,\n/flip1 : 4.78337"
								}

							}
, 							{
								"box" : 								{
									"id" : "obj-12",
									"maxclass" : "newobj",
									"numinlets" : 3,
									"numoutlets" : 1,
									"outlettype" : [ "FullPacket" ],
									"patching_rect" : [ 633.0, 100.0, 227.0, 22.0 ],
									"presentation_rect" : [ 633.0, 100.0, 227.0, 22.0 ],
									"style" : "",
									"text" : "o.pack /aed /center_size 1 /aed_scale 10"
								}

							}
, 							{
								"box" : 								{
									"format" : 6,
									"id" : "obj-11",
									"maxclass" : "flonum",
									"minimum" : 0.0,
									"numinlets" : 1,
									"numoutlets" : 2,
									"outlettype" : [ "", "bang" ],
									"parameter_enable" : 0,
									"patching_rect" : [ 348.0, 47.0, 128.0, 22.0 ],
									"presentation_rect" : [ 348.0, 47.0, 128.0, 22.0 ],
									"style" : ""
								}

							}
, 							{
								"box" : 								{
									"id" : "obj-9",
									"maxclass" : "message",
									"numinlets" : 2,
									"numoutlets" : 1,
									"outlettype" : [ "" ],
									"patching_rect" : [ 348.0, 78.0, 82.0, 22.0 ],
									"presentation_rect" : [ 348.0, 78.0, 82.0, 22.0 ],
									"style" : "",
									"text" : "aed 1 45 0 $1"
								}

							}
, 							{
								"box" : 								{
									"id" : "obj-7",
									"maxclass" : "newobj",
									"numinlets" : 1,
									"numoutlets" : 1,
									"outlettype" : [ "signal" ],
									"patching_rect" : [ 46.0, 224.0, 41.0, 22.0 ],
									"presentation_rect" : [ 46.0, 224.0, 41.0, 22.0 ],
									"style" : "",
									"text" : "sig~ 1"
								}

							}
, 							{
								"box" : 								{
									"fontface" : 0,
									"fontsize" : 12.0,
									"id" : "obj-4",
									"linecount" : 21,
									"maxclass" : "o.expr.codebox",
									"numinlets" : 1,
									"numoutlets" : 2,
									"outlettype" : [ "FullPacket", "FullPacket" ],
									"patching_rect" : [ 633.0, 131.0, 738.0, 304.0 ],
									"presentation_linecount" : 21,
									"presentation_rect" : [ 633.0, 131.0, 738.0, 304.0 ],
									"text" : "/aed_scale ??= 10.,\n/s_center_size ??= 1,\n\n/dist = /aed[[2]] * /aed_scale,\n\n/dist_att = 1,\n/db_unit = 1.5 * -1,\n\nif( /dist < /s_center_size,\n  progn(    \n    /g_gain = abs(1 - /s_center_size - (/dist * /dist)),\n    /w_gain = 1\n  ),\n  progn(\n    /g_gain = pow(10., (/dist - /s_center_size) * /db_unit * 0.05),\n    /w_gain = /g_gain \n  )\n),\n\n/flip0 = 1. / /w_gain ,\n/flip1 = /g_gain == 0 ? 0. : 1. / /g_gain"
								}

							}
, 							{
								"box" : 								{
									"id" : "obj-2",
									"maxclass" : "ambimonitor",
									"numinlets" : 1,
									"numoutlets" : 3,
									"outlettype" : [ "", "", "" ],
									"patching_rect" : [ 90.0, 47.0, 148.0, 148.0 ],
									"presentation_rect" : [ 90.0, 47.0, 148.0, 148.0 ]
								}

							}
, 							{
								"box" : 								{
									"id" : "obj-1",
									"maxclass" : "newobj",
									"numinlets" : 1,
									"numoutlets" : 16,
									"outlettype" : [ "signal", "signal", "signal", "signal", "signal", "signal", "signal", "signal", "signal", "signal", "signal", "signal", "signal", "signal", "signal", "signal" ],
									"patching_rect" : [ 72.000008, 298.0, 256.0, 22.0 ],
									"presentation_rect" : [ 72.000008, 298.0, 256.0, 22.0 ],
									"saved_object_attributes" : 									{
										"active" : [ 1 ],
										"aed_scale" : 10.0,
										"center_att_db" : 6.0,
										"center_curve" : 0.2,
										"center_size" : 1.0,
										"coord_angles" : 0,
										"coord_system" : 0,
										"db_unit" : 1.5,
										"dist_att" : 1.0,
										"distance_mode" : 0,
										"gain" : 1.0,
										"interpolation" : 1,
										"order" : 3,
										"type" : 2,
										"xyz_scale" : 10.0
									}
,
									"style" : "",
									"text" : "ambiencode~ 3 1 @type 2 @distance_mode 0"
								}

							}
, 							{
								"box" : 								{
									"attr" : "distance_mode",
									"id" : "obj-3",
									"maxclass" : "attrui",
									"numinlets" : 1,
									"numoutlets" : 1,
									"outlettype" : [ "" ],
									"patching_rect" : [ 97.0, 236.0, 150.0, 22.0 ],
									"presentation_rect" : [ 97.0, 236.0, 150.0, 22.0 ],
									"style" : ""
								}

							}
, 							{
								"box" : 								{
									"attr" : "aed_scale",
									"id" : "obj-5",
									"maxclass" : "attrui",
									"numinlets" : 1,
									"numoutlets" : 1,
									"outlettype" : [ "" ],
									"patching_rect" : [ 261.0, 236.0, 150.0, 22.0 ],
									"presentation_rect" : [ 261.0, 236.0, 150.0, 22.0 ],
									"style" : ""
								}

							}
 ],
						"lines" : [ 							{
								"patchline" : 								{
									"destination" : [ "obj-21", 15 ],
									"source" : [ "obj-1", 15 ]
								}

							}
, 							{
								"patchline" : 								{
									"destination" : [ "obj-21", 14 ],
									"source" : [ "obj-1", 14 ]
								}

							}
, 							{
								"patchline" : 								{
									"destination" : [ "obj-21", 13 ],
									"source" : [ "obj-1", 13 ]
								}

							}
, 							{
								"patchline" : 								{
									"destination" : [ "obj-21", 12 ],
									"source" : [ "obj-1", 12 ]
								}

							}
, 							{
								"patchline" : 								{
									"destination" : [ "obj-21", 11 ],
									"source" : [ "obj-1", 11 ]
								}

							}
, 							{
								"patchline" : 								{
									"destination" : [ "obj-21", 10 ],
									"source" : [ "obj-1", 10 ]
								}

							}
, 							{
								"patchline" : 								{
									"destination" : [ "obj-21", 9 ],
									"source" : [ "obj-1", 9 ]
								}

							}
, 							{
								"patchline" : 								{
									"destination" : [ "obj-21", 8 ],
									"source" : [ "obj-1", 8 ]
								}

							}
, 							{
								"patchline" : 								{
									"destination" : [ "obj-21", 7 ],
									"source" : [ "obj-1", 7 ]
								}

							}
, 							{
								"patchline" : 								{
									"destination" : [ "obj-21", 6 ],
									"source" : [ "obj-1", 6 ]
								}

							}
, 							{
								"patchline" : 								{
									"destination" : [ "obj-21", 5 ],
									"source" : [ "obj-1", 5 ]
								}

							}
, 							{
								"patchline" : 								{
									"destination" : [ "obj-21", 4 ],
									"source" : [ "obj-1", 4 ]
								}

							}
, 							{
								"patchline" : 								{
									"destination" : [ "obj-21", 3 ],
									"source" : [ "obj-1", 3 ]
								}

							}
, 							{
								"patchline" : 								{
									"destination" : [ "obj-21", 2 ],
									"source" : [ "obj-1", 2 ]
								}

							}
, 							{
								"patchline" : 								{
									"destination" : [ "obj-21", 1 ],
									"source" : [ "obj-1", 1 ]
								}

							}
, 							{
								"patchline" : 								{
									"destination" : [ "obj-21", 0 ],
									"source" : [ "obj-1", 0 ]
								}

							}
, 							{
								"patchline" : 								{
									"destination" : [ "obj-9", 0 ],
									"source" : [ "obj-11", 0 ]
								}

							}
, 							{
								"patchline" : 								{
									"destination" : [ "obj-4", 0 ],
									"source" : [ "obj-12", 0 ]
								}

							}
, 							{
								"patchline" : 								{
									"destination" : [ "obj-1", 0 ],
									"order" : 1,
									"source" : [ "obj-2", 0 ]
								}

							}
, 							{
								"patchline" : 								{
									"destination" : [ "obj-30", 0 ],
									"order" : 0,
									"source" : [ "obj-2", 0 ]
								}

							}
, 							{
								"patchline" : 								{
									"destination" : [ "obj-12", 1 ],
									"order" : 0,
									"source" : [ "obj-26", 0 ]
								}

							}
, 							{
								"patchline" : 								{
									"destination" : [ "obj-29", 0 ],
									"order" : 1,
									"source" : [ "obj-26", 0 ]
								}

							}
, 							{
								"patchline" : 								{
									"destination" : [ "obj-12", 2 ],
									"order" : 0,
									"source" : [ "obj-27", 0 ]
								}

							}
, 							{
								"patchline" : 								{
									"destination" : [ "obj-29", 0 ],
									"order" : 1,
									"source" : [ "obj-27", 0 ]
								}

							}
, 							{
								"patchline" : 								{
									"destination" : [ "obj-12", 0 ],
									"source" : [ "obj-29", 0 ]
								}

							}
, 							{
								"patchline" : 								{
									"destination" : [ "obj-1", 0 ],
									"source" : [ "obj-3", 0 ]
								}

							}
, 							{
								"patchline" : 								{
									"destination" : [ "obj-12", 0 ],
									"source" : [ "obj-30", 0 ]
								}

							}
, 							{
								"patchline" : 								{
									"destination" : [ "obj-21", 17 ],
									"source" : [ "obj-33", 1 ]
								}

							}
, 							{
								"patchline" : 								{
									"destination" : [ "obj-21", 16 ],
									"source" : [ "obj-33", 0 ]
								}

							}
, 							{
								"patchline" : 								{
									"destination" : [ "obj-13", 1 ],
									"order" : 0,
									"source" : [ "obj-4", 0 ]
								}

							}
, 							{
								"patchline" : 								{
									"destination" : [ "obj-33", 0 ],
									"order" : 1,
									"source" : [ "obj-4", 0 ]
								}

							}
, 							{
								"patchline" : 								{
									"destination" : [ "obj-1", 0 ],
									"source" : [ "obj-5", 0 ]
								}

							}
, 							{
								"patchline" : 								{
									"destination" : [ "obj-1", 0 ],
									"source" : [ "obj-7", 0 ]
								}

							}
, 							{
								"patchline" : 								{
									"destination" : [ "obj-2", 0 ],
									"source" : [ "obj-9", 0 ]
								}

							}
 ]
					}
,
					"patching_rect" : [ 491.0, 72.0, 100.0, 22.0 ],
					"presentation_rect" : [ 491.0, 72.0, 100.0, 22.0 ],
					"saved_object_attributes" : 					{
						"description" : "",
						"digest" : "",
						"globalpatchername" : "",
						"style" : "",
						"tags" : ""
					}
,
					"style" : "",
					"text" : "p new"
				}

			}
, 			{
				"box" : 				{
					"id" : "obj-32",
					"maxclass" : "message",
					"numinlets" : 2,
					"numoutlets" : 1,
					"outlettype" : [ "" ],
					"patching_rect" : [ 499.0, 206.0, 78.0, 22.0 ],
					"presentation_rect" : [ 499.0, 206.0, 78.0, 22.0 ],
					"style" : "",
					"text" : "center_curve"
				}

			}
, 			{
				"box" : 				{
					"id" : "obj-30",
					"maxclass" : "message",
					"numinlets" : 2,
					"numoutlets" : 1,
					"outlettype" : [ "" ],
					"patching_rect" : [ 510.0, 139.0, 55.0, 22.0 ],
					"presentation_rect" : [ 510.0, 139.0, 55.0, 22.0 ],
					"style" : "",
					"text" : "$3 $4 $5"
				}

			}
, 			{
				"box" : 				{
					"id" : "obj-26",
					"maxclass" : "message",
					"numinlets" : 2,
					"numoutlets" : 1,
					"outlettype" : [ "" ],
					"patching_rect" : [ 238.0, 452.5, 50.0, 22.0 ],
					"presentation_rect" : [ 238.0, 452.5, 50.0, 22.0 ],
					"style" : "",
					"text" : "$3"
				}

			}
, 			{
				"box" : 				{
					"fontface" : 0,
					"fontname" : "Arial",
					"fontsize" : 12.0,
					"id" : "obj-23",
					"maxclass" : "number~",
					"mode" : 2,
					"numinlets" : 2,
					"numoutlets" : 2,
					"outlettype" : [ "signal", "float" ],
					"patching_rect" : [ 123.5, 471.0, 56.0, 22.0 ],
					"presentation_rect" : [ 123.5, 471.0, 56.0, 22.0 ],
					"sig" : 0.0,
					"style" : ""
				}

			}
, 			{
				"box" : 				{
					"fontface" : 0,
					"fontname" : "Arial",
					"fontsize" : 12.0,
					"id" : "obj-22",
					"maxclass" : "number~",
					"mode" : 2,
					"numinlets" : 2,
					"numoutlets" : 2,
					"outlettype" : [ "signal", "float" ],
					"patching_rect" : [ 46.0, 476.0, 56.0, 22.0 ],
					"presentation_rect" : [ 46.0, 476.0, 56.0, 22.0 ],
					"sig" : 0.0,
					"style" : ""
				}

			}
, 			{
				"box" : 				{
					"id" : "obj-21",
					"maxclass" : "newobj",
					"numinlets" : 2,
					"numoutlets" : 1,
					"outlettype" : [ "signal" ],
					"patching_rect" : [ 123.5, 415.0, 29.5, 22.0 ],
					"presentation_rect" : [ 123.5, 415.0, 29.5, 22.0 ],
					"style" : "",
					"text" : "*~"
				}

			}
, 			{
				"box" : 				{
					"id" : "obj-20",
					"maxclass" : "newobj",
					"numinlets" : 2,
					"numoutlets" : 1,
					"outlettype" : [ "signal" ],
					"patching_rect" : [ 57.5, 415.0, 29.5, 22.0 ],
					"presentation_rect" : [ 57.5, 415.0, 29.5, 22.0 ],
					"style" : "",
					"text" : "*~"
				}

			}
, 			{
				"box" : 				{
					"id" : "obj-19",
					"maxclass" : "newobj",
					"numinlets" : 1,
					"numoutlets" : 3,
					"outlettype" : [ "", "", "FullPacket" ],
					"patching_rect" : [ 226.0, 396.0, 103.0, 22.0 ],
					"presentation_rect" : [ 226.0, 396.0, 103.0, 22.0 ],
					"style" : "",
					"text" : "o.route /flip0 /flip1"
				}

			}
, 			{
				"box" : 				{
					"fontface" : 0,
					"fontname" : "Arial",
					"fontsize" : 12.0,
					"id" : "obj-17",
					"maxclass" : "number~",
					"mode" : 2,
					"numinlets" : 2,
					"numoutlets" : 2,
					"outlettype" : [ "signal", "float" ],
					"patching_rect" : [ 232.0, 351.0, 56.0, 22.0 ],
					"presentation_rect" : [ 232.0, 351.0, 56.0, 22.0 ],
					"sig" : 0.0,
					"style" : ""
				}

			}
, 			{
				"box" : 				{
					"fontface" : 0,
					"fontname" : "Arial",
					"fontsize" : 12.0,
					"id" : "obj-16",
					"maxclass" : "number~",
					"mode" : 2,
					"numinlets" : 2,
					"numoutlets" : 2,
					"outlettype" : [ "signal", "float" ],
					"patching_rect" : [ 165.0, 351.0, 56.0, 22.0 ],
					"presentation_rect" : [ 165.0, 351.0, 56.0, 22.0 ],
					"sig" : 0.0,
					"style" : ""
				}

			}
, 			{
				"box" : 				{
					"fontface" : 0,
					"fontname" : "Arial",
					"fontsize" : 12.0,
					"id" : "obj-15",
					"maxclass" : "number~",
					"mode" : 2,
					"numinlets" : 2,
					"numoutlets" : 2,
					"outlettype" : [ "signal", "float" ],
					"patching_rect" : [ 97.0, 351.0, 56.0, 22.0 ],
					"presentation_rect" : [ 97.0, 351.0, 56.0, 22.0 ],
					"sig" : 0.0,
					"style" : ""
				}

			}
, 			{
				"box" : 				{
					"fontface" : 0,
					"fontname" : "Arial",
					"fontsize" : 12.0,
					"id" : "obj-14",
					"maxclass" : "number~",
					"mode" : 2,
					"numinlets" : 2,
					"numoutlets" : 2,
					"outlettype" : [ "signal", "float" ],
					"patching_rect" : [ 31.0, 351.0, 56.0, 22.0 ],
					"presentation_rect" : [ 31.0, 351.0, 56.0, 22.0 ],
					"sig" : 0.0,
					"style" : ""
				}

			}
, 			{
				"box" : 				{
					"fontface" : 0,
					"fontsize" : 12.0,
					"id" : "obj-13",
					"linecount" : 25,
					"maxclass" : "o.compose",
					"numinlets" : 2,
					"numoutlets" : 1,
					"outlettype" : [ "" ],
					"patching_rect" : [ 348.0, 374.0, 316.0, 350.0 ],
					"presentation_linecount" : 25,
					"presentation_rect" : [ 348.0, 374.0, 316.0, 350.0 ],
					"saved_bundle_data" : [ 35, 98, 117, 110, 100, 108, 101, 0, 0, 0, 0, 0, 0, 0, 0, 0, 0, 0, 0, 40, 47, 97, 101, 100, 0, 0, 0, 0, 44, 100, 100, 100, 0, 0, 0, 0, 64, 95, -115, -51, -72, 40, 38, -6, 0, 0, 0, 0, 0, 0, 0, 0, 63, -37, -40, -79, -26, 86, -11, -118, 0, 0, 0, 16, 47, 97, 122, 0, 44, 100, 0, 0, -64, 1, -97, 127, 33, -78, 7, 28, 0, 0, 0, 16, 47, 101, 108, 0, 44, 100, 0, 0, 0, 0, 0, 0, 0, 0, 0, 0, 0, 0, 0, 20, 47, 100, 105, 115, 116, 0, 0, 0, 44, 100, 0, 0, 64, 17, 103, 111, 47, -10, 89, 118, 0, 0, 0, 28, 47, 115, 110, 51, 100, 95, 102, 97, 99, 116, 111, 114, 47, 49, 0, 0, 44, 100, 0, 0, 63, -30, 121, -90, -75, 11, 15, 40, 0, 0, 0, 28, 47, 110, 51, 100, 95, 102, 97, 99, 116, 111, 114, 47, 49, 0, 0, 0, 44, 100, 0, 0, 63, -5, -74, 122, 15, -112, -106, -68, 0, 0, 0, 24, 47, 97, 101, 100, 95, 115, 99, 97, 108, 101, 0, 0, 44, 100, 0, 0, 64, 36, 0, 0, 0, 0, 0, 0, 0, 0, 0, 24, 47, 115, 95, 99, 101, 110, 116, 101, 114, 95, 115, 105, 122, 101, 0, 0, 44, 105, 0, 0, 0, 0, 0, 1, 0, 0, 0, 28, 47, 115, 95, 99, 101, 110, 116, 101, 114, 95, 97, 116, 116, 95, 100, 98, 0, 0, 0, 0, 44, 105, 0, 0, 0, 0, 0, 6, 0, 0, 0, 20, 47, 100, 105, 115, 116, 95, 97, 116, 116, 0, 0, 0, 44, 105, 0, 0, 0, 0, 0, 1, 0, 0, 0, 24, 47, 100, 98, 95, 117, 110, 105, 116, 0, 0, 0, 0, 44, 100, 0, 0, -65, -8, 0, 0, 0, 0, 0, 0, 0, 0, 0, 28, 47, 115, 95, 99, 101, 110, 116, 101, 114, 95, 99, 117, 114, 118, 101, 0, 44, 100, 0, 0, 63, -55, -103, -103, -103, -103, -103, -102, 0, 0, 0, 28, 47, 115, 95, 99, 101, 110, 116, 101, 114, 95, 115, 105, 122, 101, 50, 0, 44, 100, 0, 0, 63, -16, 0, 0, 0, 0, 0, 0, 0, 0, 0, 28, 47, 115, 95, 99, 101, 110, 116, 101, 114, 95, 97, 116, 116, 0, 0, 0, 44, 100, 0, 0, 63, -32, 9, -71, -49, 51, 66, 82, 0, 0, 0, 28, 47, 115, 95, 99, 101, 110, 116, 101, 114, 95, 97, 116, 116, 50, 0, 0, 44, 100, 0, 0, 63, -33, -20, -116, 97, -103, 123, 92, 0, 0, 0, 20, 47, 103, 95, 103, 97, 105, 110, 0, 44, 100, 0, 0, 63, -31, -16, -88, -86, -8, 46, -45, 0, 0, 0, 20, 47, 119, 95, 103, 97, 105, 110, 0, 44, 100, 0, 0, 63, -31, -16, -88, -86, -8, 46, -45, 0, 0, 0, 24, 47, 99, 111, 115, 95, 101, 108, 101, 0, 0, 0, 0, 44, 100, 0, 0, 63, -16, 0, 0, 0, 0, 0, 0, 0, 0, 0, 24, 47, 115, 105, 110, 95, 101, 108, 101, 0, 0, 0, 0, 44, 100, 0, 0, 0, 0, 0, 0, 0, 0, 0, 0, 0, 0, 0, 20, 47, 99, 111, 115, 95, 97, 122, 0, 44, 100, 0, 0, -65, -30, -24, 12, -7, -16, 77, 111, 0, 0, 0, 20, 47, 115, 105, 110, 95, 97, 122, 0, 44, 100, 0, 0, -65, -23, -47, 75, 98, 21, 110, 108, 0, 0, 0, 16, 47, 48, 111, 0, 44, 100, 0, 0, 63, -31, -16, -88, -86, -8, 46, -45, 0, 0, 0, 36, 47, 49, 111, 0, 44, 100, 100, 100, 0, 0, 0, 0, -65, -36, -14, -79, -25, -117, 41, -26, 0, 0, 0, 0, 0, 0, 0, 0, -65, -43, 50, -20, -113, 28, 124, -81, 0, 0, 0, 20, 47, 102, 108, 105, 112, 48, 0, 0, 44, 100, 0, 0, 63, -4, -118, 25, -1, 21, 109, 26, 0, 0, 0, 40, 47, 102, 108, 105, 112, 49, 0, 0, 44, 100, 100, 100, 0, 0, 0, 0, -64, 1, -81, -42, -70, -32, -36, 82, 0, 0, 0, 0, 0, 0, 0, 0, -64, 8, 38, -12, -76, 82, 60, -43 ],
					"saved_bundle_length" : 736,
					"text" : "/aed : [126.216, 0., 0.435101],\n/az : -2.20288,\n/el : 0.,\n/dist : 4.35101,\n/sn3d_factor/1 : 0.57735,\n/n3d_factor/1 : 1.73205,\n/aed_scale : 10.,\n/s_center_size : 1,\n/s_center_att_db : 6,\n/dist_att : 1,\n/db_unit : -1.5,\n/s_center_curve : 0.2,\n/s_center_size2 : 1.,\n/s_center_att : 0.501187,\n/s_center_att2 : 0.498813,\n/g_gain : 0.560627,\n/w_gain : 0.560627,\n/cos_ele : 1.,\n/sin_ele : 0.,\n/cos_az : -0.590827,\n/sin_az : -0.806799,\n/0o : 0.560627,\n/1o : [-0.452313, 0., -0.331233],\n/flip0 : 1.78372,\n/flip1 : [-2.21086, 0., -3.01902]"
				}

			}
, 			{
				"box" : 				{
					"id" : "obj-12",
					"maxclass" : "newobj",
					"numinlets" : 1,
					"numoutlets" : 1,
					"outlettype" : [ "FullPacket" ],
					"patching_rect" : [ 652.0, 43.0, 100.0, 22.0 ],
					"presentation_rect" : [ 652.0, 43.0, 100.0, 22.0 ],
					"style" : "",
					"text" : "o.pack /aed"
				}

			}
, 			{
				"box" : 				{
					"format" : 6,
					"id" : "obj-11",
					"maxclass" : "flonum",
					"minimum" : 0.0,
					"numinlets" : 1,
					"numoutlets" : 2,
					"outlettype" : [ "", "bang" ],
					"parameter_enable" : 0,
					"patching_rect" : [ 348.0, 47.0, 128.0, 22.0 ],
					"presentation_rect" : [ 348.0, 47.0, 128.0, 22.0 ],
					"style" : ""
				}

			}
, 			{
				"box" : 				{
					"id" : "obj-9",
					"maxclass" : "message",
					"numinlets" : 2,
					"numoutlets" : 1,
					"outlettype" : [ "" ],
					"patching_rect" : [ 348.0, 78.0, 82.0, 22.0 ],
					"presentation_rect" : [ 348.0, 78.0, 82.0, 22.0 ],
					"style" : "",
					"text" : "aed 1 45 0 $1"
				}

			}
, 			{
				"box" : 				{
					"id" : "obj-7",
					"maxclass" : "newobj",
					"numinlets" : 1,
					"numoutlets" : 1,
					"outlettype" : [ "signal" ],
					"patching_rect" : [ 46.0, 224.0, 41.0, 22.0 ],
					"presentation_rect" : [ 46.0, 224.0, 41.0, 22.0 ],
					"style" : "",
					"text" : "sig~ 1"
				}

			}
, 			{
				"box" : 				{
					"fontface" : 0,
					"fontsize" : 12.0,
					"id" : "obj-4",
					"linecount" : 45,
					"maxclass" : "o.expr.codebox",
					"numinlets" : 1,
					"numoutlets" : 2,
					"outlettype" : [ "FullPacket", "FullPacket" ],
					"patching_rect" : [ 663.0, 71.0, 738.0, 630.0 ],
					"presentation_linecount" : 45,
					"presentation_rect" : [ 663.0, 71.0, 738.0, 630.0 ],
					"text" : "/az = /aed[[0]] * -0.0174532925199432,\n/el = /aed[[1]] * 0.0174532925199432,\n\n/dist = /aed[[2]],\n\n/sn3d_factor/1 = 0.57735,\n/n3d_factor/1 = 1.73205,\n\n/aed_scale = 10.,\n/s_center_size = 1,\n/s_center_att_db = 6,\n/dist_att = 1,\n/db_unit = 1.5 * -1,\n/s_center_curve = 0.2,\n\n/dist *= /aed_scale,\n\n\n/s_center_size2 = 1. / /s_center_size,\n/s_center_att = pow(10.0, (-/s_center_att_db / 20.)),\n/s_center_att2 = 1.0 - /s_center_att,\n\nif( /dist < /s_center_size,\n  progn(\n    \n    /w_gain = /s_center_size - (/dist * /dist),\n    /g_gain = (pow((/dist * /s_center_size2), /s_center_curve) * /s_center_att2) + /s_center_att\n  ),\n  progn(\n    /g_gain = pow(10., (/dist - /s_center_size) * /db_unit * 0.05),\n    /w_gain = /g_gain \n  )\n),\n\n/cos_ele = cos(/el),\n/sin_ele = sin(/el),\n/cos_az = cos(/az),\n/sin_az = sin(/az),\n\n/0o = /w_gain,\n/1o = /sn3d_factor/1 * /n3d_factor/1 * /g_gain * [/cos_ele * /sin_az, /sin_ele, /cos_ele * /cos_az ],\n\n\n/flip0 = (/0o == 0) ? 0. : 1. / /0o ,\n/flip1 = map( lambda([v],(v == 0) ? 0. : 1. / v ), /1o )"
				}

			}
, 			{
				"box" : 				{
					"id" : "obj-2",
					"maxclass" : "ambimonitor",
					"numinlets" : 1,
					"numoutlets" : 3,
					"outlettype" : [ "", "", "" ],
					"patching_rect" : [ 99.0, 71.0, 148.0, 148.0 ],
					"presentation_rect" : [ 99.0, 71.0, 148.0, 148.0 ]
				}

			}
, 			{
				"box" : 				{
					"id" : "obj-1",
					"maxclass" : "newobj",
					"numinlets" : 1,
					"numoutlets" : 16,
					"outlettype" : [ "signal", "signal", "signal", "signal", "signal", "signal", "signal", "signal", "signal", "signal", "signal", "signal", "signal", "signal", "signal", "signal" ],
					"patching_rect" : [ 72.0, 284.0, 161.5, 22.0 ],
					"presentation_rect" : [ 72.0, 284.0, 161.5, 22.0 ],
					"saved_object_attributes" : 					{
						"active" : [ 1 ],
						"aed_scale" : 10.0,
						"center_att_db" : 6.0,
						"center_curve" : 0.2,
						"center_size" : 1.0,
						"coord_angles" : 0,
						"coord_system" : 0,
						"db_unit" : 1.5,
						"dist_att" : 1.0,
						"distance_mode" : 1,
						"gain" : 1.0,
						"interpolation" : 1,
						"order" : 3,
						"type" : 2,
						"xyz_scale" : 10.0
					}
,
					"style" : "",
					"text" : "ambiencode~ 3 1 @type 2"
				}

			}
, 			{
				"box" : 				{
					"attr" : "type",
					"id" : "obj-3",
					"maxclass" : "attrui",
					"numinlets" : 1,
					"numoutlets" : 1,
					"outlettype" : [ "" ],
					"patching_rect" : [ 97.0, 236.0, 150.0, 22.0 ],
					"presentation_rect" : [ 97.0, 236.0, 150.0, 22.0 ],
					"style" : ""
				}

			}
, 			{
				"box" : 				{
					"attr" : "aed_scale",
					"id" : "obj-5",
					"maxclass" : "attrui",
					"numinlets" : 1,
					"numoutlets" : 1,
					"outlettype" : [ "" ],
					"patching_rect" : [ 287.0, 226.0, 150.0, 22.0 ],
					"presentation_rect" : [ 287.0, 226.0, 150.0, 22.0 ],
					"style" : ""
				}

			}
, 			{
				"box" : 				{
					"attr" : "center_curve",
					"id" : "obj-6",
					"maxclass" : "attrui",
					"numinlets" : 1,
					"numoutlets" : 1,
					"outlettype" : [ "" ],
					"patching_rect" : [ 287.0, 256.0, 150.0, 22.0 ],
					"presentation_rect" : [ 287.0, 256.0, 150.0, 22.0 ],
					"style" : ""
				}

			}
 ],
		"lines" : [ 			{
				"patchline" : 				{
					"destination" : [ "obj-14", 0 ],
					"order" : 1,
					"source" : [ "obj-1", 0 ]
				}

			}
, 			{
				"patchline" : 				{
					"destination" : [ "obj-15", 0 ],
					"source" : [ "obj-1", 1 ]
				}

			}
, 			{
				"patchline" : 				{
					"destination" : [ "obj-16", 0 ],
					"source" : [ "obj-1", 2 ]
				}

			}
, 			{
				"patchline" : 				{
					"destination" : [ "obj-17", 0 ],
					"order" : 0,
					"source" : [ "obj-1", 3 ]
				}

			}
, 			{
				"patchline" : 				{
					"destination" : [ "obj-20", 0 ],
					"order" : 0,
					"source" : [ "obj-1", 0 ]
				}

			}
, 			{
				"patchline" : 				{
					"destination" : [ "obj-21", 0 ],
					"order" : 1,
					"source" : [ "obj-1", 3 ]
				}

			}
, 			{
				"patchline" : 				{
					"destination" : [ "obj-9", 0 ],
					"source" : [ "obj-11", 0 ]
				}

			}
, 			{
				"patchline" : 				{
					"destination" : [ "obj-4", 0 ],
					"source" : [ "obj-12", 0 ]
				}

			}
, 			{
				"patchline" : 				{
					"destination" : [ "obj-20", 1 ],
					"source" : [ "obj-19", 0 ]
				}

			}
, 			{
				"patchline" : 				{
					"destination" : [ "obj-26", 0 ],
					"source" : [ "obj-19", 1 ]
				}

			}
, 			{
				"patchline" : 				{
					"destination" : [ "obj-1", 0 ],
					"order" : 1,
					"source" : [ "obj-2", 0 ]
				}

			}
, 			{
				"patchline" : 				{
					"destination" : [ "obj-30", 0 ],
					"order" : 0,
					"source" : [ "obj-2", 0 ]
				}

			}
, 			{
				"patchline" : 				{
					"destination" : [ "obj-22", 0 ],
					"source" : [ "obj-20", 0 ]
				}

			}
, 			{
				"patchline" : 				{
					"destination" : [ "obj-23", 0 ],
					"source" : [ "obj-21", 0 ]
				}

			}
, 			{
				"patchline" : 				{
					"destination" : [ "obj-21", 1 ],
					"source" : [ "obj-26", 0 ]
				}

			}
, 			{
				"patchline" : 				{
					"destination" : [ "obj-1", 0 ],
					"source" : [ "obj-3", 0 ]
				}

			}
, 			{
				"patchline" : 				{
					"destination" : [ "obj-12", 0 ],
					"source" : [ "obj-30", 0 ]
				}

			}
, 			{
				"patchline" : 				{
					"destination" : [ "obj-13", 1 ],
					"order" : 0,
					"source" : [ "obj-4", 0 ]
				}

			}
, 			{
				"patchline" : 				{
					"destination" : [ "obj-19", 0 ],
					"order" : 1,
					"source" : [ "obj-4", 0 ]
				}

			}
, 			{
				"patchline" : 				{
					"destination" : [ "obj-1", 0 ],
					"source" : [ "obj-5", 0 ]
				}

			}
, 			{
				"patchline" : 				{
					"destination" : [ "obj-1", 0 ],
					"source" : [ "obj-6", 0 ]
				}

			}
, 			{
				"patchline" : 				{
					"destination" : [ "obj-1", 0 ],
					"source" : [ "obj-7", 0 ]
				}

			}
, 			{
				"patchline" : 				{
					"destination" : [ "obj-2", 0 ],
					"source" : [ "obj-9", 0 ]
				}

			}
 ],
		"dependency_cache" : [ 			{
				"name" : "ambiencode~.mxo",
				"type" : "iLaX"
			}
, 			{
				"name" : "ambimonitor.mxo",
				"type" : "iLaX"
			}
, 			{
				"name" : "o.expr.codebox.mxo",
				"type" : "iLaX"
			}
, 			{
				"name" : "o.pack.mxo",
				"type" : "iLaX"
			}
, 			{
				"name" : "o.compose.mxo",
				"type" : "iLaX"
			}
, 			{
				"name" : "o.route.mxo",
				"type" : "iLaX"
			}
 ],
		"autosave" : 0
	}

}
