{
	"patcher" : 	{
		"fileversion" : 1,
		"appversion" : 		{
			"major" : 7,
			"minor" : 0,
			"revision" : 3,
			"architecture" : "x64",
			"modernui" : 1
		}
,
		"rect" : [ 100.0, 100.0, 762.0, 744.0 ],
		"bgcolor" : [ 0.93, 0.93, 0.92, 1.0 ],
		"bglocked" : 0,
		"openinpresentation" : 0,
		"default_fontsize" : 11.595187,
		"default_fontface" : 0,
		"default_fontname" : "Arial",
		"gridonopen" : 1,
		"gridsize" : [ 15.0, 15.0 ],
		"gridsnaponopen" : 1,
		"objectsnaponopen" : 1,
		"statusbarvisible" : 2,
		"toolbarvisible" : 1,
		"lefttoolbarpinned" : 0,
		"toptoolbarpinned" : 0,
		"righttoolbarpinned" : 0,
		"bottomtoolbarpinned" : 0,
		"toolbars_unpinned_last_save" : 0,
		"tallnewobj" : 0,
		"boxanimatetime" : 200,
		"enablehscroll" : 1,
		"enablevscroll" : 1,
		"devicewidth" : 0.0,
		"description" : "",
		"digest" : "",
		"tags" : "",
		"style" : "",
		"subpatcher_template" : "",
		"showrootpatcherontab" : 0,
		"showontab" : 0,
		"boxes" : [ 			{
				"box" : 				{
					"bgcolor" : [ 1.0, 1.0, 1.0, 1.0 ],
					"color" : [ 0.734694, 0.734694, 0.734694, 1.0 ],
					"fontname" : "Arial",
					"fontsize" : 12.0,
					"hidden" : 1,
					"id" : "obj-11",
					"maxclass" : "newobj",
					"numinlets" : 0,
					"numoutlets" : 0,
					"patcher" : 					{
						"fileversion" : 1,
						"appversion" : 						{
							"major" : 7,
							"minor" : 0,
							"revision" : 3,
							"architecture" : "x64",
							"modernui" : 1
						}
,
						"rect" : [ 100.0, 126.0, 762.0, 718.0 ],
						"bgcolor" : [ 0.93, 0.93, 0.92, 1.0 ],
						"bglocked" : 0,
						"openinpresentation" : 0,
						"default_fontsize" : 11.595187,
						"default_fontface" : 0,
						"default_fontname" : "Arial",
						"gridonopen" : 1,
						"gridsize" : [ 15.0, 15.0 ],
						"gridsnaponopen" : 1,
						"objectsnaponopen" : 1,
						"statusbarvisible" : 2,
						"toolbarvisible" : 1,
						"lefttoolbarpinned" : 0,
						"toptoolbarpinned" : 0,
						"righttoolbarpinned" : 0,
						"bottomtoolbarpinned" : 0,
						"toolbars_unpinned_last_save" : 0,
						"tallnewobj" : 0,
						"boxanimatetime" : 200,
						"enablehscroll" : 1,
						"enablevscroll" : 1,
						"devicewidth" : 0.0,
						"description" : "",
						"digest" : "",
						"tags" : "",
						"style" : "",
						"subpatcher_template" : "",
						"showontab" : 1,
						"boxes" : [ 							{
								"box" : 								{
									"attr" : "bgcolor",
									"fontface" : 0,
									"fontname" : "Arial",
									"fontsize" : 11.595187,
									"id" : "obj-22",
									"lock" : 1,
									"maxclass" : "attrui",
									"numinlets" : 1,
									"numoutlets" : 1,
									"outlettype" : [ "" ],
									"patching_rect" : [ 553.25, 151.0, 166.0, 21.0 ],
									"style" : "",
									"text_width" : 92.0
								}

							}
, 							{
								"box" : 								{
									"fontname" : "Arial",
									"fontsize" : 11.595187,
									"id" : "obj-21",
									"maxclass" : "newobj",
									"numinlets" : 2,
									"numoutlets" : 1,
									"outlettype" : [ "signal" ],
									"patching_rect" : [ 394.0, 185.373444, 49.0, 21.0 ],
									"style" : "",
									"text" : "hoa.pi~"
								}

							}
, 							{
								"box" : 								{
									"angles" : [ 180.0, 69.1, 159.1, 0.0, 90.0, 20.9, 135.0, 35.3, 135.0, -35.3, 180.0, -69.1, 20.9, 0.0, 90.0, -20.9, 45.0, 35.3, 45.0, -35.3, 0.0, 69.1, 200.9, 0.0, 270.0, 20.9, 225.0, 35.3, 225.0, -35.3, 0.0, -69.1, 339.1, 0.0, 270.0, -20.9, 315.0, 35.3, 315.0, -35.3 ],
									"channels" : 20.0,
									"color" : [ 1.0, 1.0, 1.0, 1.0 ],
									"id" : "obj-3",
									"interval" : 20,
									"maxclass" : "hoa.3d.meter~",
									"numinlets" : 20,
									"numoutlets" : 0,
									"offcolor" : [ 0.665046, 0.665046, 0.665046, 1.0 ],
									"overloadcolor" : [ 1.0, 0.0, 0.0, 1.0 ],
									"patching_rect" : [ 31.0, 345.929077, 382.0, 191.0 ],
									"vectors" : "both",
									"view" : "top-bottom"
								}

							}
, 							{
								"box" : 								{
									"fontname" : "Arial",
									"fontsize" : 11.595187,
									"id" : "obj-60",
									"maxclass" : "newobj",
									"numinlets" : 1,
									"numoutlets" : 1,
									"outlettype" : [ "" ],
									"patching_rect" : [ 31.0, 684.0, 90.0, 21.0 ],
									"style" : "",
									"text" : "prepend angles"
								}

							}
, 							{
								"box" : 								{
									"fontname" : "Arial",
									"fontsize" : 12.0,
									"id" : "obj-58",
									"maxclass" : "comment",
									"numinlets" : 1,
									"numoutlets" : 0,
									"patching_rect" : [ 31.0, 560.0, 170.0, 20.0 ],
									"style" : "",
									"text" : "regular dodecahedron angles",
									"textcolor" : [ 0.30292, 0.30292, 0.30292, 1.0 ],
									"varname" : "autohelp_top_description[1]"
								}

							}
, 							{
								"box" : 								{
									"angle" : 0.0,
									"bgcolor" : [ 0.94324, 0.954082, 0.954082, 1.0 ],
									"border" : 1,
									"bordercolor" : [ 0.75, 0.75, 0.75, 1.0 ],
									"id" : "obj-59",
									"maxclass" : "panel",
									"mode" : 0,
									"numinlets" : 1,
									"numoutlets" : 0,
									"patching_rect" : [ 31.0, 560.0, 170.0, 20.0 ],
									"proportion" : 0.39,
									"rounded" : 0,
									"style" : ""
								}

							}
, 							{
								"box" : 								{
									"bgcolor" : [ 0.835379, 0.835379, 0.835379, 1.0 ],
									"bgcolor2" : [ 0.835294, 0.835294, 0.835294, 1.0 ],
									"bgfillcolor_angle" : 270.0,
									"bgfillcolor_autogradient" : 0.0,
									"bgfillcolor_color" : [ 0.290196, 0.309804, 0.301961, 1.0 ],
									"bgfillcolor_color1" : [ 0.835379, 0.835379, 0.835379, 1.0 ],
									"bgfillcolor_color2" : [ 0.835294, 0.835294, 0.835294, 1.0 ],
									"bgfillcolor_proportion" : 0.39,
									"bgfillcolor_type" : "gradient",
									"fontname" : "Arial",
									"fontsize" : 7.456885,
									"gradient" : 1,
									"id" : "obj-53",
									"linecount" : 2,
									"maxclass" : "message",
									"numinlets" : 2,
									"numoutlets" : 1,
									"outlettype" : [ "" ],
									"patching_rect" : [ 31.0, 651.631897, 251.0, 25.0 ],
									"style" : "",
									"text" : "0 0 72 6 144 12 216 18 288 24 0 30 72 36 144 42 216 48 288 54 0 60 72 66 144 72 216 78 288 84 0 90 60 -33 180 -33 -60 -33",
									"textcolor" : [ 0.0, 0.0, 0.0, 1.0 ]
								}

							}
, 							{
								"box" : 								{
									"bgcolor" : [ 0.835379, 0.835379, 0.835379, 1.0 ],
									"bgcolor2" : [ 0.835294, 0.835294, 0.835294, 1.0 ],
									"bgfillcolor_angle" : 270.0,
									"bgfillcolor_autogradient" : 0.0,
									"bgfillcolor_color" : [ 0.290196, 0.309804, 0.301961, 1.0 ],
									"bgfillcolor_color1" : [ 0.835379, 0.835379, 0.835379, 1.0 ],
									"bgfillcolor_color2" : [ 0.835294, 0.835294, 0.835294, 1.0 ],
									"bgfillcolor_proportion" : 0.39,
									"bgfillcolor_type" : "gradient",
									"fontname" : "Arial",
									"fontsize" : 8.270325,
									"gradient" : 1,
									"id" : "obj-51",
									"linecount" : 4,
									"maxclass" : "message",
									"numinlets" : 2,
									"numoutlets" : 1,
									"outlettype" : [ "" ],
									"patching_rect" : [ 31.0, 592.980103, 283.0, 45.0 ],
									"style" : "",
									"text" : "180 69.094803 159.095001 0 90 20.905199 135 35.2644 135 -35.2644 180 -69.094803 20.905199 0 90 -20.905199 45 35.2644 45 -35.2644 0 69.094803 200.904999 0 270 20.905199 225 35.2644 225 -35.2644 0 -69.094803 339.095001 0 270 -20.905199 315 35.2644 315 -35.2644",
									"textcolor" : [ 0.0, 0.0, 0.0, 1.0 ]
								}

							}
, 							{
								"box" : 								{
									"attr" : "velocitycolor",
									"fontface" : 0,
									"fontname" : "Arial",
									"fontsize" : 11.595187,
									"id" : "obj-40",
									"lock" : 1,
									"maxclass" : "attrui",
									"numinlets" : 1,
									"numoutlets" : 1,
									"outlettype" : [ "" ],
									"patching_rect" : [ 553.25, 391.708313, 166.0, 21.0 ],
									"style" : "",
									"text_width" : 92.0
								}

							}
, 							{
								"box" : 								{
									"attr" : "energycolor",
									"fontface" : 0,
									"fontname" : "Arial",
									"fontsize" : 11.595187,
									"id" : "obj-41",
									"lock" : 1,
									"maxclass" : "attrui",
									"numinlets" : 1,
									"numoutlets" : 1,
									"outlettype" : [ "" ],
									"patching_rect" : [ 553.25, 365.929077, 166.0, 21.0 ],
									"style" : "",
									"text_width" : 92.0
								}

							}
, 							{
								"box" : 								{
									"attr" : "offcolor",
									"fontface" : 0,
									"fontname" : "Arial",
									"fontsize" : 11.595187,
									"id" : "obj-11",
									"lock" : 1,
									"maxclass" : "attrui",
									"numinlets" : 1,
									"numoutlets" : 1,
									"outlettype" : [ "" ],
									"patching_rect" : [ 553.25, 119.0, 166.0, 21.0 ],
									"style" : "",
									"text_width" : 92.0
								}

							}
, 							{
								"box" : 								{
									"attr" : "coldcolor",
									"fontface" : 0,
									"fontname" : "Arial",
									"fontsize" : 11.595187,
									"id" : "obj-13",
									"lock" : 1,
									"maxclass" : "attrui",
									"numinlets" : 1,
									"numoutlets" : 1,
									"outlettype" : [ "" ],
									"patching_rect" : [ 553.25, 185.373444, 166.0, 21.0 ],
									"style" : "",
									"text_width" : 92.0
								}

							}
, 							{
								"box" : 								{
									"attr" : "tepidcolor",
									"fontface" : 0,
									"fontname" : "Arial",
									"fontsize" : 11.595187,
									"id" : "obj-43",
									"lock" : 1,
									"maxclass" : "attrui",
									"numinlets" : 1,
									"numoutlets" : 1,
									"outlettype" : [ "" ],
									"patching_rect" : [ 553.25, 212.77652, 166.0, 21.0 ],
									"style" : "",
									"text_width" : 92.0
								}

							}
, 							{
								"box" : 								{
									"attr" : "warmcolor",
									"fontface" : 0,
									"fontname" : "Arial",
									"fontsize" : 11.595187,
									"id" : "obj-15",
									"lock" : 1,
									"maxclass" : "attrui",
									"numinlets" : 1,
									"numoutlets" : 1,
									"outlettype" : [ "" ],
									"patching_rect" : [ 553.25, 241.0, 166.0, 21.0 ],
									"style" : "",
									"text_width" : 92.0
								}

							}
, 							{
								"box" : 								{
									"attr" : "hotcolor",
									"fontface" : 0,
									"fontname" : "Arial",
									"fontsize" : 11.595187,
									"id" : "obj-44",
									"lock" : 1,
									"maxclass" : "attrui",
									"numinlets" : 1,
									"numoutlets" : 1,
									"outlettype" : [ "" ],
									"patching_rect" : [ 553.25, 269.582611, 166.0, 21.0 ],
									"style" : "",
									"text_width" : 92.0
								}

							}
, 							{
								"box" : 								{
									"attr" : "overloadcolor",
									"fontface" : 0,
									"fontname" : "Arial",
									"fontsize" : 11.595187,
									"id" : "obj-18",
									"lock" : 1,
									"maxclass" : "attrui",
									"numinlets" : 1,
									"numoutlets" : 1,
									"outlettype" : [ "" ],
									"patching_rect" : [ 553.25, 300.985687, 166.0, 21.0 ],
									"style" : "",
									"text_width" : 92.0
								}

							}
, 							{
								"box" : 								{
									"fontname" : "Arial",
									"fontsize" : 11.595187,
									"id" : "obj-34",
									"maxclass" : "newobj",
									"numinlets" : 2,
									"numoutlets" : 1,
									"outlettype" : [ "signal" ],
									"patching_rect" : [ 394.0, 119.0, 72.0, 21.0 ],
									"style" : "",
									"text" : "phasor~ 0.1"
								}

							}
, 							{
								"box" : 								{
									"fontname" : "Arial",
									"fontsize" : 11.595187,
									"id" : "obj-30",
									"linecount" : 2,
									"maxclass" : "newobj",
									"numinlets" : 2,
									"numoutlets" : 1,
									"outlettype" : [ "signal" ],
									"patching_rect" : [ 394.0, 145.5, 100.0, 34.0 ],
									"style" : "",
									"text" : "triangle~ 0.5 @lo -0.5 @hi 0.5"
								}

							}
, 							{
								"box" : 								{
									"fontname" : "Arial",
									"fontsize" : 12.0,
									"id" : "obj-4",
									"linecount" : 2,
									"maxclass" : "comment",
									"numinlets" : 1,
									"numoutlets" : 0,
									"patching_rect" : [ 519.25, 543.75, 234.0, 33.0 ],
									"style" : "",
									"text" : "The offset performs an xyz rotation of the channels positions.",
									"textcolor" : [ 0.30292, 0.30292, 0.30292, 1.0 ],
									"varname" : "autohelp_top_description[5]"
								}

							}
, 							{
								"box" : 								{
									"angle" : 0.0,
									"bgcolor" : [ 0.94324, 0.954082, 0.954082, 1.0 ],
									"border" : 1,
									"bordercolor" : [ 0.75, 0.75, 0.75, 1.0 ],
									"id" : "obj-6",
									"maxclass" : "panel",
									"mode" : 0,
									"numinlets" : 1,
									"numoutlets" : 0,
									"patching_rect" : [ 519.25, 543.75, 234.0, 33.0 ],
									"proportion" : 0.39,
									"rounded" : 0,
									"style" : ""
								}

							}
, 							{
								"box" : 								{
									"attr" : "interval",
									"fontface" : 0,
									"fontname" : "Arial",
									"fontsize" : 11.595187,
									"id" : "obj-8",
									"lock" : 1,
									"maxclass" : "attrui",
									"numinlets" : 1,
									"numoutlets" : 1,
									"outlettype" : [ "" ],
									"patching_rect" : [ 553.25, 427.929077, 166.0, 21.0 ],
									"style" : "",
									"text_width" : 72.75
								}

							}
, 							{
								"box" : 								{
									"fontface" : 0,
									"fontname" : "Arial",
									"fontsize" : 11.595187,
									"id" : "obj-2",
									"maxclass" : "newobj",
									"numinlets" : 16,
									"numoutlets" : 20,
									"outlettype" : [ "signal", "signal", "signal", "signal", "signal", "signal", "signal", "signal", "signal", "signal", "signal", "signal", "signal", "signal", "signal", "signal", "signal", "signal", "signal", "signal" ],
									"patching_rect" : [ 31.0, 295.582611, 382.0, 21.0 ],
									"style" : "",
									"text" : "hoa.3d.decoder~ 3 20"
								}

							}
, 							{
								"box" : 								{
									"fontface" : 0,
									"fontname" : "Arial",
									"fontsize" : 11.595187,
									"id" : "obj-5",
									"maxclass" : "newobj",
									"numinlets" : 2,
									"numoutlets" : 1,
									"outlettype" : [ "signal" ],
									"patching_rect" : [ 252.5, 130.0, 72.0, 21.0 ],
									"style" : "",
									"text" : "phasor~ 0.1"
								}

							}
, 							{
								"box" : 								{
									"fontname" : "Arial",
									"fontsize" : 11.595187,
									"hidden" : 1,
									"id" : "obj-38",
									"maxclass" : "newobj",
									"numinlets" : 1,
									"numoutlets" : 1,
									"outlettype" : [ "" ],
									"patching_rect" : [ 31.0, 119.0, 70.0, 21.0 ],
									"style" : "",
									"text" : "loadmess 1"
								}

							}
, 							{
								"box" : 								{
									"fontface" : 0,
									"fontname" : "Arial",
									"fontsize" : 11.595187,
									"id" : "obj-36",
									"maxclass" : "number~",
									"mode" : 1,
									"numinlets" : 2,
									"numoutlets" : 2,
									"outlettype" : [ "signal", "float" ],
									"patching_rect" : [ 31.0, 151.0, 56.0, 21.0 ],
									"sig" : 1.0,
									"style" : ""
								}

							}
, 							{
								"box" : 								{
									"bgcolor" : [ 0.853045, 0.853045, 0.853045, 1.0 ],
									"color" : [ 0.92549, 0.364706, 0.341176, 1.0 ],
									"id" : "obj-12",
									"local" : 1,
									"maxclass" : "ezdac~",
									"numinlets" : 2,
									"numoutlets" : 0,
									"patching_rect" : [ 519.25, 636.0, 45.0, 45.0 ],
									"style" : ""
								}

							}
, 							{
								"box" : 								{
									"fontname" : "Arial",
									"fontsize" : 12.0,
									"id" : "obj-14",
									"linecount" : 2,
									"maxclass" : "comment",
									"numinlets" : 1,
									"numoutlets" : 0,
									"patching_rect" : [ 6.25, 67.5, 486.0, 33.0 ],
									"style" : "",
									"text" : "hoa.3d.meter~ displays the peak levels for a spherical array of loudspeakers. It computes and displays the energy and velocity vectors.",
									"textcolor" : [ 0.30292, 0.30292, 0.30292, 1.0 ],
									"varname" : "autohelp_top_description[3]"
								}

							}
, 							{
								"box" : 								{
									"angle" : 0.0,
									"bgcolor" : [ 0.94324, 0.954082, 0.954082, 1.0 ],
									"border" : 1,
									"bordercolor" : [ 0.75, 0.75, 0.75, 1.0 ],
									"id" : "obj-19",
									"maxclass" : "panel",
									"mode" : 0,
									"numinlets" : 1,
									"numoutlets" : 0,
									"patching_rect" : [ 6.25, 67.5, 483.0, 33.0 ],
									"proportion" : 0.39,
									"rounded" : 0,
									"style" : ""
								}

							}
, 							{
								"box" : 								{
									"args" : [ "@obj-name", "hoa.3d.meter~", "@obj-desc", "A spherical version of the meter~ with sound field descriptor." ],
									"bgmode" : 0,
									"border" : 0,
									"clickthrough" : 0,
									"enablehscroll" : 0,
									"enablevscroll" : 0,
									"id" : "obj-56",
									"lockeddragscroll" : 0,
									"maxclass" : "bpatcher",
									"name" : "hoa.helpheader.maxpat",
									"numinlets" : 1,
									"numoutlets" : 0,
									"offset" : [ 0.0, 0.0 ],
									"patching_rect" : [ 6.25, 6.0, 483.0, 56.0 ],
									"viewvisibility" : 1
								}

							}
, 							{
								"box" : 								{
									"fontname" : "Arial",
									"fontsize" : 7.180877,
									"hidden" : 1,
									"id" : "obj-57",
									"linecount" : 2,
									"maxclass" : "newobj",
									"numinlets" : 4,
									"numoutlets" : 0,
									"patching_rect" : [ 418.25, 22.5, 52.0, 25.0 ],
									"style" : "",
									"text" : "bgcolor 0.93 0.93 0.92 1."
								}

							}
, 							{
								"box" : 								{
									"fontname" : "Arial",
									"fontsize" : 11.595187,
									"hidden" : 1,
									"id" : "obj-46",
									"maxclass" : "newobj",
									"numinlets" : 0,
									"numoutlets" : 1,
									"outlettype" : [ "bang" ],
									"patcher" : 									{
										"fileversion" : 1,
										"appversion" : 										{
											"major" : 7,
											"minor" : 0,
											"revision" : 3,
											"architecture" : "x64",
											"modernui" : 1
										}
,
										"rect" : [ 413.0, 101.0, 204.0, 214.0 ],
										"bglocked" : 0,
										"openinpresentation" : 0,
										"default_fontsize" : 12.0,
										"default_fontface" : 0,
										"default_fontname" : "Arial",
										"gridonopen" : 1,
										"gridsize" : [ 15.0, 15.0 ],
										"gridsnaponopen" : 1,
										"objectsnaponopen" : 1,
										"statusbarvisible" : 2,
										"toolbarvisible" : 1,
										"lefttoolbarpinned" : 0,
										"toptoolbarpinned" : 0,
										"righttoolbarpinned" : 0,
										"bottomtoolbarpinned" : 0,
										"toolbars_unpinned_last_save" : 0,
										"tallnewobj" : 0,
										"boxanimatetime" : 200,
										"enablehscroll" : 1,
										"enablevscroll" : 1,
										"devicewidth" : 0.0,
										"description" : "",
										"digest" : "",
										"tags" : "",
										"style" : "",
										"subpatcher_template" : "",
										"boxes" : [ 											{
												"box" : 												{
													"fontname" : "Arial",
													"fontsize" : 12.0,
													"id" : "obj-5",
													"maxclass" : "newobj",
													"numinlets" : 1,
													"numoutlets" : 2,
													"outlettype" : [ "int", "int" ],
													"patching_rect" : [ 85.0, 78.0, 49.0, 20.0 ],
													"style" : "",
													"text" : "unpack"
												}

											}
, 											{
												"box" : 												{
													"fontname" : "Arial",
													"fontsize" : 12.0,
													"id" : "obj-4",
													"maxclass" : "newobj",
													"numinlets" : 1,
													"numoutlets" : 1,
													"outlettype" : [ "bang" ],
													"patching_rect" : [ 85.0, 9.0, 60.0, 20.0 ],
													"style" : "",
													"text" : "loadbang"
												}

											}
, 											{
												"box" : 												{
													"fontname" : "Arial",
													"fontsize" : 12.0,
													"id" : "obj-3",
													"maxclass" : "number",
													"numinlets" : 1,
													"numoutlets" : 2,
													"outlettype" : [ "", "bang" ],
													"parameter_enable" : 0,
													"patching_rect" : [ 145.0, 119.0, 50.0, 20.0 ],
													"style" : ""
												}

											}
, 											{
												"box" : 												{
													"fontname" : "Arial",
													"fontsize" : 12.0,
													"id" : "obj-1",
													"maxclass" : "newobj",
													"numinlets" : 1,
													"numoutlets" : 2,
													"outlettype" : [ "", "" ],
													"patching_rect" : [ 85.0, 41.0, 74.0, 20.0 ],
													"style" : "",
													"text" : "patcherargs"
												}

											}
, 											{
												"box" : 												{
													"id" : "obj-10",
													"maxclass" : "button",
													"numinlets" : 1,
													"numoutlets" : 1,
													"outlettype" : [ "bang" ],
													"patching_rect" : [ 16.5, 149.0, 20.0, 20.0 ],
													"style" : ""
												}

											}
, 											{
												"box" : 												{
													"fontname" : "Arial",
													"fontsize" : 11.595187,
													"id" : "obj-23",
													"maxclass" : "newobj",
													"numinlets" : 2,
													"numoutlets" : 2,
													"outlettype" : [ "bang", "" ],
													"patching_rect" : [ 16.5, 119.0, 117.5, 19.0 ],
													"style" : "",
													"text" : "sel 32"
												}

											}
, 											{
												"box" : 												{
													"fontname" : "Arial",
													"fontsize" : 11.595187,
													"id" : "obj-17",
													"maxclass" : "newobj",
													"numinlets" : 0,
													"numoutlets" : 4,
													"outlettype" : [ "int", "int", "int", "int" ],
													"patching_rect" : [ 16.5, 78.0, 59.5, 19.0 ],
													"style" : "",
													"text" : "key"
												}

											}
, 											{
												"box" : 												{
													"comment" : "",
													"id" : "obj-45",
													"maxclass" : "outlet",
													"numinlets" : 1,
													"numoutlets" : 0,
													"patching_rect" : [ 16.5, 178.0, 25.0, 25.0 ],
													"style" : ""
												}

											}
 ],
										"lines" : [ 											{
												"patchline" : 												{
													"destination" : [ "obj-5", 0 ],
													"disabled" : 0,
													"hidden" : 0,
													"source" : [ "obj-1", 0 ]
												}

											}
, 											{
												"patchline" : 												{
													"destination" : [ "obj-45", 0 ],
													"disabled" : 0,
													"hidden" : 0,
													"source" : [ "obj-10", 0 ]
												}

											}
, 											{
												"patchline" : 												{
													"destination" : [ "obj-23", 0 ],
													"disabled" : 0,
													"hidden" : 0,
													"source" : [ "obj-17", 0 ]
												}

											}
, 											{
												"patchline" : 												{
													"destination" : [ "obj-10", 0 ],
													"disabled" : 0,
													"hidden" : 0,
													"midpoints" : [ 26.0, 140.0, 26.0, 140.0 ],
													"source" : [ "obj-23", 0 ]
												}

											}
, 											{
												"patchline" : 												{
													"destination" : [ "obj-1", 0 ],
													"disabled" : 0,
													"hidden" : 0,
													"source" : [ "obj-4", 0 ]
												}

											}
, 											{
												"patchline" : 												{
													"destination" : [ "obj-23", 1 ],
													"disabled" : 0,
													"hidden" : 0,
													"source" : [ "obj-5", 1 ]
												}

											}
, 											{
												"patchline" : 												{
													"destination" : [ "obj-3", 0 ],
													"disabled" : 0,
													"hidden" : 0,
													"source" : [ "obj-5", 1 ]
												}

											}
 ]
									}
,
									"patching_rect" : [ 516.0, 13.5, 69.0, 21.0 ],
									"saved_object_attributes" : 									{
										"description" : "",
										"digest" : "",
										"globalpatchername" : "",
										"style" : "",
										"tags" : ""
									}
,
									"style" : "",
									"text" : "p keysel 32"
								}

							}
, 							{
								"box" : 								{
									"fontname" : "Arial",
									"fontsize" : 11.595187,
									"hidden" : 1,
									"id" : "obj-20",
									"maxclass" : "newobj",
									"numinlets" : 1,
									"numoutlets" : 0,
									"patching_rect" : [ 516.0, 43.5, 74.0, 21.0 ],
									"saved_object_attributes" : 									{
										"nhcolor" : [ 0.0, 0.0, 1.0, 1.0 ],
										"phcolor" : [ 1.0, 0.0, 0.0, 1.0 ],
										"planecolor" : [ 1.0, 1.0, 1.0, 1.0 ],
										"zhcolor" : [ 0.2, 0.2, 0.2, 1.0 ]
									}
,
									"style" : "",
									"text" : "hoa.connect"
								}

							}
, 							{
								"box" : 								{
									"fontname" : "Arial",
									"fontsize" : 11.595187,
									"id" : "obj-26",
									"maxclass" : "newobj",
									"numinlets" : 16,
									"numoutlets" : 16,
									"outlettype" : [ "signal", "signal", "signal", "signal", "signal", "signal", "signal", "signal", "signal", "signal", "signal", "signal", "signal", "signal", "signal", "signal" ],
									"patching_rect" : [ 31.0, 253.0, 382.0, 21.0 ],
									"style" : "",
									"text" : "hoa.3d.optim~ 3 inPhase"
								}

							}
, 							{
								"box" : 								{
									"fontname" : "Arial",
									"fontsize" : 11.595187,
									"id" : "obj-23",
									"maxclass" : "newobj",
									"numinlets" : 2,
									"numoutlets" : 1,
									"outlettype" : [ "signal" ],
									"patching_rect" : [ 212.5, 163.5, 59.0, 21.0 ],
									"style" : "",
									"text" : "hoa.pi~ 2"
								}

							}
, 							{
								"box" : 								{
									"fontname" : "Arial",
									"fontsize" : 11.595187,
									"id" : "obj-25",
									"maxclass" : "newobj",
									"numinlets" : 3,
									"numoutlets" : 16,
									"outlettype" : [ "signal", "signal", "signal", "signal", "signal", "signal", "signal", "signal", "signal", "signal", "signal", "signal", "signal", "signal", "signal", "signal" ],
									"patching_rect" : [ 31.0, 209.0, 382.0, 21.0 ],
									"style" : "",
									"text" : "hoa.3d.encoder~ 3"
								}

							}
, 							{
								"box" : 								{
									"attr" : "view",
									"fontface" : 0,
									"fontname" : "Arial",
									"fontsize" : 11.595187,
									"id" : "obj-9",
									"lock" : 1,
									"maxclass" : "attrui",
									"numinlets" : 1,
									"numoutlets" : 1,
									"outlettype" : [ "" ],
									"patching_rect" : [ 553.25, 488.929077, 166.0, 21.0 ],
									"style" : "",
									"text_width" : 72.75
								}

							}
, 							{
								"box" : 								{
									"attr" : "vectors",
									"fontface" : 0,
									"fontname" : "Arial",
									"fontsize" : 11.595187,
									"id" : "obj-29",
									"lock" : 1,
									"maxclass" : "attrui",
									"numinlets" : 1,
									"numoutlets" : 1,
									"outlettype" : [ "" ],
									"patching_rect" : [ 553.25, 336.929077, 166.0, 21.0 ],
									"style" : "",
									"text_width" : 69.75
								}

							}
, 							{
								"box" : 								{
									"attr" : "channels",
									"fontface" : 0,
									"fontname" : "Arial",
									"fontsize" : 11.595187,
									"id" : "obj-16",
									"lock" : 1,
									"maxclass" : "attrui",
									"numinlets" : 1,
									"numoutlets" : 1,
									"outlettype" : [ "" ],
									"patching_rect" : [ 553.25, 457.929077, 166.0, 21.0 ],
									"style" : "",
									"text_width" : 72.75
								}

							}
, 							{
								"box" : 								{
									"attr" : "offset",
									"fontface" : 0,
									"fontname" : "Arial",
									"fontsize" : 11.595187,
									"id" : "obj-10",
									"lock" : 1,
									"maxclass" : "attrui",
									"numinlets" : 1,
									"numoutlets" : 1,
									"outlettype" : [ "" ],
									"patching_rect" : [ 519.25, 585.5, 234.0, 21.0 ],
									"style" : "",
									"text_width" : 59.5
								}

							}
 ],
						"lines" : [ 							{
								"patchline" : 								{
									"destination" : [ "obj-3", 0 ],
									"disabled" : 0,
									"hidden" : 0,
									"midpoints" : [ 528.75, 610.0, 502.0, 610.0, 502.0, 332.0, 40.5, 332.0 ],
									"source" : [ "obj-10", 0 ]
								}

							}
, 							{
								"patchline" : 								{
									"destination" : [ "obj-3", 0 ],
									"disabled" : 0,
									"hidden" : 0,
									"midpoints" : [ 562.75, 146.0, 501.0, 146.0, 501.0, 332.0, 40.5, 332.0 ],
									"source" : [ "obj-11", 0 ]
								}

							}
, 							{
								"patchline" : 								{
									"destination" : [ "obj-3", 0 ],
									"disabled" : 0,
									"hidden" : 0,
									"midpoints" : [ 562.75, 209.0, 501.0, 209.0, 501.0, 332.0, 40.5, 332.0 ],
									"source" : [ "obj-13", 0 ]
								}

							}
, 							{
								"patchline" : 								{
									"destination" : [ "obj-3", 0 ],
									"disabled" : 0,
									"hidden" : 0,
									"midpoints" : [ 562.75, 265.0, 501.0, 265.0, 501.0, 332.0, 40.5, 332.0 ],
									"source" : [ "obj-15", 0 ]
								}

							}
, 							{
								"patchline" : 								{
									"destination" : [ "obj-3", 0 ],
									"disabled" : 0,
									"hidden" : 0,
									"midpoints" : [ 562.75, 482.0, 502.0, 482.0, 502.0, 332.0, 40.5, 332.0 ],
									"source" : [ "obj-16", 0 ]
								}

							}
, 							{
								"patchline" : 								{
									"destination" : [ "obj-3", 0 ],
									"disabled" : 0,
									"hidden" : 0,
									"midpoints" : [ 562.75, 332.0, 423.0, 332.0, 423.0, 332.0, 40.5, 332.0 ],
									"source" : [ "obj-18", 0 ]
								}

							}
, 							{
								"patchline" : 								{
									"destination" : [ "obj-3", 19 ],
									"disabled" : 0,
									"hidden" : 0,
									"source" : [ "obj-2", 19 ]
								}

							}
, 							{
								"patchline" : 								{
									"destination" : [ "obj-3", 18 ],
									"disabled" : 0,
									"hidden" : 0,
									"source" : [ "obj-2", 18 ]
								}

							}
, 							{
								"patchline" : 								{
									"destination" : [ "obj-3", 17 ],
									"disabled" : 0,
									"hidden" : 0,
									"source" : [ "obj-2", 17 ]
								}

							}
, 							{
								"patchline" : 								{
									"destination" : [ "obj-3", 16 ],
									"disabled" : 0,
									"hidden" : 0,
									"source" : [ "obj-2", 16 ]
								}

							}
, 							{
								"patchline" : 								{
									"destination" : [ "obj-3", 15 ],
									"disabled" : 0,
									"hidden" : 0,
									"source" : [ "obj-2", 15 ]
								}

							}
, 							{
								"patchline" : 								{
									"destination" : [ "obj-3", 14 ],
									"disabled" : 0,
									"hidden" : 0,
									"source" : [ "obj-2", 14 ]
								}

							}
, 							{
								"patchline" : 								{
									"destination" : [ "obj-3", 13 ],
									"disabled" : 0,
									"hidden" : 0,
									"source" : [ "obj-2", 13 ]
								}

							}
, 							{
								"patchline" : 								{
									"destination" : [ "obj-3", 12 ],
									"disabled" : 0,
									"hidden" : 0,
									"source" : [ "obj-2", 12 ]
								}

							}
, 							{
								"patchline" : 								{
									"destination" : [ "obj-3", 11 ],
									"disabled" : 0,
									"hidden" : 0,
									"source" : [ "obj-2", 11 ]
								}

							}
, 							{
								"patchline" : 								{
									"destination" : [ "obj-3", 10 ],
									"disabled" : 0,
									"hidden" : 0,
									"source" : [ "obj-2", 10 ]
								}

							}
, 							{
								"patchline" : 								{
									"destination" : [ "obj-3", 9 ],
									"disabled" : 0,
									"hidden" : 0,
									"source" : [ "obj-2", 9 ]
								}

							}
, 							{
								"patchline" : 								{
									"destination" : [ "obj-3", 8 ],
									"disabled" : 0,
									"hidden" : 0,
									"source" : [ "obj-2", 8 ]
								}

							}
, 							{
								"patchline" : 								{
									"destination" : [ "obj-3", 7 ],
									"disabled" : 0,
									"hidden" : 0,
									"source" : [ "obj-2", 7 ]
								}

							}
, 							{
								"patchline" : 								{
									"destination" : [ "obj-3", 6 ],
									"disabled" : 0,
									"hidden" : 0,
									"source" : [ "obj-2", 6 ]
								}

							}
, 							{
								"patchline" : 								{
									"destination" : [ "obj-3", 5 ],
									"disabled" : 0,
									"hidden" : 0,
									"source" : [ "obj-2", 5 ]
								}

							}
, 							{
								"patchline" : 								{
									"destination" : [ "obj-3", 4 ],
									"disabled" : 0,
									"hidden" : 0,
									"source" : [ "obj-2", 4 ]
								}

							}
, 							{
								"patchline" : 								{
									"destination" : [ "obj-3", 3 ],
									"disabled" : 0,
									"hidden" : 0,
									"source" : [ "obj-2", 3 ]
								}

							}
, 							{
								"patchline" : 								{
									"destination" : [ "obj-3", 2 ],
									"disabled" : 0,
									"hidden" : 0,
									"source" : [ "obj-2", 2 ]
								}

							}
, 							{
								"patchline" : 								{
									"destination" : [ "obj-3", 1 ],
									"disabled" : 0,
									"hidden" : 0,
									"source" : [ "obj-2", 1 ]
								}

							}
, 							{
								"patchline" : 								{
									"destination" : [ "obj-3", 0 ],
									"disabled" : 0,
									"hidden" : 0,
									"source" : [ "obj-2", 0 ]
								}

							}
, 							{
								"patchline" : 								{
									"destination" : [ "obj-25", 2 ],
									"disabled" : 0,
									"hidden" : 0,
									"source" : [ "obj-21", 0 ]
								}

							}
, 							{
								"patchline" : 								{
									"destination" : [ "obj-3", 0 ],
									"disabled" : 0,
									"hidden" : 0,
									"midpoints" : [ 562.75, 179.0, 501.0, 179.0, 501.0, 332.0, 40.5, 332.0 ],
									"source" : [ "obj-22", 0 ]
								}

							}
, 							{
								"patchline" : 								{
									"destination" : [ "obj-25", 1 ],
									"disabled" : 0,
									"hidden" : 0,
									"source" : [ "obj-23", 0 ]
								}

							}
, 							{
								"patchline" : 								{
									"color" : [ 1.0, 0.0, 0.0, 1.0 ],
									"destination" : [ "obj-26", 15 ],
									"disabled" : 0,
									"hidden" : 0,
									"source" : [ "obj-25", 15 ]
								}

							}
, 							{
								"patchline" : 								{
									"color" : [ 1.0, 0.0, 0.0, 1.0 ],
									"destination" : [ "obj-26", 14 ],
									"disabled" : 0,
									"hidden" : 0,
									"source" : [ "obj-25", 14 ]
								}

							}
, 							{
								"patchline" : 								{
									"color" : [ 1.0, 0.0, 0.0, 1.0 ],
									"destination" : [ "obj-26", 13 ],
									"disabled" : 0,
									"hidden" : 0,
									"source" : [ "obj-25", 13 ]
								}

							}
, 							{
								"patchline" : 								{
									"color" : [ 0.2, 0.2, 0.2, 1.0 ],
									"destination" : [ "obj-26", 12 ],
									"disabled" : 0,
									"hidden" : 0,
									"source" : [ "obj-25", 12 ]
								}

							}
, 							{
								"patchline" : 								{
									"color" : [ 0.0, 0.0, 1.0, 1.0 ],
									"destination" : [ "obj-26", 11 ],
									"disabled" : 0,
									"hidden" : 0,
									"source" : [ "obj-25", 11 ]
								}

							}
, 							{
								"patchline" : 								{
									"color" : [ 0.0, 0.0, 1.0, 1.0 ],
									"destination" : [ "obj-26", 10 ],
									"disabled" : 0,
									"hidden" : 0,
									"source" : [ "obj-25", 10 ]
								}

							}
, 							{
								"patchline" : 								{
									"color" : [ 0.0, 0.0, 1.0, 1.0 ],
									"destination" : [ "obj-26", 9 ],
									"disabled" : 0,
									"hidden" : 0,
									"source" : [ "obj-25", 9 ]
								}

							}
, 							{
								"patchline" : 								{
									"color" : [ 1.0, 0.0, 0.0, 1.0 ],
									"destination" : [ "obj-26", 8 ],
									"disabled" : 0,
									"hidden" : 0,
									"source" : [ "obj-25", 8 ]
								}

							}
, 							{
								"patchline" : 								{
									"color" : [ 1.0, 0.0, 0.0, 1.0 ],
									"destination" : [ "obj-26", 7 ],
									"disabled" : 0,
									"hidden" : 0,
									"source" : [ "obj-25", 7 ]
								}

							}
, 							{
								"patchline" : 								{
									"color" : [ 0.2, 0.2, 0.2, 1.0 ],
									"destination" : [ "obj-26", 6 ],
									"disabled" : 0,
									"hidden" : 0,
									"source" : [ "obj-25", 6 ]
								}

							}
, 							{
								"patchline" : 								{
									"color" : [ 0.0, 0.0, 1.0, 1.0 ],
									"destination" : [ "obj-26", 5 ],
									"disabled" : 0,
									"hidden" : 0,
									"source" : [ "obj-25", 5 ]
								}

							}
, 							{
								"patchline" : 								{
									"color" : [ 0.0, 0.0, 1.0, 1.0 ],
									"destination" : [ "obj-26", 4 ],
									"disabled" : 0,
									"hidden" : 0,
									"source" : [ "obj-25", 4 ]
								}

							}
, 							{
								"patchline" : 								{
									"color" : [ 1.0, 0.0, 0.0, 1.0 ],
									"destination" : [ "obj-26", 3 ],
									"disabled" : 0,
									"hidden" : 0,
									"source" : [ "obj-25", 3 ]
								}

							}
, 							{
								"patchline" : 								{
									"color" : [ 0.2, 0.2, 0.2, 1.0 ],
									"destination" : [ "obj-26", 2 ],
									"disabled" : 0,
									"hidden" : 0,
									"source" : [ "obj-25", 2 ]
								}

							}
, 							{
								"patchline" : 								{
									"color" : [ 0.0, 0.0, 1.0, 1.0 ],
									"destination" : [ "obj-26", 1 ],
									"disabled" : 0,
									"hidden" : 0,
									"source" : [ "obj-25", 1 ]
								}

							}
, 							{
								"patchline" : 								{
									"color" : [ 0.2, 0.2, 0.2, 1.0 ],
									"destination" : [ "obj-26", 0 ],
									"disabled" : 0,
									"hidden" : 0,
									"source" : [ "obj-25", 0 ]
								}

							}
, 							{
								"patchline" : 								{
									"color" : [ 1.0, 0.0, 0.0, 1.0 ],
									"destination" : [ "obj-2", 15 ],
									"disabled" : 0,
									"hidden" : 0,
									"source" : [ "obj-26", 15 ]
								}

							}
, 							{
								"patchline" : 								{
									"color" : [ 1.0, 0.0, 0.0, 1.0 ],
									"destination" : [ "obj-2", 14 ],
									"disabled" : 0,
									"hidden" : 0,
									"source" : [ "obj-26", 14 ]
								}

							}
, 							{
								"patchline" : 								{
									"color" : [ 1.0, 0.0, 0.0, 1.0 ],
									"destination" : [ "obj-2", 13 ],
									"disabled" : 0,
									"hidden" : 0,
									"source" : [ "obj-26", 13 ]
								}

							}
, 							{
								"patchline" : 								{
									"color" : [ 0.2, 0.2, 0.2, 1.0 ],
									"destination" : [ "obj-2", 12 ],
									"disabled" : 0,
									"hidden" : 0,
									"source" : [ "obj-26", 12 ]
								}

							}
, 							{
								"patchline" : 								{
									"color" : [ 0.0, 0.0, 1.0, 1.0 ],
									"destination" : [ "obj-2", 11 ],
									"disabled" : 0,
									"hidden" : 0,
									"source" : [ "obj-26", 11 ]
								}

							}
, 							{
								"patchline" : 								{
									"color" : [ 0.0, 0.0, 1.0, 1.0 ],
									"destination" : [ "obj-2", 10 ],
									"disabled" : 0,
									"hidden" : 0,
									"source" : [ "obj-26", 10 ]
								}

							}
, 							{
								"patchline" : 								{
									"color" : [ 0.0, 0.0, 1.0, 1.0 ],
									"destination" : [ "obj-2", 9 ],
									"disabled" : 0,
									"hidden" : 0,
									"source" : [ "obj-26", 9 ]
								}

							}
, 							{
								"patchline" : 								{
									"color" : [ 1.0, 0.0, 0.0, 1.0 ],
									"destination" : [ "obj-2", 8 ],
									"disabled" : 0,
									"hidden" : 0,
									"source" : [ "obj-26", 8 ]
								}

							}
, 							{
								"patchline" : 								{
									"color" : [ 1.0, 0.0, 0.0, 1.0 ],
									"destination" : [ "obj-2", 7 ],
									"disabled" : 0,
									"hidden" : 0,
									"source" : [ "obj-26", 7 ]
								}

							}
, 							{
								"patchline" : 								{
									"color" : [ 0.2, 0.2, 0.2, 1.0 ],
									"destination" : [ "obj-2", 6 ],
									"disabled" : 0,
									"hidden" : 0,
									"source" : [ "obj-26", 6 ]
								}

							}
, 							{
								"patchline" : 								{
									"color" : [ 0.0, 0.0, 1.0, 1.0 ],
									"destination" : [ "obj-2", 5 ],
									"disabled" : 0,
									"hidden" : 0,
									"source" : [ "obj-26", 5 ]
								}

							}
, 							{
								"patchline" : 								{
									"color" : [ 0.0, 0.0, 1.0, 1.0 ],
									"destination" : [ "obj-2", 4 ],
									"disabled" : 0,
									"hidden" : 0,
									"source" : [ "obj-26", 4 ]
								}

							}
, 							{
								"patchline" : 								{
									"color" : [ 1.0, 0.0, 0.0, 1.0 ],
									"destination" : [ "obj-2", 3 ],
									"disabled" : 0,
									"hidden" : 0,
									"source" : [ "obj-26", 3 ]
								}

							}
, 							{
								"patchline" : 								{
									"color" : [ 0.2, 0.2, 0.2, 1.0 ],
									"destination" : [ "obj-2", 2 ],
									"disabled" : 0,
									"hidden" : 0,
									"source" : [ "obj-26", 2 ]
								}

							}
, 							{
								"patchline" : 								{
									"color" : [ 0.0, 0.0, 1.0, 1.0 ],
									"destination" : [ "obj-2", 1 ],
									"disabled" : 0,
									"hidden" : 0,
									"source" : [ "obj-26", 1 ]
								}

							}
, 							{
								"patchline" : 								{
									"color" : [ 0.2, 0.2, 0.2, 1.0 ],
									"destination" : [ "obj-2", 0 ],
									"disabled" : 0,
									"hidden" : 0,
									"source" : [ "obj-26", 0 ]
								}

							}
, 							{
								"patchline" : 								{
									"destination" : [ "obj-3", 0 ],
									"disabled" : 0,
									"hidden" : 0,
									"midpoints" : [ 562.75, 362.0, 502.0, 362.0, 502.0, 332.0, 40.5, 332.0 ],
									"source" : [ "obj-29", 0 ]
								}

							}
, 							{
								"patchline" : 								{
									"destination" : [ "obj-21", 0 ],
									"disabled" : 0,
									"hidden" : 0,
									"source" : [ "obj-30", 0 ]
								}

							}
, 							{
								"patchline" : 								{
									"destination" : [ "obj-30", 0 ],
									"disabled" : 0,
									"hidden" : 0,
									"source" : [ "obj-34", 0 ]
								}

							}
, 							{
								"patchline" : 								{
									"destination" : [ "obj-25", 0 ],
									"disabled" : 0,
									"hidden" : 0,
									"source" : [ "obj-36", 0 ]
								}

							}
, 							{
								"patchline" : 								{
									"destination" : [ "obj-36", 0 ],
									"disabled" : 0,
									"hidden" : 1,
									"source" : [ "obj-38", 0 ]
								}

							}
, 							{
								"patchline" : 								{
									"destination" : [ "obj-3", 0 ],
									"disabled" : 0,
									"hidden" : 0,
									"midpoints" : [ 562.75, 416.0, 502.0, 416.0, 502.0, 332.0, 40.5, 332.0 ],
									"source" : [ "obj-40", 0 ]
								}

							}
, 							{
								"patchline" : 								{
									"destination" : [ "obj-3", 0 ],
									"disabled" : 0,
									"hidden" : 0,
									"midpoints" : [ 562.75, 389.0, 502.0, 389.0, 502.0, 332.0, 40.5, 332.0 ],
									"source" : [ "obj-41", 0 ]
								}

							}
, 							{
								"patchline" : 								{
									"destination" : [ "obj-3", 0 ],
									"disabled" : 0,
									"hidden" : 0,
									"midpoints" : [ 562.75, 237.0, 501.0, 237.0, 501.0, 332.0, 40.5, 332.0 ],
									"source" : [ "obj-43", 0 ]
								}

							}
, 							{
								"patchline" : 								{
									"destination" : [ "obj-3", 0 ],
									"disabled" : 0,
									"hidden" : 0,
									"midpoints" : [ 562.75, 295.0, 501.0, 295.0, 501.0, 332.0, 40.5, 332.0 ],
									"source" : [ "obj-44", 0 ]
								}

							}
, 							{
								"patchline" : 								{
									"destination" : [ "obj-20", 0 ],
									"disabled" : 0,
									"hidden" : 1,
									"midpoints" : [ 525.5, 34.5, 525.5, 34.5 ],
									"source" : [ "obj-46", 0 ]
								}

							}
, 							{
								"patchline" : 								{
									"destination" : [ "obj-23", 1 ],
									"disabled" : 0,
									"hidden" : 0,
									"source" : [ "obj-5", 0 ]
								}

							}
, 							{
								"patchline" : 								{
									"destination" : [ "obj-60", 0 ],
									"disabled" : 0,
									"hidden" : 0,
									"source" : [ "obj-51", 0 ]
								}

							}
, 							{
								"patchline" : 								{
									"destination" : [ "obj-60", 0 ],
									"disabled" : 0,
									"hidden" : 0,
									"source" : [ "obj-53", 0 ]
								}

							}
, 							{
								"patchline" : 								{
									"destination" : [ "obj-2", 0 ],
									"disabled" : 0,
									"hidden" : 0,
									"midpoints" : [ 40.5, 709.0, 20.5, 709.0, 20.5, 287.582611, 40.5, 287.582611 ],
									"source" : [ "obj-60", 0 ]
								}

							}
, 							{
								"patchline" : 								{
									"destination" : [ "obj-3", 0 ],
									"disabled" : 0,
									"hidden" : 0,
									"midpoints" : [ 40.5, 708.0, 20.5, 708.0, 20.5, 332.929077, 40.5, 332.929077 ],
									"source" : [ "obj-60", 0 ]
								}

							}
, 							{
								"patchline" : 								{
									"destination" : [ "obj-3", 0 ],
									"disabled" : 0,
									"hidden" : 0,
									"midpoints" : [ 562.75, 450.0, 502.0, 450.0, 502.0, 332.0, 40.5, 332.0 ],
									"source" : [ "obj-8", 0 ]
								}

							}
, 							{
								"patchline" : 								{
									"destination" : [ "obj-3", 0 ],
									"disabled" : 0,
									"hidden" : 0,
									"midpoints" : [ 562.75, 514.0, 502.0, 514.0, 502.0, 332.0, 40.5, 332.0 ],
									"source" : [ "obj-9", 0 ]
								}

							}
 ],
						"styles" : [ 							{
								"name" : "newobjBlue-1",
								"default" : 								{
									"accentcolor" : [ 0.317647, 0.654902, 0.976471, 1.0 ]
								}
,
								"parentstyle" : "",
								"multi" : 0
							}
, 							{
								"name" : "newobjGreen-1",
								"default" : 								{
									"accentcolor" : [ 0.0, 0.533333, 0.168627, 1.0 ]
								}
,
								"parentstyle" : "",
								"multi" : 0
							}
, 							{
								"name" : "newobjYellow-1",
								"default" : 								{
									"fontsize" : [ 12.059008 ],
									"accentcolor" : [ 0.82517, 0.78181, 0.059545, 1.0 ]
								}
,
								"parentstyle" : "",
								"multi" : 0
							}
 ]
					}
,
					"patching_rect" : [ 22.0, 27.0, 51.0, 20.0 ],
					"saved_object_attributes" : 					{
						"description" : "",
						"digest" : "",
						"fontsize" : 11.595187,
						"globalpatchername" : "",
						"style" : "",
						"tags" : ""
					}
,
					"style" : "",
					"text" : "p basic",
					"textcolor" : [ 0.209184, 0.209184, 0.209184, 1.0 ]
				}

			}
, 			{
				"box" : 				{
					"bgcolor" : [ 1.0, 1.0, 1.0, 1.0 ],
					"color" : [ 0.734694, 0.734694, 0.734694, 1.0 ],
					"fontname" : "Arial",
					"fontsize" : 12.0,
					"hidden" : 1,
					"id" : "obj-24",
					"maxclass" : "newobj",
					"numinlets" : 0,
					"numoutlets" : 0,
					"patcher" : 					{
						"fileversion" : 1,
						"appversion" : 						{
							"major" : 7,
							"minor" : 0,
							"revision" : 3,
							"architecture" : "x64",
							"modernui" : 1
						}
,
						"rect" : [ 0.0, 26.0, 762.0, 718.0 ],
						"bglocked" : 0,
						"openinpresentation" : 0,
						"default_fontsize" : 13.0,
						"default_fontface" : 0,
						"default_fontname" : "Arial",
						"gridonopen" : 1,
						"gridsize" : [ 5.0, 5.0 ],
						"gridsnaponopen" : 1,
						"objectsnaponopen" : 1,
						"statusbarvisible" : 2,
						"toolbarvisible" : 1,
						"lefttoolbarpinned" : 0,
						"toptoolbarpinned" : 0,
						"righttoolbarpinned" : 0,
						"bottomtoolbarpinned" : 0,
						"toolbars_unpinned_last_save" : 0,
						"tallnewobj" : 0,
						"boxanimatetime" : 200,
						"enablehscroll" : 1,
						"enablevscroll" : 1,
						"devicewidth" : 0.0,
						"description" : "",
						"digest" : "",
						"tags" : "",
						"style" : "",
						"subpatcher_template" : "",
						"showontab" : 1,
						"boxes" : [  ],
						"lines" : [  ],
						"styles" : [ 							{
								"name" : "AudioStatus_Menu",
								"default" : 								{
									"bgfillcolor" : 									{
										"type" : "color",
										"color" : [ 0.294118, 0.313726, 0.337255, 1 ],
										"color1" : [ 0.454902, 0.462745, 0.482353, 0.0 ],
										"color2" : [ 0.290196, 0.309804, 0.301961, 1.0 ],
										"angle" : 270.0,
										"proportion" : 0.39,
										"autogradient" : 0
									}

								}
,
								"parentstyle" : "",
								"multi" : 0
							}
, 							{
								"name" : "newobjBlue-1",
								"default" : 								{
									"accentcolor" : [ 0.317647, 0.654902, 0.976471, 1.0 ]
								}
,
								"parentstyle" : "",
								"multi" : 0
							}
, 							{
								"name" : "newobjGreen-1",
								"default" : 								{
									"accentcolor" : [ 0.0, 0.533333, 0.168627, 1.0 ]
								}
,
								"parentstyle" : "",
								"multi" : 0
							}
, 							{
								"name" : "newobjYellow-1",
								"default" : 								{
									"fontsize" : [ 12.059008 ],
									"accentcolor" : [ 0.82517, 0.78181, 0.059545, 1.0 ]
								}
,
								"parentstyle" : "",
								"multi" : 0
							}
 ]
					}
,
					"patching_rect" : [ 88.0, 27.0, 50.0, 20.0 ],
					"saved_object_attributes" : 					{
						"description" : "",
						"digest" : "",
						"fontsize" : 13.0,
						"globalpatchername" : "",
						"style" : "",
						"tags" : ""
					}
,
					"style" : "",
					"text" : "p ?",
					"textcolor" : [ 0.209184, 0.209184, 0.209184, 1.0 ],
					"varname" : "q_tab"
				}

			}
 ],
		"lines" : [  ],
		"dependency_cache" : [ 			{
				"name" : "hoa.helpheader.maxpat",
				"bootpath" : "~/Documents/programmation/CICM/sourceTree/HoaLibrary-Max/Package/HoaLibrary/misc/others",
				"patcherrelativepath" : "../../misc/others",
				"type" : "JSON",
				"implicit" : 1
			}
, 			{
				"name" : "hoa.2d.scope~.svg",
				"bootpath" : "~/Documents/programmation/CICM/sourceTree/HoaLibrary-Max/Package/HoaLibrary/misc/object-palettes",
				"patcherrelativepath" : "../../misc/object-palettes",
				"type" : "svg ",
				"implicit" : 1
			}
, 			{
				"name" : "hoa.3d.encoder~.mxo",
				"type" : "iLaX"
			}
, 			{
				"name" : "hoa.pi~.mxo",
				"type" : "iLaX"
			}
, 			{
				"name" : "hoa.3d.optim~.mxo",
				"type" : "iLaX"
			}
, 			{
				"name" : "hoa.connect.mxo",
				"type" : "iLaX"
			}
, 			{
				"name" : "hoa.3d.decoder~.mxo",
				"type" : "iLaX"
			}
, 			{
				"name" : "hoa.3d.meter~.mxo",
				"type" : "iLaX"
			}
 ],
		"embedsnapshot" : 0,
		"styles" : [ 			{
				"name" : "AudioStatus_Menu",
				"default" : 				{
					"bgfillcolor" : 					{
						"type" : "color",
						"color" : [ 0.294118, 0.313726, 0.337255, 1 ],
						"color1" : [ 0.454902, 0.462745, 0.482353, 0.0 ],
						"color2" : [ 0.290196, 0.309804, 0.301961, 1.0 ],
						"angle" : 270.0,
						"proportion" : 0.39,
						"autogradient" : 0
					}

				}
,
				"parentstyle" : "",
				"multi" : 0
			}
, 			{
				"name" : "newobjBlue-1",
				"default" : 				{
					"accentcolor" : [ 0.317647, 0.654902, 0.976471, 1.0 ]
				}
,
				"parentstyle" : "",
				"multi" : 0
			}
, 			{
				"name" : "newobjGreen-1",
				"default" : 				{
					"accentcolor" : [ 0.0, 0.533333, 0.168627, 1.0 ]
				}
,
				"parentstyle" : "",
				"multi" : 0
			}
, 			{
				"name" : "newobjYellow-1",
				"default" : 				{
					"fontsize" : [ 12.059008 ],
					"accentcolor" : [ 0.82517, 0.78181, 0.059545, 1.0 ]
				}
,
				"parentstyle" : "",
				"multi" : 0
			}
 ]
	}

}
